{
.appVersion = "1342";
DisplayStrings = (
"æ"
);
copyright = "Copyright 2021 The Zen-Loop Project Authors (https://github.com/googlefonts/zen-loop)";
customParameters = (
{
name = glyphOrder;
value = (
NULL,
CR,
space,
exclam,
quotedbl,
numbersign,
dollar,
percent,
ampersand,
quotesingle,
parenleft,
parenright,
asterisk,
plus,
comma,
hyphen,
period,
slash,
zero,
one,
two,
three,
four,
five,
six,
seven,
eight,
nine,
colon,
semicolon,
less,
equal,
greater,
question,
at,
A,
B,
C,
D,
E,
F,
G,
H,
I,
J,
K,
L,
M,
N,
O,
P,
Q,
R,
S,
T,
U,
V,
W,
X,
Y,
Z,
bracketleft,
backslash,
bracketright,
asciicircum,
underscore,
grave,
a,
b,
c,
d,
e,
f,
g,
h,
i,
j,
k,
l,
m,
n,
o,
p,
q,
r,
s,
t,
u,
v,
w,
x,
y,
z,
braceleft,
bar,
braceright,
asciitilde,
cent,
bullet,
registered,
copyright,
trademark,
plusminus,
yen,
ellipsis,
nbspace,
endash,
emdash,
quotedblleft,
quotedblright,
quoteleft,
quoteright,
divide
);
},
{
name = license;
value = "This Font Software is licensed under the SIL Open Font License, Version 1.1. This license is available with a FAQ at: https://scripts.sil.org/OFL";
},
{
name = licenseURL;
value = "https://scripts.sil.org/OFL";
},
{
name = fsType;
value = (
);
},
{
name = "Use Typo Metrics";
value = 1;
}
);
date = "2020-03-17 08:19:04 +0000";
designer = "Yoshimichi Ohira";
designerURL = "https://www.zenfont.jp/";
disablesNiceNames = 1;
familyName = "Zen Loop";
fontMaster = (
{
alignmentZones = (
"{690, 5}",
"{477, 5}",
"{0, -5}",
"{-187, -5}"
);
ascender = 713;
capHeight = 690;
customParameters = (
{
name = TTFZones;
value = (
{
name = fig;
position = 668;
size = 12;
},
{
name = "T: 456";
position = 456;
size = 11;
},
{
name = base;
position = -12;
size = -11;
},
{
name = dsc;
position = -195;
size = -2;
}
);
},
{
name = underlineThickness;
value = 20;
},
{
name = underlinePosition;
value = -133;
},
{
name = typoAscender;
value = 820;
},
{
name = typoDescender;
value = 250;
},
{
name = typoLineGap;
value = 0;
},
{
name = hheaAscender;
value = 820;
},
{

glyphs = (
{
glyphname = exclam;
lastChange = "2020-10-02 15:15:11 +0000";
layers = (
{
background = {
paths = (
{
closed = 1;
nodes = (
"81 680 LINE SMOOTH",
"81 686 OFFCURVE",
"77 690 OFFCURVE",
"70 690 CURVE SMOOTH",
"64 690 OFFCURVE",
"60 686 OFFCURVE",
"60 680 CURVE SMOOTH",
"60 193 LINE SMOOTH",
"60 187 OFFCURVE",
"64 183 OFFCURVE",
"70 183 CURVE SMOOTH",
"77 183 OFFCURVE",
"81 187 OFFCURVE",
"81 193 CURVE SMOOTH"
);
},
{
closed = 1;
nodes = (
"81 89 LINE SMOOTH",
"81 95 OFFCURVE",
"77 99 OFFCURVE",
"70 99 CURVE SMOOTH",
"64 99 OFFCURVE",
"60 95 OFFCURVE",
"60 89 CURVE SMOOTH",
"60 10 LINE SMOOTH",
"60 4 OFFCURVE",
"64 0 OFFCURVE",
"70 0 CURVE SMOOTH",
"77 0 OFFCURVE",
"81 4 OFFCURVE",
"81 10 CURVE SMOOTH"
);
}
);
};
components = (
{
name = period;
transform = "{1, 0, 0, 1, -20, 0}";
}
);
guideLines = (
{
position = "{70, 183}";
}
);
layerId = master01;
paths = (
{
closed = 1;
nodes = (
"81 680 LINE SMOOTH",
"81 686 OFFCURVE",
"77 690 OFFCURVE",
"70 690 CURVE SMOOTH",
"64 690 OFFCURVE",
"60 686 OFFCURVE",
"60 680 CURVE SMOOTH",
"60 193 LINE SMOOTH",
"60 187 OFFCURVE",
"64 183 OFFCURVE",
"70 183 CURVE SMOOTH",
"77 183 OFFCURVE",
"81 187 OFFCURVE",
"81 193 CURVE SMOOTH"
);
}
);
width = 141;
},
{
associatedMasterId = master01;
layerId = "7C67927D-A7BA-402C-91EA-784FEA95ED57";
name = "Aug 9 20, 13:48";
paths = (
{
closed = 1;
nodes = (
"101 189 OFFCURVE",
"96 184 OFFCURVE",
"90 184 CURVE SMOOTH",
"85 184 OFFCURVE",
"80 189 OFFCURVE",
"80 194 CURVE SMOOTH",
"80 679 LINE SMOOTH",
"80 685 OFFCURVE",
"85 690 OFFCURVE",
"90 690 CURVE SMOOTH",
"96 690 OFFCURVE",
"101 685 OFFCURVE",
"101 679 CURVE SMOOTH",
"101 194 LINE SMOOTH"
);
},
{
closed = 1;
nodes = (
"101 5 OFFCURVE",
"96 0 OFFCURVE",
"90 0 CURVE SMOOTH",
"85 0 OFFCURVE",
"80 5 OFFCURVE",
"80 10 CURVE SMOOTH",
"80 91 LINE SMOOTH",
"80 97 OFFCURVE",
"85 101 OFFCURVE",
"90 101 CURVE SMOOTH",
"96 101 OFFCURVE",
"101 97 OFFCURVE",
"101 91 CURVE SMOOTH",
"101 10 LINE SMOOTH"
);
}
);
width = 181;
}
);
leftKerningGroup = H;
leftMetricsKey = H;
rightKerningGroup = H;
rightMetricsKey = H;
unicode = 0021;
},
{
glyphname = quotedbl;
lastChange = "2020-10-02 15:10:59 +0000";
layers = (
{
background = {
paths = (
{
closed = 1;
nodes = (
"145 506 OFFCURVE",
"140 501 OFFCURVE",
"134 501 CURVE SMOOTH",
"129 501 OFFCURVE",
"124 506 OFFCURVE",
"124 512 CURVE SMOOTH",
"124 679 LINE SMOOTH",
"124 685 OFFCURVE",
"129 690 OFFCURVE",
"134 690 CURVE SMOOTH",
"140 690 OFFCURVE",
"145 685 OFFCURVE",
"145 679 CURVE SMOOTH",
"145 512 LINE SMOOTH"
);
},
{
closed = 1;
nodes = (
"71 506 OFFCURVE",
"66 501 OFFCURVE",
"60 501 CURVE SMOOTH",
"55 501 OFFCURVE",
"50 506 OFFCURVE",
"50 512 CURVE SMOOTH",
"50 679 LINE SMOOTH",
"50 685 OFFCURVE",
"55 690 OFFCURVE",
"60 690 CURVE SMOOTH",
"66 690 OFFCURVE",
"71 685 OFFCURVE",
"71 679 CURVE SMOOTH",
"71 512 LINE SMOOTH"
);
}
);
};
components = (
{
name = quotesingle;
},
{
name = quotesingle;
transform = "{1, 0, 0, 1, 74, 0}";
}
);
layerId = master01;
width = 195;
},
{
associatedMasterId = master01;
layerId = "417CA73D-DED9-4C76-995C-B0E39C880AF9";
name = "Aug 9 20, 13:49";
paths = (
{
closed = 1;
nodes = (
"175 506 OFFCURVE",
"170 501 OFFCURVE",
"164 501 CURVE SMOOTH",
"159 501 OFFCURVE",
"154 506 OFFCURVE",
"154 512 CURVE SMOOTH",
"154 679 LINE SMOOTH",
"154 685 OFFCURVE",
"159 690 OFFCURVE",
"164 690 CURVE SMOOTH",
"170 690 OFFCURVE",
"175 685 OFFCURVE",
"175 679 CURVE SMOOTH",
"175 512 LINE SMOOTH"
);
},
{
closed = 1;
nodes = (
"101 506 OFFCURVE",
"96 501 OFFCURVE",
"90 501 CURVE SMOOTH",
"85 501 OFFCURVE",
"80 506 OFFCURVE",
"80 512 CURVE SMOOTH",
"80 679 LINE SMOOTH",
"80 685 OFFCURVE",
"85 690 OFFCURVE",
"90 690 CURVE SMOOTH",
"96 690 OFFCURVE",
"101 685 OFFCURVE",
"101 679 CURVE SMOOTH",
"101 512 LINE SMOOTH"
);
}
);
width = 255;
}
);
leftKerningGroup = quoteleft;
leftMetricsKey = quotesingle;
rightKerningGroup = quoteleft;
rightMetricsKey = quotesingle;
unicode = 0022;
},
{
glyphname = numbersign;
lastChange = "2020-10-10 11:32:15 +0000";
layers = (
{
background = {
paths = (
{
closed = 1;
nodes = (
"434 461 OFFCURVE",
"429 456 OFFCURVE",
"423 456 CURVE SMOOTH",
"343 456 LINE",
"303 233 LINE",
"380 233 LINE SMOOTH",
"386 233 OFFCURVE",
"391 229 OFFCURVE",
"391 223 CURVE SMOOTH",
"391 217 OFFCURVE",
"386 212 OFFCURVE",
"380 212 CURVE SMOOTH",
"300 212 LINE",
"264 8 LINE SMOOTH",
"263 3 OFFCURVE",
"257 -1 OFFCURVE",
"252 0 CURVE SMOOTH",
"246 1 OFFCURVE",
"242 6 OFFCURVE",
"243 12 CURVE SMOOTH",
"278 212 LINE",
"129 212 LINE",
"93 8 LINE SMOOTH",
"92 3 OFFCURVE",
"86 -1 OFFCURVE",
"81 0 CURVE SMOOTH",
"75 1 OFFCURVE",
"71 6 OFFCURVE",
"72 12 CURVE SMOOTH",
"108 212 LINE",
"30 212 LINE SMOOTH",
"25 212 OFFCURVE",
"20 217 OFFCURVE",
"20 223 CURVE SMOOTH",
"20 229 OFFCURVE",
"25 233 OFFCURVE",
"30 233 CURVE SMOOTH",
"111 233 LINE",
"151 456 LINE",
"74 456 LINE SMOOTH",
"68 456 OFFCURVE",
"63 461 OFFCURVE",
"63 467 CURVE SMOOTH",
"63 473 OFFCURVE",
"68 477 OFFCURVE",
"74 477 CURVE SMOOTH",
"154 477 LINE",
"190 681 LINE SMOOTH",
"191 687 OFFCURVE",
"197 691 OFFCURVE",
"202 690 CURVE SMOOTH",
"208 689 OFFCURVE",
"212 683 OFFCURVE",
"211 678 CURVE SMOOTH",
"176 477 LINE",
"325 477 LINE",
"361 681 LINE SMOOTH",
"362 687 OFFCURVE",
"367 691 OFFCURVE",
"373 690 CURVE SMOOTH",
"379 689 OFFCURVE",
"383 683 OFFCURVE",
"382 678 CURVE SMOOTH",
"346 477 LINE",
"423 477 LINE SMOOTH",
"429 477 OFFCURVE",
"434 473 OFFCURVE",
"434 467 CURVE SMOOTH"
);
},
{
closed = 1;
nodes = (
"172 456 LINE",
"133 233 LINE",
"282 233 LINE",
"321 456 LINE"
);
}
);
};
layerId = master01;
paths = (
{
closed = 1;
nodes = (
"430 456 OFFCURVE",
"434 460 OFFCURVE",
"434 467 CURVE SMOOTH",
"434 473 OFFCURVE",
"430 477 OFFCURVE",
"424 477 CURVE SMOOTH",
"73 477 LINE SMOOTH",
"67 477 OFFCURVE",
"63 473 OFFCURVE",
"63 467 CURVE SMOOTH",
"63 460 OFFCURVE",
"67 456 OFFCURVE",
"73 456 CURVE SMOOTH",
"424 456 LINE SMOOTH"
);
},
{
closed = 1;
nodes = (
"212 686 OFFCURVE",
"207 690 OFFCURVE",
"200 690 CURVE SMOOTH",
"194 690 OFFCURVE",
"191 686 OFFCURVE",
"190 680 CURVE SMOOTH",
"72 11 LINE SMOOTH",
"71 4 OFFCURVE",
"76 0 OFFCURVE",
"82 0 CURVE SMOOTH",
"89 0 OFFCURVE",
"92 4 OFFCURVE",
"93 10 CURVE SMOOTH",
"211 679 LINE SMOOTH"
);
},
{
closed = 1;
nodes = (
"382 686 OFFCURVE",
"377 690 OFFCURVE",
"370 690 CURVE SMOOTH",
"364 690 OFFCURVE",
"361 686 OFFCURVE",
"360 680 CURVE SMOOTH",
"242 11 LINE SMOOTH",
"241 4 OFFCURVE",
"246 0 OFFCURVE",
"252 0 CURVE SMOOTH",
"259 0 OFFCURVE",
"262 4 OFFCURVE",
"263 10 CURVE SMOOTH",
"381 679 LINE SMOOTH"
);
},
{
closed = 1;
nodes = (
"387 212 OFFCURVE",
"391 216 OFFCURVE",
"391 223 CURVE SMOOTH",
"391 229 OFFCURVE",
"387 233 OFFCURVE",
"381 233 CURVE SMOOTH",
"30 233 LINE SMOOTH",
"24 233 OFFCURVE",
"20 229 OFFCURVE",
"20 223 CURVE SMOOTH",
"20 216 OFFCURVE",
"24 212 OFFCURVE",
"30 212 CURVE SMOOTH",
"381 212 LINE SMOOTH"
);
}
);
width = 454;
},
{
associatedMasterId = master01;
layerId = "F39C85A0-8C78-4127-A3FD-1A9FEC56EF98";
name = "Aug 9 20, 13:55";
paths = (
{
closed = 1;
nodes = (
"454 461 OFFCURVE",
"449 456 OFFCURVE",
"443 456 CURVE SMOOTH",
"363 456 LINE",
"323 233 LINE",
"400 233 LINE SMOOTH",
"406 233 OFFCURVE",
"411 229 OFFCURVE",
"411 223 CURVE SMOOTH",
"411 217 OFFCURVE",
"406 212 OFFCURVE",
"400 212 CURVE SMOOTH",
"320 212 LINE",
"284 8 LINE SMOOTH",
"283 3 OFFCURVE",
"277 -1 OFFCURVE",
"272 0 CURVE SMOOTH",
"266 1 OFFCURVE",
"262 6 OFFCURVE",
"263 12 CURVE SMOOTH",
"298 212 LINE",
"149 212 LINE",
"113 8 LINE SMOOTH",
"112 3 OFFCURVE",
"106 -1 OFFCURVE",
"101 0 CURVE SMOOTH",
"95 1 OFFCURVE",
"91 6 OFFCURVE",
"92 12 CURVE SMOOTH",
"128 212 LINE",
"50 212 LINE SMOOTH",
"45 212 OFFCURVE",
"40 217 OFFCURVE",
"40 223 CURVE SMOOTH",
"40 229 OFFCURVE",
"45 233 OFFCURVE",
"50 233 CURVE SMOOTH",
"131 233 LINE",
"171 456 LINE",
"94 456 LINE SMOOTH",
"88 456 OFFCURVE",
"83 461 OFFCURVE",
"83 467 CURVE SMOOTH",
"83 473 OFFCURVE",
"88 477 OFFCURVE",
"94 477 CURVE SMOOTH",
"174 477 LINE",
"210 681 LINE SMOOTH",
"211 687 OFFCURVE",
"217 691 OFFCURVE",
"222 690 CURVE SMOOTH",
"228 689 OFFCURVE",
"232 683 OFFCURVE",
"231 678 CURVE SMOOTH",
"196 477 LINE",
"345 477 LINE",
"381 681 LINE SMOOTH",
"382 687 OFFCURVE",
"387 691 OFFCURVE",
"393 690 CURVE SMOOTH",
"399 689 OFFCURVE",
"403 683 OFFCURVE",
"402 678 CURVE SMOOTH",
"366 477 LINE",
"443 477 LINE SMOOTH",
"449 477 OFFCURVE",
"454 473 OFFCURVE",
"454 467 CURVE SMOOTH"
);
},
{
closed = 1;
nodes = (
"192 456 LINE",
"153 233 LINE",
"302 233 LINE",
"341 456 LINE"
);
}
);
width = 494;
}
);
rightMetricsKey = "=|";
unicode = 0023;
},
{
glyphname = dollar;
lastChange = "2020-10-02 15:32:47 +0000";
layers = (
{
background = {
paths = (
{
closed = 1;
nodes = (
"318 108 OFFCURVE",
"304 70 OFFCURVE",
"276 43 CURVE SMOOTH",
"253 19 OFFCURVE",
"222 5 OFFCURVE",
"186 1 CURVE",
"186 -76 LINE SMOOTH",
"186 -82 OFFCURVE",
"181 -86 OFFCURVE",
"176 -86 CURVE SMOOTH",
"170 -86 OFFCURVE",
"165 -82 OFFCURVE",
"165 -76 CURVE SMOOTH",
"165 0 LINE",
"90 0 OFFCURVE",
"25 60 OFFCURVE",
"13 140 CURVE SMOOTH",
"12 145 OFFCURVE",
"16 151 OFFCURVE",
"22 152 CURVE",
"28 152 OFFCURVE",
"33 148 OFFCURVE",
"34 143 CURVE SMOOTH",
"44 73 OFFCURVE",
"100 21 OFFCURVE",
"165 21 CURVE",
"165 345 LINE",
"93 402 OFFCURVE",
"37 443 OFFCURVE",
"37 541 CURVE SMOOTH",
"37 633 OFFCURVE",
"100 684 OFFCURVE",
"165 689 CURVE",
"165 766 LINE SMOOTH",
"165 772 OFFCURVE",
"170 777 OFFCURVE",
"176 777 CURVE SMOOTH",
"181 777 OFFCURVE",
"186 772 OFFCURVE",
"186 766 CURVE SMOOTH",
"186 690 LINE",
"234 686 OFFCURVE",
"276 652 OFFCURVE",
"298 598 CURVE",
"301 593 OFFCURVE",
"298 587 OFFCURVE",
"293 585 CURVE SMOOTH",
"287 582 OFFCURVE",
"281 585 OFFCURVE",
"279 590 CURVE SMOOTH",
"260 636 OFFCURVE",
"225 665 OFFCURVE",
"186 669 CURVE",
"186 355 LINE",
"259 298 OFFCURVE",
"318 251 OFFCURVE",
"318 154 CURVE SMOOTH"
);
},
{
closed = 1;
nodes = (
"165 668 LINE",
"138 666 OFFCURVE",
"112 654 OFFCURVE",
"94 635 CURVE SMOOTH",
"71 612 OFFCURVE",
"58 580 OFFCURVE",
"58 541 CURVE SMOOTH",
"58 457 OFFCURVE",
"102 421 OFFCURVE",
"165 372 CURVE"
);
},
{
closed = 1;
nodes = (
"297 237 OFFCURVE",
"250 278 OFFCURVE",
"186 329 CURVE",
"186 22 LINE",
"241 29 OFFCURVE",
"297 66 OFFCURVE",
"297 154 CURVE SMOOTH"
);
}
);
};
layerId = master01;
paths = (
{
closed = 1;
nodes = (
"184 773 OFFCURVE",
"180 777 OFFCURVE",
"173 777 CURVE SMOOTH",
"167 777 OFFCURVE",
"163 773 OFFCURVE",
"163 767 CURVE SMOOTH",
"163 -83 LINE SMOOTH",
"163 -89 OFFCURVE",
"167 -93 OFFCURVE",
"173 -93 CURVE SMOOTH",
"180 -93 OFFCURVE",
"184 -89 OFFCURVE",
"184 -83 CURVE SMOOTH",
"184 767 LINE SMOOTH"
);
},
{
closed = 1;
nodes = (
"285 641 OFFCURVE",
"244 675 OFFCURVE",
"181 675 CURVE SMOOTH",
"116 675 OFFCURVE",
"43 633 OFFCURVE",
"43 530 CURVE SMOOTH",
"43 441 OFFCURVE",
"97 404 OFFCURVE",
"163 352 CURVE SMOOTH",
"182 337 LINE SMOOTH",
"252 282 OFFCURVE",
"304 251 OFFCURVE",
"304 174 CURVE SMOOTH",
"304 76 OFFCURVE",
"233 41 OFFCURVE",
"173 41 CURVE SMOOTH",
"108 41 OFFCURVE",
"51 93 OFFCURVE",
"41 163 CURVE SMOOTH",
"40 168 OFFCURVE",
"37 172 OFFCURVE",
"30 172 CURVE SMOOTH",
"22 172 OFFCURVE",
"19 166 OFFCURVE",
"20 160 CURVE SMOOTH",
"33 80 OFFCURVE",
"97 20 OFFCURVE",
"173 20 CURVE SMOOTH",
"263 20 OFFCURVE",
"326 81 OFFCURVE",
"326 174 CURVE SMOOTH",
"326 261 OFFCURVE",
"266 298 OFFCURVE",
"192 356 CURVE SMOOTH",
"178 367 LINE SMOOTH",
"113 418 OFFCURVE",
"65 451 OFFCURVE",
"65 530 CURVE SMOOTH",
"65 611 OFFCURVE",
"119 654 OFFCURVE",
"182 654 CURVE SMOOTH",
"236 654 OFFCURVE",
"269 625 OFFCURVE",
"286 575 CURVE SMOOTH",
"288 569 OFFCURVE",
"292 567 OFFCURVE",
"296 567 CURVE SMOOTH",
"304 567 OFFCURVE",
"308 574 OFFCURVE",
"305 583 CURVE SMOOTH"
);
}
);
width = 356;
},
{
associatedMasterId = master01;
layerId = "D0DA130A-29AB-4767-BE4B-1FF813CE42D0";
name = "Aug 9 20, 13:57";
paths = (
{
closed = 1;
nodes = (
"335 108 OFFCURVE",
"321 70 OFFCURVE",
"293 43 CURVE SMOOTH",
"270 19 OFFCURVE",
"239 5 OFFCURVE",
"203 1 CURVE",
"203 -76 LINE SMOOTH",
"203 -82 OFFCURVE",
"198 -86 OFFCURVE",
"193 -86 CURVE SMOOTH",
"187 -86 OFFCURVE",
"182 -82 OFFCURVE",
"182 -76 CURVE SMOOTH",
"182 0 LINE",
"107 0 OFFCURVE",
"42 60 OFFCURVE",
"30 140 CURVE SMOOTH",
"29 145 OFFCURVE",
"33 151 OFFCURVE",
"39 152 CURVE",
"45 152 OFFCURVE",
"50 148 OFFCURVE",
"51 143 CURVE SMOOTH",
"61 73 OFFCURVE",
"117 21 OFFCURVE",
"182 21 CURVE",
"182 345 LINE",
"110 402 OFFCURVE",
"54 443 OFFCURVE",
"54 541 CURVE SMOOTH",
"54 633 OFFCURVE",
"117 684 OFFCURVE",
"182 689 CURVE",
"182 766 LINE SMOOTH",
"182 772 OFFCURVE",
"187 777 OFFCURVE",
"193 777 CURVE SMOOTH",
"198 777 OFFCURVE",
"203 772 OFFCURVE",
"203 766 CURVE SMOOTH",
"203 690 LINE",
"251 686 OFFCURVE",
"293 652 OFFCURVE",
"315 598 CURVE",
"318 593 OFFCURVE",
"315 587 OFFCURVE",
"310 585 CURVE SMOOTH",
"304 582 OFFCURVE",
"298 585 OFFCURVE",
"296 590 CURVE SMOOTH",
"277 636 OFFCURVE",
"242 665 OFFCURVE",
"203 669 CURVE",
"203 355 LINE",
"276 298 OFFCURVE",
"335 251 OFFCURVE",
"335 154 CURVE SMOOTH"
);
},
{
closed = 1;
nodes = (
"182 668 LINE",
"155 666 OFFCURVE",
"129 654 OFFCURVE",
"111 635 CURVE SMOOTH",
"88 612 OFFCURVE",
"75 580 OFFCURVE",
"75 541 CURVE SMOOTH",
"75 457 OFFCURVE",
"119 421 OFFCURVE",
"182 372 CURVE"
);
},
{
closed = 1;
nodes = (
"314 237 OFFCURVE",
"267 278 OFFCURVE",
"203 329 CURVE",
"203 22 LINE",
"258 29 OFFCURVE",
"314 66 OFFCURVE",
"314 154 CURVE SMOOTH"
);
}
);
width = 365;
}
);
leftKerningGroup = S;
leftMetricsKey = S;
rightKerningGroup = S;
rightMetricsKey = S;
unicode = 0024;
},
{
glyphname = percent;
lastChange = "2020-10-02 15:10:59 +0000";
layers = (
{
background = {
paths = (
{
closed = 1;
nodes = (
"365 683 LINE SMOOTH",
"367 688 OFFCURVE",
"373 691 OFFCURVE",
"378 689 CURVE SMOOTH",
"384 686 OFFCURVE",
"386 680 OFFCURVE",
"384 675 CURVE SMOOTH",
"105 7 LINE SMOOTH",
"103 3 OFFCURVE",
"101 0 OFFCURVE",
"95 0 CURVE SMOOTH",
"88 0 OFFCURVE",
"83 7 OFFCURVE",
"86 15 CURVE SMOOTH"
);
}
);
};
layerId = master01;
paths = (
{
closed = 1;
nodes = (
"365 683 LINE SMOOTH",
"367 688 OFFCURVE",
"373 691 OFFCURVE",
"378 689 CURVE SMOOTH",
"384 686 OFFCURVE",
"386 680 OFFCURVE",
"384 675 CURVE SMOOTH",
"105 7 LINE SMOOTH",
"103 3 OFFCURVE",
"101 0 OFFCURVE",
"95 0 CURVE SMOOTH",
"88 0 OFFCURVE",
"83 7 OFFCURVE",
"86 15 CURVE SMOOTH"
);
},
{
closed = 1;
nodes = (
"233 453 OFFCURVE",
"200 368 OFFCURVE",
"136 368 CURVE SMOOTH",
"73 368 OFFCURVE",
"40 449 OFFCURVE",
"40 532 CURVE SMOOTH",
"40 628 OFFCURVE",
"79 695 OFFCURVE",
"136 695 CURVE SMOOTH",
"199 695 OFFCURVE",
"233 614 OFFCURVE",
"233 532 CURVE SMOOTH"
);
},
{
closed = 1;
nodes = (
"211 598 OFFCURVE",
"186 674 OFFCURVE",
"136 674 CURVE SMOOTH",
"88 674 OFFCURVE",
"62 601 OFFCURVE",
"62 532 CURVE SMOOTH",
"62 466 OFFCURVE",
"87 389 OFFCURVE",
"136 389 CURVE SMOOTH",
"179 389 OFFCURVE",
"211 451 OFFCURVE",
"211 532 CURVE SMOOTH"
);
},
{
closed = 1;
nodes = (
"430 80 OFFCURVE",
"397 -5 OFFCURVE",
"333 -5 CURVE SMOOTH",
"270 -5 OFFCURVE",
"237 76 OFFCURVE",
"237 159 CURVE SMOOTH",
"237 255 OFFCURVE",
"276 322 OFFCURVE",
"333 322 CURVE SMOOTH",
"396 322 OFFCURVE",
"430 241 OFFCURVE",
"430 159 CURVE SMOOTH"
);
},
{
closed = 1;
nodes = (
"408 225 OFFCURVE",
"383 301 OFFCURVE",
"333 301 CURVE SMOOTH",
"285 301 OFFCURVE",
"259 228 OFFCURVE",
"259 159 CURVE SMOOTH",
"259 93 OFFCURVE",
"284 16 OFFCURVE",
"333 16 CURVE SMOOTH",
"376 16 OFFCURVE",
"408 78 OFFCURVE",
"408 159 CURVE SMOOTH"
);
}
);
width = 470;
},
{
associatedMasterId = master01;
layerId = "C6CA0630-990F-48CA-A4D2-A85094630A4D";
name = "Aug 9 20, 14:11";
paths = (
{
closed = 1;
nodes = (
"231 466 OFFCURVE",
"215 415 OFFCURVE",
"186 386 CURVE SMOOTH",
"171 371 OFFCURVE",
"154 363 OFFCURVE",
"135 363 CURVE SMOOTH",
"117 363 OFFCURVE",
"99 371 OFFCURVE",
"84 386 CURVE SMOOTH",
"56 414 OFFCURVE",
"40 465 OFFCURVE",
"40 527 CURVE SMOOTH",
"40 623 OFFCURVE",
"79 690 OFFCURVE",
"135 690 CURVE SMOOTH",
"154 690 OFFCURVE",
"171 682 OFFCURVE",
"186 667 CURVE SMOOTH",
"215 639 OFFCURVE",
"231 587 OFFCURVE",
"231 527 CURVE SMOOTH"
);
},
{
closed = 1;
nodes = (
"210 582 OFFCURVE",
"196 628 OFFCURVE",
"172 652 CURVE SMOOTH",
"160 663 OFFCURVE",
"148 669 OFFCURVE",
"135 669 CURVE SMOOTH",
"122 669 OFFCURVE",
"110 663 OFFCURVE",
"99 652 CURVE SMOOTH",
"75 628 OFFCURVE",
"61 582 OFFCURVE",
"61 527 CURVE SMOOTH",
"61 471 OFFCURVE",
"75 425 OFFCURVE",
"99 401 CURVE SMOOTH",
"110 390 OFFCURVE",
"122 384 OFFCURVE",
"135 384 CURVE SMOOTH",
"178 384 OFFCURVE",
"210 446 OFFCURVE",
"210 527 CURVE SMOOTH"
);
},
{
closed = 1;
nodes = (
"97 -9 LINE SMOOTH",
"95 -14 OFFCURVE",
"89 -17 OFFCURVE",
"84 -15 CURVE SMOOTH",
"78 -12 OFFCURVE",
"76 -6 OFFCURVE",
"78 -1 CURVE SMOOTH",
"370 698 LINE SMOOTH",
"372 704 OFFCURVE",
"378 706 OFFCURVE",
"383 704 CURVE SMOOTH",
"389 702 OFFCURVE",
"391 696 OFFCURVE",
"389 690 CURVE SMOOTH"
);
},
{
closed = 1;
nodes = (
"428 102 OFFCURVE",
"412 51 OFFCURVE",
"384 23 CURVE SMOOTH",
"369 8 OFFCURVE",
"351 0 OFFCURVE",
"332 0 CURVE SMOOTH",
"314 0 OFFCURVE",
"296 8 OFFCURVE",
"281 22 CURVE SMOOTH",
"253 51 OFFCURVE",
"237 102 OFFCURVE",
"237 163 CURVE SMOOTH",
"237 259 OFFCURVE",
"276 326 OFFCURVE",
"332 326 CURVE SMOOTH",
"351 326 OFFCURVE",
"369 318 OFFCURVE",
"384 303 CURVE SMOOTH",
"412 275 OFFCURVE",
"428 224 OFFCURVE",
"428 163 CURVE SMOOTH"
);
},
{
closed = 1;
nodes = (
"407 218 OFFCURVE",
"393 264 OFFCURVE",
"369 288 CURVE SMOOTH",
"358 300 OFFCURVE",
"345 305 OFFCURVE",
"332 305 CURVE SMOOTH",
"319 305 OFFCURVE",
"307 300 OFFCURVE",
"296 289 CURVE SMOOTH",
"272 264 OFFCURVE",
"258 219 OFFCURVE",
"258 163 CURVE SMOOTH",
"258 107 OFFCURVE",
"272 61 OFFCURVE",
"296 37 CURVE SMOOTH",
"307 26 OFFCURVE",
"319 21 OFFCURVE",
"332 21 CURVE SMOOTH",
"375 21 OFFCURVE",
"407 82 OFFCURVE",
"407 163 CURVE SMOOTH"
);
}
);
visible = 1;
width = 468;
}
);
leftKerningGroup = percent;
rightKerningGroup = percent;
rightMetricsKey = "=|";
unicode = 0025;
},
{
glyphname = ampersand;
lastChange = "2020-10-02 15:30:33 +0000";
layers = (
{
background = {
paths = (
{
closed = 1;
nodes = (
"490 5 OFFCURVE",
"485 0 OFFCURVE",
"479 0 CURVE SMOOTH",
"443 0 OFFCURVE",
"403 20 OFFCURVE",
"362 61 CURVE SMOOTH",
"345 78 OFFCURVE",
"328 99 OFFCURVE",
"311 122 CURVE",
"284 56 OFFCURVE",
"246 0 OFFCURVE",
"175 0 CURVE SMOOTH",
"137 0 OFFCURVE",
"104 12 OFFCURVE",
"81 35 CURVE SMOOTH",
"55 62 OFFCURVE",
"41 100 OFFCURVE",
"41 147 CURVE SMOOTH",
"41 252 OFFCURVE",
"114 319 OFFCURVE",
"184 385 CURVE SMOOTH",
"187 387 LINE",
"172 444 OFFCURVE",
"162 501 OFFCURVE",
"162 557 CURVE SMOOTH",
"162 597 OFFCURVE",
"171 631 OFFCURVE",
"189 655 CURVE SMOOTH",
"205 677 OFFCURVE",
"227 690 OFFCURVE",
"250 690 CURVE SMOOTH",
"288 690 OFFCURVE",
"329 655 OFFCURVE",
"329 578 CURVE SMOOTH",
"329 495 OFFCURVE",
"271 437 OFFCURVE",
"210 381 CURVE",
"233 303 OFFCURVE",
"267 228 OFFCURVE",
"306 168 CURVE",
"310 181 OFFCURVE",
"315 195 OFFCURVE",
"319 208 CURVE SMOOTH",
"344 284 OFFCURVE",
"366 349 OFFCURVE",
"416 349 CURVE SMOOTH",
"431 349 OFFCURVE",
"444 344 OFFCURVE",
"454 334 CURVE SMOOTH",
"465 323 OFFCURVE",
"470 310 OFFCURVE",
"470 295 CURVE SMOOTH",
"470 290 OFFCURVE",
"466 285 OFFCURVE",
"460 285 CURVE SMOOTH",
"454 285 OFFCURVE",
"449 290 OFFCURVE",
"449 295 CURVE SMOOTH",
"449 304 OFFCURVE",
"446 313 OFFCURVE",
"440 319 CURVE SMOOTH",
"433 325 OFFCURVE",
"425 328 OFFCURVE",
"416 328 CURVE SMOOTH",
"381 328 OFFCURVE",
"361 267 OFFCURVE",
"339 201 CURVE SMOOTH",
"333 183 OFFCURVE",
"327 164 OFFCURVE",
"320 146 CURVE",
"339 119 OFFCURVE",
"358 95 OFFCURVE",
"377 76 CURVE SMOOTH",
"414 39 OFFCURVE",
"449 21 OFFCURVE",
"479 21 CURVE SMOOTH",
"485 21 OFFCURVE",
"490 16 OFFCURVE",
"490 11 CURVE SMOOTH"
);
},
{
closed = 1;
nodes = (
"308 619 OFFCURVE",
"295 650 OFFCURVE",
"272 663 CURVE SMOOTH",
"258 671 OFFCURVE",
"241 671 OFFCURVE",
"227 662 CURVE",
"200 647 OFFCURVE",
"183 607 OFFCURVE",
"183 557 CURVE SMOOTH",
"183 506 OFFCURVE",
"191 455 OFFCURVE",
"204 404 CURVE",
"260 456 OFFCURVE",
"308 507 OFFCURVE",
"308 578 CURVE SMOOTH"
);
},
{
closed = 1;
nodes = (
"255 205 OFFCURVE",
"218 283 OFFCURVE",
"193 365 CURVE",
"128 304 OFFCURVE",
"62 241 OFFCURVE",
"62 147 CURVE SMOOTH",
"62 106 OFFCURVE",
"74 72 OFFCURVE",
"96 50 CURVE SMOOTH",
"116 31 OFFCURVE",
"142 21 OFFCURVE",
"175 21 CURVE SMOOTH",
"237 21 OFFCURVE",
"271 77 OFFCURVE",
"297 143 CURVE"
);
}
);
};
layerId = master01;
paths = (
{
closed = 1;
nodes = (
"183 362 OFFCURVE",
"183 557 CURVE SMOOTH",
"183 620 OFFCURVE",
"207 674 OFFCURVE",
"252 674 CURVE SMOOTH",
"288 674 OFFCURVE",
"308 638 OFFCURVE",
"308 586 CURVE SMOOTH",
"308 508 OFFCURVE",
"248 443 OFFCURVE",
"184 385 CURVE SMOOTH",
"113 321 OFFCURVE",
"40 252 OFFCURVE",
"40 147 CURVE SMOOTH",
"40 57 OFFCURVE",
"88 -5 OFFCURVE",
"162 -5 CURVE SMOOTH",
"253 -5 OFFCURVE",
"302 77 OFFCURVE",
"339 201 CURVE SMOOTH",
"359 267 OFFCURVE",
"380 328 OFFCURVE",
"417 328 CURVE SMOOTH",
"433 328 OFFCURVE",
"449 317 OFFCURVE",
"449 296 CURVE SMOOTH",
"449 290 OFFCURVE",
"453 285 OFFCURVE",
"460 285 CURVE SMOOTH",
"467 285 OFFCURVE",
"470 290 OFFCURVE",
"470 295 CURVE SMOOTH",
"470 326 OFFCURVE",
"447 349 OFFCURVE",
"417 349 CURVE SMOOTH",
"366 349 OFFCURVE",
"342 284 OFFCURVE",
"319 208 CURVE SMOOTH",
"283 88 OFFCURVE",
"240 16 OFFCURVE",
"162 16 CURVE SMOOTH",
"99 16 OFFCURVE",
"62 71 OFFCURVE",
"62 147 CURVE SMOOTH",
"62 244 OFFCURVE",
"131 309 OFFCURVE",
"200 372 CURVE SMOOTH",
"265 431 OFFCURVE",
"330 500 OFFCURVE",
"330 586 CURVE SMOOTH",
"330 667 OFFCURVE",
"289 695 OFFCURVE",
"252 695 CURVE SMOOTH",
"195 695 OFFCURVE",
"161 637 OFFCURVE",
"161 557 CURVE SMOOTH",
"161 352 OFFCURVE",
"321 0 OFFCURVE",
"479 0 CURVE SMOOTH",
"485 0 OFFCURVE",
"490 4 OFFCURVE",
"490 11 CURVE SMOOTH",
"490 17 OFFCURVE",
"485 21 OFFCURVE",
"479 21 CURVE SMOOTH",
"335 21 OFFCURVE"
);
}
);
width = 520;
},
{
associatedMasterId = master01;
layerId = "877A695B-B760-47BD-BA7E-652F263D5C95";
name = "Aug 9 20, 14:14";
paths = (
{
closed = 1;
nodes = (
"489 5 OFFCURVE",
"484 0 OFFCURVE",
"478 0 CURVE SMOOTH",
"442 0 OFFCURVE",
"402 20 OFFCURVE",
"361 61 CURVE SMOOTH",
"344 78 OFFCURVE",
"327 99 OFFCURVE",
"310 122 CURVE",
"283 56 OFFCURVE",
"245 0 OFFCURVE",
"174 0 CURVE SMOOTH",
"136 0 OFFCURVE",
"103 12 OFFCURVE",
"80 35 CURVE SMOOTH",
"54 62 OFFCURVE",
"40 100 OFFCURVE",
"40 147 CURVE SMOOTH",
"40 252 OFFCURVE",
"113 319 OFFCURVE",
"183 385 CURVE SMOOTH",
"186 387 LINE",
"171 444 OFFCURVE",
"161 501 OFFCURVE",
"161 557 CURVE SMOOTH",
"161 597 OFFCURVE",
"170 631 OFFCURVE",
"188 655 CURVE SMOOTH",
"204 677 OFFCURVE",
"226 690 OFFCURVE",
"249 690 CURVE SMOOTH",
"287 690 OFFCURVE",
"328 655 OFFCURVE",
"328 578 CURVE SMOOTH",
"328 495 OFFCURVE",
"270 437 OFFCURVE",
"209 381 CURVE",
"232 303 OFFCURVE",
"266 228 OFFCURVE",
"305 168 CURVE",
"309 181 OFFCURVE",
"314 195 OFFCURVE",
"318 208 CURVE SMOOTH",
"343 284 OFFCURVE",
"365 349 OFFCURVE",
"415 349 CURVE SMOOTH",
"430 349 OFFCURVE",
"443 344 OFFCURVE",
"453 334 CURVE SMOOTH",
"464 323 OFFCURVE",
"469 310 OFFCURVE",
"469 295 CURVE SMOOTH",
"469 290 OFFCURVE",
"465 285 OFFCURVE",
"459 285 CURVE SMOOTH",
"453 285 OFFCURVE",
"448 290 OFFCURVE",
"448 295 CURVE SMOOTH",
"448 304 OFFCURVE",
"445 313 OFFCURVE",
"439 319 CURVE SMOOTH",
"432 325 OFFCURVE",
"424 328 OFFCURVE",
"415 328 CURVE SMOOTH",
"380 328 OFFCURVE",
"360 267 OFFCURVE",
"338 201 CURVE SMOOTH",
"332 183 OFFCURVE",
"326 164 OFFCURVE",
"319 146 CURVE",
"338 119 OFFCURVE",
"357 95 OFFCURVE",
"376 76 CURVE SMOOTH",
"413 39 OFFCURVE",
"448 21 OFFCURVE",
"478 21 CURVE SMOOTH",
"484 21 OFFCURVE",
"489 16 OFFCURVE",
"489 11 CURVE SMOOTH"
);
},
{
closed = 1;
nodes = (
"307 619 OFFCURVE",
"294 650 OFFCURVE",
"271 663 CURVE SMOOTH",
"257 671 OFFCURVE",
"240 671 OFFCURVE",
"226 662 CURVE",
"199 647 OFFCURVE",
"182 607 OFFCURVE",
"182 557 CURVE SMOOTH",
"182 506 OFFCURVE",
"190 455 OFFCURVE",
"203 404 CURVE",
"259 456 OFFCURVE",
"307 507 OFFCURVE",
"307 578 CURVE SMOOTH"
);
},
{
closed = 1;
nodes = (
"254 205 OFFCURVE",
"217 283 OFFCURVE",
"192 365 CURVE",
"127 304 OFFCURVE",
"61 241 OFFCURVE",
"61 147 CURVE SMOOTH",
"61 106 OFFCURVE",
"73 72 OFFCURVE",
"95 50 CURVE SMOOTH",
"115 31 OFFCURVE",
"141 21 OFFCURVE",
"174 21 CURVE SMOOTH",
"236 21 OFFCURVE",
"270 77 OFFCURVE",
"296 143 CURVE"
);
}
);
width = 529;
}
);
leftKerningGroup = ampersand;
rightKerningGroup = ampersand;
unicode = 0026;
},
{
glyphname = quotesingle;
lastChange = "2020-10-02 15:10:59 +0000";
layers = (
{
layerId = master01;
paths = (
{
closed = 1;
nodes = (
"71 685 OFFCURVE",
"67 690 OFFCURVE",
"60 690 CURVE SMOOTH",
"54 690 OFFCURVE",
"50 685 OFFCURVE",
"50 679 CURVE SMOOTH",
"50 512 LINE SMOOTH",
"50 506 OFFCURVE",
"54 501 OFFCURVE",
"60 501 CURVE SMOOTH",
"67 501 OFFCURVE",
"71 506 OFFCURVE",
"71 512 CURVE SMOOTH",
"71 679 LINE SMOOTH"
);
}
);
width = 121;
}
);
leftKerningGroup = quoteleft;
rightKerningGroup = quoteleft;
rightMetricsKey = "=|";
unicode = 0027;
},
{
glyphname = parenleft;
lastChange = "2020-10-02 15:10:59 +0000";
layers = (
{
background = {
paths = (
{
closed = 1;
nodes = (
"91 204 OFFCURVE",
"133 60 OFFCURVE",
"201 -48 CURVE SMOOTH",
"205 -54 OFFCURVE",
"201 -64 OFFCURVE",
"192 -64 CURVE SMOOTH",
"188 -64 OFFCURVE",
"185 -62 OFFCURVE",
"183 -59 CURVE SMOOTH",
"113 52 OFFCURVE",
"70 199 OFFCURVE",
"70 342 CURVE SMOOTH",
"70 485 OFFCURVE",
"113 632 OFFCURVE",
"183 743 CURVE SMOOTH",
"185 746 OFFCURVE",
"188 748 OFFCURVE",
"192 748 CURVE SMOOTH",
"201 748 OFFCURVE",
"205 738 OFFCURVE",
"201 732 CURVE SMOOTH",
"133 624 OFFCURVE",
"91 480 OFFCURVE",
"91 342 CURVE SMOOTH"
);
}
);
};
layerId = master01;
paths = (
{
closed = 1;
nodes = (
"91 480 OFFCURVE",
"133 624 OFFCURVE",
"201 732 CURVE SMOOTH",
"205 738 OFFCURVE",
"201 748 OFFCURVE",
"192 748 CURVE SMOOTH",
"188 748 OFFCURVE",
"185 746 OFFCURVE",
"183 743 CURVE SMOOTH",
"113 632 OFFCURVE",
"70 485 OFFCURVE",
"70 342 CURVE SMOOTH",
"70 199 OFFCURVE",
"113 52 OFFCURVE",
"183 -59 CURVE SMOOTH",
"185 -62 OFFCURVE",
"188 -64 OFFCURVE",
"192 -64 CURVE SMOOTH",
"201 -64 OFFCURVE",
"205 -54 OFFCURVE",
"201 -48 CURVE SMOOTH",
"133 60 OFFCURVE",
"91 204 OFFCURVE",
"91 342 CURVE SMOOTH"
);
}
);
width = 233;
},
{
associatedMasterId = master01;
layerId = "B2663E23-299C-4115-BC75-4B56EF81C188";
name = "Aug 9 20, 14:03";
paths = (
{
closed = 1;
nodes = (
"112 564 OFFCURVE",
"71 414 OFFCURVE",
"71 271 CURVE SMOOTH",
"71 129 OFFCURVE",
"112 -21 OFFCURVE",
"181 -131 CURVE SMOOTH",
"184 -136 OFFCURVE",
"183 -142 OFFCURVE",
"178 -145 CURVE SMOOTH",
"173 -148 OFFCURVE",
"166 -147 OFFCURVE",
"163 -142 CURVE SMOOTH",
"92 -29 OFFCURVE",
"50 125 OFFCURVE",
"50 271 CURVE SMOOTH",
"50 418 OFFCURVE",
"92 572 OFFCURVE",
"163 685 CURVE SMOOTH",
"166 690 OFFCURVE",
"173 691 OFFCURVE",
"178 688 CURVE SMOOTH",
"183 685 OFFCURVE",
"184 678 OFFCURVE",
"181 674 CURVE SMOOTH"
);
}
);
width = 221;
}
);
leftKerningGroup = parenleft;
rightKerningGroup = parenleft;
unicode = 0028;
},
{
glyphname = parenright;
lastChange = "2020-10-02 15:10:59 +0000";
layers = (
{
components = (
{
name = parenleft;
transform = "{-1, 0, 0, -1, 233, 684}";
}
);
layerId = master01;
width = 233;
},
{
associatedMasterId = master01;
layerId = "7E93B228-A04C-4DDF-851A-41C17A08E240";
name = "Aug 9 20, 14:05";
paths = (
{
closed = 1;
nodes = (
"171 125 OFFCURVE",
"129 -29 OFFCURVE",
"58 -142 CURVE SMOOTH",
"55 -147 OFFCURVE",
"48 -148 OFFCURVE",
"43 -145 CURVE SMOOTH",
"38 -142 OFFCURVE",
"37 -136 OFFCURVE",
"40 -131 CURVE SMOOTH",
"109 -21 OFFCURVE",
"150 129 OFFCURVE",
"150 271 CURVE SMOOTH",
"150 414 OFFCURVE",
"109 564 OFFCURVE",
"40 674 CURVE SMOOTH",
"37 678 OFFCURVE",
"38 685 OFFCURVE",
"43 688 CURVE SMOOTH",
"48 691 OFFCURVE",
"55 690 OFFCURVE",
"58 685 CURVE SMOOTH",
"129 572 OFFCURVE",
"171 418 OFFCURVE",
"171 271 CURVE SMOOTH"
);
}
);
width = 221;
}
);
leftKerningGroup = parenright;
leftMetricsKey = "=|parenleft";
rightKerningGroup = parenright;
rightMetricsKey = "=|parenleft";
unicode = 0029;
},
{
glyphname = asterisk;
lastChange = "2020-10-02 15:10:59 +0000";
layers = (
{
background = {
paths = (
{
closed = 1;
nodes = (
"146 572 LINE SMOOTH",
"146 566 OFFCURVE",
"150 561 OFFCURVE",
"157 561 CURVE SMOOTH",
"163 561 OFFCURVE",
"167 566 OFFCURVE",
"167 572 CURVE SMOOTH",
"167 679 LINE SMOOTH",
"167 685 OFFCURVE",
"163 690 OFFCURVE",
"157 690 CURVE SMOOTH",
"150 690 OFFCURVE",
"146 685 OFFCURVE",
"146 679 CURVE SMOOTH"
);
},
{
closed = 1;
nodes = (
"150 558 LINE SMOOTH",
"156 556 OFFCURVE",
"162 558 OFFCURVE",
"164 565 CURVE SMOOTH",
"166 570 OFFCURVE",
"162 575 OFFCURVE",
"156 577 CURVE SMOOTH",
"55 611 LINE SMOOTH",
"47 614 OFFCURVE",
"40 610 OFFCURVE",
"40 602 CURVE SMOOTH",
"40 596 OFFCURVE",
"44 593 OFFCURVE",
"49 591 CURVE SMOOTH"
);
},
{
closed = 1;
nodes = (
"269 593 OFFCURVE",
"273 596 OFFCURVE",
"273 602 CURVE SMOOTH",
"273 610 OFFCURVE",
"266 614 OFFCURVE",
"258 611 CURVE SMOOTH",
"157 577 LINE SMOOTH",
"151 575 OFFCURVE",
"147 570 OFFCURVE",
"149 565 CURVE SMOOTH",
"151 558 OFFCURVE",
"157 556 OFFCURVE",
"163 558 CURVE SMOOTH",
"264 591 LINE SMOOTH"
);
},
{
closed = 1;
nodes = (
"163 558 LINE SMOOTH",
"167 563 OFFCURVE",
"167 569 OFFCURVE",
"161 573 CURVE SMOOTH",
"156 577 OFFCURVE",
"150 575 OFFCURVE",
"146 569 CURVE SMOOTH",
"83 484 LINE SMOOTH",
"76 476 OFFCURVE",
"82 466 OFFCURVE",
"90 466 CURVE SMOOTH",
"94 466 OFFCURVE",
"98 468 OFFCURVE",
"101 472 CURVE SMOOTH"
);
},
{
closed = 1;
nodes = (
"163 558 LINE SMOOTH",
"167 563 OFFCURVE",
"167 569 OFFCURVE",
"161 573 CURVE SMOOTH",
"156 577 OFFCURVE",
"150 575 OFFCURVE",
"146 569 CURVE SMOOTH",
"83 484 LINE SMOOTH",
"76 476 OFFCURVE",
"82 466 OFFCURVE",
"90 466 CURVE SMOOTH",
"94 466 OFFCURVE",
"98 468 OFFCURVE",
"101 472 CURVE SMOOTH"
);
},
{
closed = 1;
nodes = (
"163 558 LINE SMOOTH",
"167 563 OFFCURVE",
"167 569 OFFCURVE",
"161 573 CURVE SMOOTH",
"156 577 OFFCURVE",
"150 575 OFFCURVE",
"146 569 CURVE SMOOTH",
"83 484 LINE SMOOTH",
"76 476 OFFCURVE",
"82 466 OFFCURVE",
"90 466 CURVE SMOOTH",
"94 466 OFFCURVE",
"98 468 OFFCURVE",
"101 472 CURVE SMOOTH"
);
}
);
};
layerId = master01;
paths = (
{
closed = 1;
nodes = (
"40 596 OFFCURVE",
"44 593 OFFCURVE",
"49 591 CURVE SMOOTH",
"140 561 LINE",
"83 484 LINE SMOOTH",
"76 476 OFFCURVE",
"82 466 OFFCURVE",
"90 466 CURVE SMOOTH",
"94 466 OFFCURVE",
"98 468 OFFCURVE",
"101 472 CURVE SMOOTH",
"157 549 LINE",
"212 472 LINE SMOOTH",
"215 468 OFFCURVE",
"219 466 OFFCURVE",
"223 466 CURVE SMOOTH",
"231 466 OFFCURVE",
"237 476 OFFCURVE",
"230 484 CURVE SMOOTH",
"173 561 LINE",
"264 591 LINE SMOOTH",
"269 593 OFFCURVE",
"273 596 OFFCURVE",
"273 602 CURVE SMOOTH",
"273 610 OFFCURVE",
"266 614 OFFCURVE",
"258 611 CURVE SMOOTH",
"167 580 LINE",
"167 679 LINE SMOOTH",
"167 685 OFFCURVE",
"163 690 OFFCURVE",
"156 690 CURVE SMOOTH",
"150 690 OFFCURVE",
"146 685 OFFCURVE",
"146 679 CURVE SMOOTH",
"146 580 LINE",
"55 611 LINE SMOOTH",
"47 614 OFFCURVE",
"40 610 OFFCURVE",
"40 602 CURVE SMOOTH"
);
}
);
width = 313;
},
{
associatedMasterId = master01;
background = {
paths = (
{
closed = 1;
nodes = (
"275 599 OFFCURVE",
"272 594 OFFCURVE",
"266 592 CURVE SMOOTH",
"174 562 LINE",
"231 483 LINE SMOOTH",
"234 478 OFFCURVE",
"233 471 OFFCURVE",
"229 468 CURVE SMOOTH",
"224 464 OFFCURVE",
"217 465 OFFCURVE",
"214 470 CURVE SMOOTH",
"157 549 LINE",
"99 470 LINE SMOOTH",
"96 466 OFFCURVE",
"89 464 OFFCURVE",
"85 468 CURVE SMOOTH",
"80 471 OFFCURVE",
"79 478 OFFCURVE",
"82 483 CURVE SMOOTH",
"140 562 LINE",
"47 592 LINE SMOOTH",
"41 594 OFFCURVE",
"38 599 OFFCURVE",
"40 605 CURVE SMOOTH",
"42 610 OFFCURVE",
"48 613 OFFCURVE",
"53 612 CURVE SMOOTH",
"146 581 LINE",
"146 679 LINE SMOOTH",
"146 685 OFFCURVE",
"151 690 OFFCURVE",
"157 690 CURVE SMOOTH",
"162 690 OFFCURVE",
"167 685 OFFCURVE",
"167 679 CURVE SMOOTH",
"167 581 LINE",
"260 612 LINE SMOOTH",
"265 613 OFFCURVE",
"271 610 OFFCURVE",
"273 605 CURVE SMOOTH"
);
}
);
};
layerId = "D5A1F6E3-1AE5-4A76-9DB3-09C42DFE7012";
name = "Aug 9 20, 14:28";
paths = (
{
closed = 1;
nodes = (
"275 599 OFFCURVE",
"272 594 OFFCURVE",
"266 592 CURVE SMOOTH",
"174 562 LINE",
"231 483 LINE SMOOTH",
"234 478 OFFCURVE",
"233 471 OFFCURVE",
"229 468 CURVE SMOOTH",
"224 464 OFFCURVE",
"217 465 OFFCURVE",
"214 470 CURVE SMOOTH",
"157 549 LINE",
"99 470 LINE SMOOTH",
"96 466 OFFCURVE",
"89 464 OFFCURVE",
"85 468 CURVE SMOOTH",
"80 471 OFFCURVE",
"79 478 OFFCURVE",
"82 483 CURVE SMOOTH",
"140 562 LINE",
"47 592 LINE SMOOTH",
"41 594 OFFCURVE",
"38 599 OFFCURVE",
"40 605 CURVE SMOOTH",
"42 610 OFFCURVE",
"48 613 OFFCURVE",
"53 612 CURVE SMOOTH",
"146 581 LINE",
"146 679 LINE SMOOTH",
"146 685 OFFCURVE",
"151 690 OFFCURVE",
"157 690 CURVE SMOOTH",
"162 690 OFFCURVE",
"167 685 OFFCURVE",
"167 679 CURVE SMOOTH",
"167 581 LINE",
"260 612 LINE SMOOTH",
"265 613 OFFCURVE",
"271 610 OFFCURVE",
"273 605 CURVE SMOOTH"
);
}
);
visible = 1;
width = 313;
}
);
leftKerningGroup = quoteleft;
rightKerningGroup = quoteleft;
rightMetricsKey = "=|";
unicode = 002A;
},
{
glyphname = plus;
lastChange = "2020-10-02 15:10:59 +0000";
layers = (
{
background = {
paths = (
{
closed = 1;
nodes = (
"527 233 OFFCURVE",
"522 228 OFFCURVE",
"516 228 CURVE SMOOTH",
"299 228 LINE",
"299 11 LINE SMOOTH",
"299 6 OFFCURVE",
"294 1 OFFCURVE",
"289 1 CURVE SMOOTH",
"283 1 OFFCURVE",
"278 6 OFFCURVE",
"278 11 CURVE SMOOTH",
"278 228 LINE",
"60 228 LINE SMOOTH",
"55 228 OFFCURVE",
"50 233 OFFCURVE",
"50 239 CURVE SMOOTH",
"50 245 OFFCURVE",
"55 249 OFFCURVE",
"60 249 CURVE SMOOTH",
"278 249 LINE",
"278 467 LINE SMOOTH",
"278 473 OFFCURVE",
"283 478 OFFCURVE",
"289 478 CURVE SMOOTH",
"294 478 OFFCURVE",
"299 473 OFFCURVE",
"299 467 CURVE SMOOTH",
"299 249 LINE",
"516 249 LINE SMOOTH",
"522 249 OFFCURVE",
"527 245 OFFCURVE",
"527 239 CURVE SMOOTH"
);
}
);
};
layerId = master01;
paths = (
{
closed = 1;
nodes = (
"299 473 OFFCURVE",
"295 477 OFFCURVE",
"288 477 CURVE SMOOTH",
"282 477 OFFCURVE",
"278 473 OFFCURVE",
"278 467 CURVE SMOOTH",
"278 10 LINE SMOOTH",
"278 4 OFFCURVE",
"282 0 OFFCURVE",
"288 0 CURVE SMOOTH",
"295 0 OFFCURVE",
"299 4 OFFCURVE",
"299 10 CURVE SMOOTH",
"299 467 LINE SMOOTH"
);
},
{
closed = 1;
nodes = (
"523 228 OFFCURVE",
"527 232 OFFCURVE",
"527 239 CURVE SMOOTH",
"527 245 OFFCURVE",
"523 249 OFFCURVE",
"517 249 CURVE SMOOTH",
"60 249 LINE SMOOTH",
"54 249 OFFCURVE",
"50 245 OFFCURVE",
"50 239 CURVE SMOOTH",
"50 232 OFFCURVE",
"54 228 OFFCURVE",
"60 228 CURVE SMOOTH",
"517 228 LINE SMOOTH"
);
}
);
width = 577;
},
{
associatedMasterId = master01;
layerId = "C03DC7AF-9960-461E-9E9A-10D1CAA13355";
name = "Aug 9 20, 14:31";
paths = (
{
closed = 1;
nodes = (
"517 233 OFFCURVE",
"512 228 OFFCURVE",
"506 228 CURVE SMOOTH",
"289 228 LINE",
"289 11 LINE SMOOTH",
"289 6 OFFCURVE",
"284 1 OFFCURVE",
"279 1 CURVE SMOOTH",
"273 1 OFFCURVE",
"268 6 OFFCURVE",
"268 11 CURVE SMOOTH",
"268 228 LINE",
"50 228 LINE SMOOTH",
"45 228 OFFCURVE",
"40 233 OFFCURVE",
"40 239 CURVE SMOOTH",
"40 245 OFFCURVE",
"45 249 OFFCURVE",
"50 249 CURVE SMOOTH",
"268 249 LINE",
"268 467 LINE SMOOTH",
"268 473 OFFCURVE",
"273 478 OFFCURVE",
"279 478 CURVE SMOOTH",
"284 478 OFFCURVE",
"289 473 OFFCURVE",
"289 467 CURVE SMOOTH",
"289 249 LINE",
"506 249 LINE SMOOTH",
"512 249 OFFCURVE",
"517 245 OFFCURVE",
"517 239 CURVE SMOOTH"
);
}
);
width = 557;
}
);
leftKerningGroup = hyphen;
rightKerningGroup = hyphen;
rightMetricsKey = "=|";
unicode = 002B;
},
{
glyphname = comma;
lastChange = "2020-10-02 15:10:59 +0000";
layers = (
{
components = (
{
name = quoteleft;
transform = "{-1, 0, 0, -1, 135, 604}";
}
);
layerId = master01;
width = 145;
},
{
associatedMasterId = master01;
layerId = "61AD8EF1-2D8D-467D-976F-B43708B44399";
name = "Aug 9 20, 14:32";
paths = (
{
closed = 1;
nodes = (
"102 -47 OFFCURVE",
"86 -74 OFFCURVE",
"53 -86 CURVE SMOOTH",
"48 -88 OFFCURVE",
"42 -85 OFFCURVE",
"40 -80 CURVE SMOOTH",
"38 -75 OFFCURVE",
"41 -69 OFFCURVE",
"46 -67 CURVE SMOOTH",
"70 -58 OFFCURVE",
"82 -38 OFFCURVE",
"82 -6 CURVE SMOOTH",
"82 91 LINE SMOOTH",
"82 97 OFFCURVE",
"86 102 OFFCURVE",
"92 102 CURVE SMOOTH",
"98 102 OFFCURVE",
"102 97 OFFCURVE",
"102 91 CURVE SMOOTH",
"102 -6 LINE SMOOTH"
);
}
);
width = 183;
}
);
leftKerningGroup = period;
rightKerningGroup = period;
unicode = 002C;
},
{
glyphname = hyphen;
lastChange = "2020-10-02 15:10:59 +0000";
layers = (
{
layerId = master01;
paths = (
{
closed = 1;
nodes = (
"246 297 OFFCURVE",
"242 300 OFFCURVE",
"236 300 CURVE SMOOTH",
"50 300 LINE SMOOTH",
"45 300 OFFCURVE",
"40 297 OFFCURVE",
"40 290 CURVE SMOOTH",
"40 283 OFFCURVE",
"45 279 OFFCURVE",
"50 279 CURVE SMOOTH",
"236 279 LINE SMOOTH",
"242 279 OFFCURVE",
"246 283 OFFCURVE",
"246 290 CURVE SMOOTH"
);
}
);
width = 286;
}
);
leftKerningGroup = hyphen;
rightKerningGroup = hyphen;
rightMetricsKey = "=|";
unicode = 002D;
},
{
glyphname = period;
lastChange = "2020-10-02 15:10:59 +0000";
layers = (
{
background = {
paths = (
{
closed = 1;
nodes = (
"101 5 OFFCURVE",
"96 0 OFFCURVE",
"90 0 CURVE SMOOTH",
"85 0 OFFCURVE",
"80 5 OFFCURVE",
"80 10 CURVE SMOOTH",
"80 91 LINE SMOOTH",
"80 97 OFFCURVE",
"85 101 OFFCURVE",
"90 101 CURVE SMOOTH",
"96 101 OFFCURVE",
"101 97 OFFCURVE",
"101 91 CURVE SMOOTH",
"101 10 LINE SMOOTH"
);
}
);
};
layerId = master01;
paths = (
{
closed = 1;
nodes = (
"101 5 OFFCURVE",
"97 0 OFFCURVE",
"90 0 CURVE SMOOTH",
"84 0 OFFCURVE",
"80 5 OFFCURVE",
"80 10 CURVE SMOOTH",
"80 91 LINE SMOOTH",
"80 97 OFFCURVE",
"84 101 OFFCURVE",
"90 101 CURVE SMOOTH",
"97 101 OFFCURVE",
"101 97 OFFCURVE",
"101 91 CURVE SMOOTH",
"101 10 LINE SMOOTH"
);
}
);
width = 181;
},
{
associatedMasterId = master01;
layerId = "B5ADC76F-9359-48D4-9493-DFD89DB7A3DC";
name = "Aug 9 20, 14:35";
paths = (
{
closed = 1;
nodes = (
"101 5 OFFCURVE",
"96 0 OFFCURVE",
"90 0 CURVE SMOOTH",
"85 0 OFFCURVE",
"80 5 OFFCURVE",
"80 10 CURVE SMOOTH",
"80 91 LINE SMOOTH",
"80 97 OFFCURVE",
"85 101 OFFCURVE",
"90 101 CURVE SMOOTH",
"96 101 OFFCURVE",
"101 97 OFFCURVE",
"101 91 CURVE SMOOTH",
"101 10 LINE SMOOTH"
);
}
);
width = 181;
}
);
leftKerningGroup = period;
rightKerningGroup = period;
rightMetricsKey = "=|";
unicode = 002E;
},
{
glyphname = slash;
lastChange = "2020-10-10 10:41:28 +0000";
layers = (
{
background = {
paths = (
{
closed = 1;
nodes = (
"41 -8 LINE SMOOTH",
"39 -14 OFFCURVE",
"33 -17 OFFCURVE",
"28 -15 CURVE SMOOTH",
"22 -13 OFFCURVE",
"19 -7 OFFCURVE",
"21 -2 CURVE SMOOTH",
"252 698 LINE SMOOTH",
"254 703 OFFCURVE",
"260 706 OFFCURVE",
"265 704 CURVE SMOOTH",
"271 703 OFFCURVE",
"274 697 OFFCURVE",
"272 691 CURVE SMOOTH"
);
}
);
};
layerId = master01;
paths = (
{
closed = 1;
nodes = (
"6 -50 LINE SMOOTH",
"3 -59 OFFCURVE",
"9 -64 OFFCURVE",
"15 -64 CURVE SMOOTH",
"20 -64 OFFCURVE",
"24 -62 OFFCURVE",
"26 -56 CURVE SMOOTH",
"286 734 LINE SMOOTH",
"289 743 OFFCURVE",
"283 748 OFFCURVE",
"277 748 CURVE SMOOTH",
"272 748 OFFCURVE",
"268 746 OFFCURVE",
"266 740 CURVE SMOOTH"
);
}
);
width = 292;
},
{
associatedMasterId = master01;
layerId = "63B8C109-395C-41F8-888B-9D3B2386103E";
name = "Aug 9 20, 14:35";
paths = (
{
closed = 1;
nodes = (
"60 -8 LINE SMOOTH",
"58 -14 OFFCURVE",
"52 -17 OFFCURVE",
"47 -15 CURVE SMOOTH",
"41 -13 OFFCURVE",
"38 -7 OFFCURVE",
"40 -2 CURVE SMOOTH",
"271 698 LINE SMOOTH",
"273 703 OFFCURVE",
"279 706 OFFCURVE",
"284 704 CURVE SMOOTH",
"290 703 OFFCURVE",
"293 697 OFFCURVE",
"291 691 CURVE SMOOTH"
);
}
);
width = 331;
}
);
leftKerningGroup = slash;
rightKerningGroup = slash;
rightMetricsKey = "=|";
unicode = 002F;
},
{
glyphname = zero;
lastChange = "2020-10-10 10:48:10 +0000";
layers = (
{
background = {
paths = (
{
closed = 1;
nodes = (
"337 187 OFFCURVE",
"309 80 OFFCURVE",
"259 30 CURVE SMOOTH",
"238 10 OFFCURVE",
"215 -1 OFFCURVE",
"189 -1 CURVE SMOOTH",
"163 -1 OFFCURVE",
"139 10 OFFCURVE",
"119 30 CURVE SMOOTH",
"69 80 OFFCURVE",
"41 187 OFFCURVE",
"41 338 CURVE SMOOTH",
"41 554 OFFCURVE",
"96 678 OFFCURVE",
"189 678 CURVE SMOOTH",
"215 678 OFFCURVE",
"238 667 OFFCURVE",
"259 647 CURVE SMOOTH",
"309 597 OFFCURVE",
"337 490 OFFCURVE",
"337 338 CURVE SMOOTH"
);
},
{
closed = 1;
nodes = (
"316 484 OFFCURVE",
"290 586 OFFCURVE",
"244 632 CURVE SMOOTH",
"228 648 OFFCURVE",
"209 657 OFFCURVE",
"189 657 CURVE SMOOTH",
"169 657 OFFCURVE",
"150 648 OFFCURVE",
"134 632 CURVE SMOOTH",
"88 586 OFFCURVE",
"62 484 OFFCURVE",
"62 338 CURVE SMOOTH",
"62 192 OFFCURVE",
"88 91 OFFCURVE",
"134 45 CURVE SMOOTH",
"150 29 OFFCURVE",
"169 20 OFFCURVE",
"189 20 CURVE SMOOTH",
"267 20 OFFCURVE",
"316 139 OFFCURVE",
"316 338 CURVE SMOOTH"
);
}
);
};
layerId = master01;
paths = (
{
closed = 1;
nodes = (
"301 -5 OFFCURVE",
"338 175 OFFCURVE",
"338 345 CURVE SMOOTH",
"338 515 OFFCURVE",
"301 695 OFFCURVE",
"189 695 CURVE SMOOTH",
"86 695 OFFCURVE",
"40 544 OFFCURVE",
"40 345 CURVE SMOOTH",
"40 146 OFFCURVE",
"86 -5 OFFCURVE",
"189 -5 CURVE SMOOTH"
);
},
{
closed = 1;
nodes = (
"97 16 OFFCURVE",
"62 191 OFFCURVE",
"62 345 CURVE SMOOTH",
"62 499 OFFCURVE",
"97 674 OFFCURVE",
"189 674 CURVE SMOOTH",
"276 674 OFFCURVE",
"316 526 OFFCURVE",
"316 345 CURVE SMOOTH",
"316 164 OFFCURVE",
"276 16 OFFCURVE",
"189 16 CURVE SMOOTH"
);
}
);
width = 378;
},
{
associatedMasterId = master01;
layerId = "37D9CCD7-8CC5-4ECC-9FA5-3768A784E2F8";
name = "Aug 9 20, 12:33";
paths = (
{
closed = 1;
nodes = (
"336 187 OFFCURVE",
"308 80 OFFCURVE",
"258 30 CURVE SMOOTH",
"237 10 OFFCURVE",
"214 -1 OFFCURVE",
"188 -1 CURVE SMOOTH",
"162 -1 OFFCURVE",
"138 10 OFFCURVE",
"118 30 CURVE SMOOTH",
"68 80 OFFCURVE",
"40 187 OFFCURVE",
"40 338 CURVE SMOOTH",
"40 554 OFFCURVE",
"95 678 OFFCURVE",
"188 678 CURVE SMOOTH",
"214 678 OFFCURVE",
"237 667 OFFCURVE",
"258 647 CURVE SMOOTH",
"308 597 OFFCURVE",
"336 490 OFFCURVE",
"336 338 CURVE SMOOTH"
);
},
{
closed = 1;
nodes = (
"315 484 OFFCURVE",
"289 586 OFFCURVE",
"243 632 CURVE SMOOTH",
"227 648 OFFCURVE",
"208 657 OFFCURVE",
"188 657 CURVE SMOOTH",
"168 657 OFFCURVE",
"149 648 OFFCURVE",
"133 632 CURVE SMOOTH",
"87 586 OFFCURVE",
"61 484 OFFCURVE",
"61 338 CURVE SMOOTH",
"61 192 OFFCURVE",
"87 91 OFFCURVE",
"133 45 CURVE SMOOTH",
"149 29 OFFCURVE",
"168 20 OFFCURVE",
"188 20 CURVE SMOOTH",
"266 20 OFFCURVE",
"315 139 OFFCURVE",
"315 338 CURVE SMOOTH"
);
}
);
width = 376;
}
);
leftKerningGroup = zero;
rightKerningGroup = zero;
rightMetricsKey = "=|";
unicode = 0030;
},
{
glyphname = one;
lastChange = "2020-10-10 10:48:17 +0000";
layers = (
{
background = {
paths = (
{
closed = 1;
nodes = (
"167 686 OFFCURVE",
"163 690 OFFCURVE",
"156 690 CURVE SMOOTH",
"150 690 OFFCURVE",
"146 686 OFFCURVE",
"146 680 CURVE SMOOTH",
"146 10 LINE SMOOTH",
"146 4 OFFCURVE",
"150 0 OFFCURVE",
"156 0 CURVE SMOOTH",
"163 0 OFFCURVE",
"167 4 OFFCURVE",
"167 10 CURVE SMOOTH",
"167 680 LINE SMOOTH"
);
},
{
closed = 1;
nodes = (
"284 0 OFFCURVE",
"288 4 OFFCURVE",
"288 11 CURVE SMOOTH",
"288 17 OFFCURVE",
"284 21 OFFCURVE",
"278 21 CURVE SMOOTH",
"35 21 LINE SMOOTH",
"29 21 OFFCURVE",
"25 17 OFFCURVE",
"25 11 CURVE SMOOTH",
"25 4 OFFCURVE",
"29 0 OFFCURVE",
"35 0 CURVE SMOOTH",
"278 0 LINE SMOOTH"
);
},
{
closed = 1;
nodes = (
"152 689 LINE",
"43 645 LINE SMOOTH",
"38 643 OFFCURVE",
"36 639 OFFCURVE",
"36 635 CURVE SMOOTH",
"36 628 OFFCURVE",
"42 622 OFFCURVE",
"50 625 CURVE SMOOTH",
"159 669 LINE"
);
}
);
};
guideLines = (
{
angle = 90;
position = "{25, 11}";
}
);
layerId = master01;
paths = (
{
closed = 1;
nodes = (
"284 0 OFFCURVE",
"288 4 OFFCURVE",
"288 11 CURVE SMOOTH",
"288 17 OFFCURVE",
"284 21 OFFCURVE",
"278 21 CURVE SMOOTH",
"35 21 LINE SMOOTH",
"29 21 OFFCURVE",
"25 17 OFFCURVE",
"25 11 CURVE SMOOTH",
"25 4 OFFCURVE",
"29 0 OFFCURVE",
"35 0 CURVE SMOOTH",
"278 0 LINE SMOOTH"
);
},
{
closed = 1;
nodes = (
"43 645 LINE SMOOTH",
"38 643 OFFCURVE",
"36 639 OFFCURVE",
"36 635 CURVE SMOOTH",
"36 628 OFFCURVE",
"42 622 OFFCURVE",
"50 625 CURVE SMOOTH",
"152 667 LINE",
"146 680 LINE",
"146 10 LINE SMOOTH",
"146 4 OFFCURVE",
"150 0 OFFCURVE",
"156 0 CURVE SMOOTH",
"163 0 OFFCURVE",
"167 4 OFFCURVE",
"167 10 CURVE SMOOTH",
"167 680 LINE SMOOTH",
"167 686 OFFCURVE",
"163 690 OFFCURVE",
"158 690 CURVE SMOOTH",
"154 690 OFFCURVE",
"149 688 OFFCURVE",
"140 684 CURVE SMOOTH"
);
}
);
width = 303;
},
{
associatedMasterId = master01;
layerId = "0952074F-4965-4FE0-A17A-3D3DC8F8F244";
name = "Aug 9 20, 12:34";
paths = (
{
closed = 1;
nodes = (
"295 16 OFFCURVE",
"290 11 OFFCURVE",
"284 11 CURVE SMOOTH",
"40 11 LINE SMOOTH",
"35 11 OFFCURVE",
"30 16 OFFCURVE",
"30 21 CURVE SMOOTH",
"30 27 OFFCURVE",
"35 32 OFFCURVE",
"40 32 CURVE SMOOTH",
"151 32 LINE",
"151 654 LINE",
"55 624 LINE SMOOTH",
"50 623 OFFCURVE",
"44 626 OFFCURVE",
"42 631 CURVE SMOOTH",
"41 637 OFFCURVE",
"44 643 OFFCURVE",
"49 644 CURVE SMOOTH",
"159 678 LINE SMOOTH",
"162 679 OFFCURVE",
"165 678 OFFCURVE",
"168 676 CURVE SMOOTH",
"171 674 OFFCURVE",
"172 671 OFFCURVE",
"172 668 CURVE SMOOTH",
"172 32 LINE",
"284 32 LINE SMOOTH",
"290 32 OFFCURVE",
"295 27 OFFCURVE",
"295 21 CURVE SMOOTH"
);
}
);
width = 315;
}
);
leftKerningGroup = one;
rightKerningGroup = one;
unicode = 0031;
},
{
glyphname = two;
lastChange = "2020-10-10 10:48:23 +0000";
layers = (
{
background = {
paths = (
{
closed = 1;
nodes = (
"262 411 OFFCURVE",
"181 348 OFFCURVE",
"105 348 CURVE SMOOTH",
"90 348 OFFCURVE",
"84 351 OFFCURVE",
"84 356 CURVE SMOOTH",
"84 375 OFFCURVE",
"117 393 OFFCURVE",
"151 393 CURVE SMOOTH",
"234 393 OFFCURVE",
"293 321 OFFCURVE",
"293 214 CURVE SMOOTH",
"293 90 OFFCURVE",
"236 16 OFFCURVE",
"149 16 CURVE SMOOTH",
"99 16 OFFCURVE",
"55 38 OFFCURVE",
"29 73 CURVE SMOOTH",
"27 76 OFFCURVE",
"24 80 OFFCURVE",
"19 80 CURVE SMOOTH",
"11 80 OFFCURVE",
"5 71 OFFCURVE",
"10 64 CURVE SMOOTH",
"37 23 OFFCURVE",
"91 -5 OFFCURVE",
"149 -5 CURVE SMOOTH",
"249 -5 OFFCURVE",
"315 79 OFFCURVE",
"315 214 CURVE SMOOTH",
"315 332 OFFCURVE",
"246 414 OFFCURVE",
"151 414 CURVE SMOOTH",
"104 414 OFFCURVE",
"63 388 OFFCURVE",
"63 356 CURVE SMOOTH",
"63 337 OFFCURVE",
"80 327 OFFCURVE",
"105 327 CURVE SMOOTH",
"194 327 OFFCURVE",
"284 400 OFFCURVE",
"284 542 CURVE SMOOTH",
"284 632 OFFCURVE",
"237 695 OFFCURVE",
"167 695 CURVE SMOOTH",
"107 695 OFFCURVE",
"63 654 OFFCURVE",
"44 597 CURVE SMOOTH",
"42 590 OFFCURVE",
"48 584 OFFCURVE",
"54 584 CURVE SMOOTH",
"58 584 OFFCURVE",
"62 586 OFFCURVE",
"64 591 CURVE SMOOTH",
"81 638 OFFCURVE",
"117 674 OFFCURVE",
"167 674 CURVE SMOOTH",
"224 674 OFFCURVE",
"262 620 OFFCURVE",
"262 542 CURVE SMOOTH"
);
}
);
};
layerId = master01;
paths = (
{
closed = 1;
nodes = (
"303 639 OFFCURVE",
"250 695 OFFCURVE",
"177 695 CURVE SMOOTH",
"112 695 OFFCURVE",
"63 654 OFFCURVE",
"44 597 CURVE SMOOTH",
"42 590 OFFCURVE",
"48 584 OFFCURVE",
"54 584 CURVE SMOOTH",
"58 584 OFFCURVE",
"62 586 OFFCURVE",
"64 591 CURVE SMOOTH",
"81 638 OFFCURVE",
"122 674 OFFCURVE",
"177 674 CURVE SMOOTH",
"238 674 OFFCURVE",
"282 627 OFFCURVE",
"282 529 CURVE SMOOTH",
"282 465 OFFCURVE",
"261 399 OFFCURVE",
"200 323 CURVE SMOOTH",
"160 273 LINE SMOOTH",
"84 178 OFFCURVE",
"20 80 OFFCURVE",
"20 11 CURVE SMOOTH",
"20 5 OFFCURVE",
"24 0 OFFCURVE",
"30 0 CURVE SMOOTH",
"308 0 LINE SMOOTH",
"313 0 OFFCURVE",
"318 5 OFFCURVE",
"318 10 CURVE SMOOTH",
"318 16 OFFCURVE",
"313 21 OFFCURVE",
"308 21 CURVE SMOOTH",
"31 21 LINE",
"40 10 LINE",
"40 68 OFFCURVE",
"93 154 OFFCURVE",
"177 260 CURVE SMOOTH",
"221 316 LINE SMOOTH",
"283 395 OFFCURVE",
"303 460 OFFCURVE",
"303 529 CURVE SMOOTH"
);
}
);
width = 343;
},
{
associatedMasterId = master01;
layerId = "322727A2-2137-4D36-9AE9-AAA8D7B8C096";
name = "Aug 9 20, 12:38";
paths = (
{
closed = 1;
nodes = (
"313 427 OFFCURVE",
"234 317 OFFCURVE",
"200 273 CURVE SMOOTH",
"137 192 OFFCURVE",
"69 91 OFFCURVE",
"62 32 CURVE",
"298 32 LINE SMOOTH",
"303 32 OFFCURVE",
"308 27 OFFCURVE",
"308 21 CURVE SMOOTH",
"308 16 OFFCURVE",
"303 11 OFFCURVE",
"298 11 CURVE SMOOTH",
"50 11 LINE SMOOTH",
"45 11 OFFCURVE",
"40 16 OFFCURVE",
"40 21 CURVE SMOOTH",
"40 99 OFFCURVE",
"150 243 OFFCURVE",
"183 286 CURVE SMOOTH",
"209 319 OFFCURVE",
"292 431 OFFCURVE",
"292 527 CURVE SMOOTH",
"292 569 OFFCURVE",
"278 606 OFFCURVE",
"254 630 CURVE SMOOTH",
"236 648 OFFCURVE",
"213 658 OFFCURVE",
"187 658 CURVE SMOOTH",
"137 658 OFFCURVE",
"88 622 OFFCURVE",
"74 575 CURVE SMOOTH",
"72 570 OFFCURVE",
"66 567 OFFCURVE",
"61 568 CURVE SMOOTH",
"55 570 OFFCURVE",
"52 576 OFFCURVE",
"54 581 CURVE SMOOTH",
"71 638 OFFCURVE",
"127 679 OFFCURVE",
"187 679 CURVE SMOOTH",
"218 679 OFFCURVE",
"247 667 OFFCURVE",
"269 645 CURVE SMOOTH",
"297 617 OFFCURVE",
"313 574 OFFCURVE",
"313 527 CURVE SMOOTH"
);
}
);
width = 353;
}
);
leftKerningGroup = two;
rightKerningGroup = two;
unicode = 0032;
},
{
glyphname = three;
lastChange = "2020-10-10 10:48:58 +0000";
layers = (
{
background = {
paths = (
{
closed = 1;
nodes = (
"336 137 OFFCURVE",
"314 79 OFFCURVE",
"276 41 CURVE SMOOTH",
"249 14 OFFCURVE",
"214 0 OFFCURVE",
"175 0 CURVE SMOOTH",
"115 0 OFFCURVE",
"61 26 OFFCURVE",
"32 69 CURVE SMOOTH",
"29 74 OFFCURVE",
"30 80 OFFCURVE",
"35 83 CURVE SMOOTH",
"40 87 OFFCURVE",
"46 85 OFFCURVE",
"49 80 CURVE SMOOTH",
"74 43 OFFCURVE",
"122 20 OFFCURVE",
"175 20 CURVE SMOOTH",
"267 20 OFFCURVE",
"315 112 OFFCURVE",
"315 203 CURVE SMOOTH",
"315 282 OFFCURVE",
"279 345 OFFCURVE",
"233 371 CURVE",
"228 365 OFFCURVE",
"222 360 OFFCURVE",
"216 355 CURVE SMOOTH",
"181 326 OFFCURVE",
"128 314 OFFCURVE",
"104 322 CURVE SMOOTH",
"92 326 OFFCURVE",
"88 333 OFFCURVE",
"87 338 CURVE SMOOTH",
"85 349 OFFCURVE",
"89 361 OFFCURVE",
"98 372 CURVE SMOOTH",
"114 391 OFFCURVE",
"148 409 OFFCURVE",
"187 406 CURVE SMOOTH",
"201 405 OFFCURVE",
"216 402 OFFCURVE",
"229 396 CURVE",
"277 451 OFFCURVE",
"283 510 OFFCURVE",
"283 536 CURVE SMOOTH",
"283 577 OFFCURVE",
"272 610 OFFCURVE",
"251 632 CURVE SMOOTH",
"233 649 OFFCURVE",
"211 657 OFFCURVE",
"183 657 CURVE SMOOTH",
"139 657 OFFCURVE",
"105 622 OFFCURVE",
"91 586 CURVE SMOOTH",
"89 581 OFFCURVE",
"83 578 OFFCURVE",
"77 580 CURVE SMOOTH",
"72 582 OFFCURVE",
"69 588 OFFCURVE",
"71 594 CURVE SMOOTH",
"88 636 OFFCURVE",
"129 678 OFFCURVE",
"183 678 CURVE SMOOTH",
"216 678 OFFCURVE",
"245 667 OFFCURVE",
"265 646 CURVE SMOOTH",
"291 621 OFFCURVE",
"304 583 OFFCURVE",
"304 536 CURVE SMOOTH",
"304 509 OFFCURVE",
"298 445 OFFCURVE",
"248 386 CURVE",
"298 356 OFFCURVE",
"336 288 OFFCURVE",
"336 203 CURVE SMOOTH"
);
},
{
closed = 1;
nodes = (
"204 383 OFFCURVE",
"195 385 OFFCURVE",
"185 385 CURVE",
"155 388 OFFCURVE",
"127 374 OFFCURVE",
"114 359 CURVE SMOOTH",
"105 348 OFFCURVE",
"108 341 OFFCURVE",
"116 340 CURVE SMOOTH",
"137 338 OFFCURVE",
"177 350 OFFCURVE",
"203 371 CURVE SMOOTH",
"206 374 OFFCURVE",
"210 377 OFFCURVE",
"213 380 CURVE"
);
}
);
};
layerId = master01;
paths = (
{
closed = 1;
nodes = (
"284 411 OFFCURVE",
"203 348 OFFCURVE",
"127 348 CURVE SMOOTH",
"112 348 OFFCURVE",
"106 351 OFFCURVE",
"106 356 CURVE SMOOTH",
"106 375 OFFCURVE",
"139 393 OFFCURVE",
"173 393 CURVE SMOOTH",
"256 393 OFFCURVE",
"315 321 OFFCURVE",
"315 214 CURVE SMOOTH",
"315 90 OFFCURVE",
"258 16 OFFCURVE",
"171 16 CURVE SMOOTH",
"121 16 OFFCURVE",
"77 38 OFFCURVE",
"51 73 CURVE SMOOTH",
"49 76 OFFCURVE",
"46 80 OFFCURVE",
"41 80 CURVE SMOOTH",
"33 80 OFFCURVE",
"27 71 OFFCURVE",
"32 64 CURVE SMOOTH",
"59 23 OFFCURVE",
"113 -5 OFFCURVE",
"171 -5 CURVE SMOOTH",
"271 -5 OFFCURVE",
"337 79 OFFCURVE",
"337 214 CURVE SMOOTH",
"337 332 OFFCURVE",
"268 414 OFFCURVE",
"173 414 CURVE SMOOTH",
"126 414 OFFCURVE",
"85 388 OFFCURVE",
"85 356 CURVE SMOOTH",
"85 337 OFFCURVE",
"102 327 OFFCURVE",
"127 327 CURVE SMOOTH",
"216 327 OFFCURVE",
"306 400 OFFCURVE",
"306 542 CURVE SMOOTH",
"306 632 OFFCURVE",
"259 695 OFFCURVE",
"189 695 CURVE SMOOTH",
"129 695 OFFCURVE",
"85 654 OFFCURVE",
"66 597 CURVE SMOOTH",
"64 590 OFFCURVE",
"70 584 OFFCURVE",
"76 584 CURVE SMOOTH",
"80 584 OFFCURVE",
"84 586 OFFCURVE",
"86 591 CURVE SMOOTH",
"103 638 OFFCURVE",
"139 674 OFFCURVE",
"189 674 CURVE SMOOTH",
"246 674 OFFCURVE",
"284 620 OFFCURVE",
"284 542 CURVE SMOOTH"
);
}
);
width = 377;
},
{
associatedMasterId = master01;
layerId = "D70039F2-87CA-40C0-BBCA-E32363F7EC96";
name = "Aug 9 20, 12:44";
paths = (
{
closed = 1;
nodes = (
"334 137 OFFCURVE",
"312 79 OFFCURVE",
"274 41 CURVE SMOOTH",
"247 14 OFFCURVE",
"212 0 OFFCURVE",
"173 0 CURVE SMOOTH",
"113 0 OFFCURVE",
"59 26 OFFCURVE",
"30 69 CURVE SMOOTH",
"27 74 OFFCURVE",
"28 80 OFFCURVE",
"33 83 CURVE SMOOTH",
"38 87 OFFCURVE",
"44 85 OFFCURVE",
"47 80 CURVE SMOOTH",
"72 43 OFFCURVE",
"120 20 OFFCURVE",
"173 20 CURVE SMOOTH",
"265 20 OFFCURVE",
"313 112 OFFCURVE",
"313 203 CURVE SMOOTH",
"313 282 OFFCURVE",
"277 345 OFFCURVE",
"231 371 CURVE",
"226 365 OFFCURVE",
"220 360 OFFCURVE",
"214 355 CURVE SMOOTH",
"179 326 OFFCURVE",
"126 314 OFFCURVE",
"102 322 CURVE SMOOTH",
"90 326 OFFCURVE",
"86 333 OFFCURVE",
"85 338 CURVE SMOOTH",
"83 349 OFFCURVE",
"87 361 OFFCURVE",
"96 372 CURVE SMOOTH",
"112 391 OFFCURVE",
"146 409 OFFCURVE",
"185 406 CURVE SMOOTH",
"199 405 OFFCURVE",
"214 402 OFFCURVE",
"227 396 CURVE",
"275 451 OFFCURVE",
"281 510 OFFCURVE",
"281 536 CURVE SMOOTH",
"281 577 OFFCURVE",
"270 610 OFFCURVE",
"249 632 CURVE SMOOTH",
"231 649 OFFCURVE",
"209 657 OFFCURVE",
"181 657 CURVE SMOOTH",
"137 657 OFFCURVE",
"103 622 OFFCURVE",
"89 586 CURVE SMOOTH",
"87 581 OFFCURVE",
"81 578 OFFCURVE",
"75 580 CURVE SMOOTH",
"70 582 OFFCURVE",
"67 588 OFFCURVE",
"69 594 CURVE SMOOTH",
"86 636 OFFCURVE",
"127 678 OFFCURVE",
"181 678 CURVE SMOOTH",
"214 678 OFFCURVE",
"243 667 OFFCURVE",
"263 646 CURVE SMOOTH",
"289 621 OFFCURVE",
"302 583 OFFCURVE",
"302 536 CURVE SMOOTH",
"302 509 OFFCURVE",
"296 445 OFFCURVE",
"246 386 CURVE",
"296 356 OFFCURVE",
"334 288 OFFCURVE",
"334 203 CURVE SMOOTH"
);
},
{
closed = 1;
nodes = (
"202 383 OFFCURVE",
"193 385 OFFCURVE",
"183 385 CURVE",
"153 388 OFFCURVE",
"125 374 OFFCURVE",
"112 359 CURVE SMOOTH",
"103 348 OFFCURVE",
"106 341 OFFCURVE",
"114 340 CURVE SMOOTH",
"135 338 OFFCURVE",
"175 350 OFFCURVE",
"201 371 CURVE SMOOTH",
"204 374 OFFCURVE",
"208 377 OFFCURVE",
"211 380 CURVE"
);
}
);
width = 374;
}
);
leftKerningGroup = three;
rightKerningGroup = three;
unicode = 0033;
},
{
glyphname = four;
lastChange = "2020-10-10 10:49:53 +0000";
layers = (
{
background = {
paths = (
{
closed = 1;
nodes = (
"354 186 OFFCURVE",
"350 181 OFFCURVE",
"344 181 CURVE SMOOTH",
"276 181 LINE",
"276 9 LINE SMOOTH",
"276 3 OFFCURVE",
"272 -1 OFFCURVE",
"266 -1 CURVE SMOOTH",
"260 -1 OFFCURVE",
"255 3 OFFCURVE",
"255 9 CURVE SMOOTH",
"255 181 LINE",
"40 181 LINE SMOOTH",
"36 181 OFFCURVE",
"33 183 OFFCURVE",
"31 186 CURVE SMOOTH",
"29 189 OFFCURVE",
"29 193 OFFCURVE",
"30 196 CURVE SMOOTH",
"256 705 LINE SMOOTH",
"258 711 OFFCURVE",
"265 713 OFFCURVE",
"270 711 CURVE SMOOTH",
"275 708 OFFCURVE",
"278 702 OFFCURVE",
"275 697 CURVE",
"56 202 LINE",
"255 202 LINE",
"255 466 LINE SMOOTH",
"255 471 OFFCURVE",
"260 476 OFFCURVE",
"266 476 CURVE SMOOTH",
"272 476 OFFCURVE",
"276 471 OFFCURVE",
"276 466 CURVE SMOOTH",
"276 202 LINE",
"344 202 LINE SMOOTH",
"350 202 OFFCURVE",
"354 197 OFFCURVE",
"354 192 CURVE SMOOTH"
);
}
);
};
components = (
{
alignment = -1;
name = idotless;
transform = "{1, 0, 0, 1, 195, 0}";
}
);
layerId = master01;
paths = (
{
closed = 1;
nodes = (
"266 676 LINE SMOOTH",
"270 684 OFFCURVE",
"262 690 OFFCURVE",
"255 690 CURVE SMOOTH",
"252 690 OFFCURVE",
"249 688 OFFCURVE",
"247 684 CURVE SMOOTH",
"34 205 LINE SMOOTH",
"31 198 OFFCURVE",
"30 195 OFFCURVE",
"30 192 CURVE SMOOTH",
"30 185 OFFCURVE",
"34 181 OFFCURVE",
"40 181 CURVE SMOOTH",
"344 181 LINE SMOOTH",
"350 181 OFFCURVE",
"354 185 OFFCURVE",
"354 192 CURVE SMOOTH",
"354 198 OFFCURVE",
"350 202 OFFCURVE",
"344 202 CURVE SMOOTH",
"40 202 LINE",
"51 193 LINE"
);
}
);
width = 389;
},
{
associatedMasterId = master01;
layerId = "1BC2E89E-64E6-441F-8A41-11B642B0B28E";
name = "Aug 9 20, 12:52";
paths = (
{
closed = 1;
nodes = (
"354 186 OFFCURVE",
"350 181 OFFCURVE",
"344 181 CURVE SMOOTH",
"276 181 LINE",
"276 9 LINE SMOOTH",
"276 3 OFFCURVE",
"272 -1 OFFCURVE",
"266 -1 CURVE SMOOTH",
"260 -1 OFFCURVE",
"255 3 OFFCURVE",
"255 9 CURVE SMOOTH",
"255 181 LINE",
"40 181 LINE SMOOTH",
"36 181 OFFCURVE",
"33 183 OFFCURVE",
"31 186 CURVE SMOOTH",
"29 189 OFFCURVE",
"29 193 OFFCURVE",
"30 196 CURVE SMOOTH",
"256 705 LINE SMOOTH",
"258 711 OFFCURVE",
"265 713 OFFCURVE",
"270 711 CURVE SMOOTH",
"275 708 OFFCURVE",
"278 702 OFFCURVE",
"275 697 CURVE",
"56 202 LINE",
"255 202 LINE",
"255 466 LINE SMOOTH",
"255 471 OFFCURVE",
"260 476 OFFCURVE",
"266 476 CURVE SMOOTH",
"272 476 OFFCURVE",
"276 471 OFFCURVE",
"276 466 CURVE SMOOTH",
"276 202 LINE",
"344 202 LINE SMOOTH",
"350 202 OFFCURVE",
"354 197 OFFCURVE",
"354 192 CURVE SMOOTH"
);
}
);
width = 384;
}
);
leftKerningGroup = four;
rightKerningGroup = four;
unicode = 0034;
},
{
glyphname = five;
lastChange = "2020-10-09 14:54:34 +0000";
layers = (
{
background = {
paths = (
{
closed = 1;
nodes = (
"333 172 OFFCURVE",
"313 116 OFFCURVE",
"278 81 CURVE SMOOTH",
"250 53 OFFCURVE",
"214 39 OFFCURVE",
"174 39 CURVE SMOOTH",
"115 39 OFFCURVE",
"73 72 OFFCURVE",
"58 87 CURVE SMOOTH",
"54 91 OFFCURVE",
"54 97 OFFCURVE",
"58 102 CURVE SMOOTH",
"62 106 OFFCURVE",
"68 106 OFFCURVE",
"72 102 CURVE SMOOTH",
"86 89 OFFCURVE",
"123 60 OFFCURVE",
"174 60 CURVE SMOOTH",
"257 60 OFFCURVE",
"312 131 OFFCURVE",
"312 237 CURVE SMOOTH",
"312 305 OFFCURVE",
"295 359 OFFCURVE",
"264 390 CURVE SMOOTH",
"244 410 OFFCURVE",
"218 420 OFFCURVE",
"187 420 CURVE SMOOTH",
"164 420 OFFCURVE",
"144 414 OFFCURVE",
"126 405 CURVE",
"125 352 OFFCURVE",
"111 311 OFFCURVE",
"87 297 CURVE",
"77 290 OFFCURVE",
"66 289 OFFCURVE",
"56 294 CURVE SMOOTH",
"41 301 OFFCURVE",
"36 317 OFFCURVE",
"40 336 CURVE SMOOTH",
"46 363 OFFCURVE",
"70 396 OFFCURVE",
"105 418 CURVE",
"105 680 LINE SMOOTH",
"105 686 OFFCURVE",
"110 690 OFFCURVE",
"116 690 CURVE SMOOTH",
"256 690 LINE SMOOTH",
"289 690 OFFCURVE",
"298 703 OFFCURVE",
"311 724 CURVE SMOOTH",
"314 729 OFFCURVE",
"321 731 OFFCURVE",
"325 728 CURVE SMOOTH",
"330 725 OFFCURVE",
"332 718 OFFCURVE",
"329 713 CURVE SMOOTH",
"314 688 OFFCURVE",
"299 669 OFFCURVE",
"256 669 CURVE SMOOTH",
"126 669 LINE",
"126 429 LINE",
"145 436 OFFCURVE",
"165 441 OFFCURVE",
"187 441 CURVE SMOOTH",
"224 441 OFFCURVE",
"254 429 OFFCURVE",
"279 405 CURVE SMOOTH",
"314 369 OFFCURVE",
"333 311 OFFCURVE",
"333 237 CURVE SMOOTH"
);
},
{
closed = 1;
nodes = (
"80 373 OFFCURVE",
"64 349 OFFCURVE",
"60 332 CURVE SMOOTH",
"59 325 OFFCURVE",
"58 316 OFFCURVE",
"65 313 CURVE",
"66 312 OFFCURVE",
"70 311 OFFCURVE",
"76 314 CURVE SMOOTH",
"88 322 OFFCURVE",
"101 346 OFFCURVE",
"105 392 CURVE"
);
}
);
};
layerId = master01;
paths = (
{
closed = 1;
nodes = (
"116 690 LINE SMOOTH",
"110 690 OFFCURVE",
"106 686 OFFCURVE",
"106 680 CURVE SMOOTH",
"106 673 OFFCURVE",
"110 669 OFFCURVE",
"116 669 CURVE SMOOTH",
"253 669 LINE SMOOTH",
"293 669 OFFCURVE",
"317 683 OFFCURVE",
"329 714 CURVE SMOOTH",
"332 723 OFFCURVE",
"328 730 OFFCURVE",
"320 730 CURVE SMOOTH",
"315 730 OFFCURVE",
"312 727 OFFCURVE",
"311 724 CURVE SMOOTH",
"299 696 OFFCURVE",
"279 690 OFFCURVE",
"255 690 CURVE SMOOTH"
);
},
{
closed = 1;
nodes = (
"127 680 LINE SMOOTH",
"127 686 OFFCURVE",
"123 690 OFFCURVE",
"116 690 CURVE SMOOTH",
"110 690 OFFCURVE",
"106 686 OFFCURVE",
"106 680 CURVE",
"106 381 LINE",
"106 317 OFFCURVE",
"91 284 OFFCURVE",
"73 284 CURVE SMOOTH",
"66 284 OFFCURVE",
"60 288 OFFCURVE",
"60 303 CURVE SMOOTH",
"60 351 OFFCURVE",
"108 393 OFFCURVE",
"173 393 CURVE SMOOTH",
"256 393 OFFCURVE",
"315 321 OFFCURVE",
"315 212 CURVE SMOOTH",
"315 90 OFFCURVE",
"258 16 OFFCURVE",
"171 16 CURVE SMOOTH",
"121 16 OFFCURVE",
"77 38 OFFCURVE",
"51 73 CURVE SMOOTH",
"49 76 OFFCURVE",
"46 80 OFFCURVE",
"41 80 CURVE SMOOTH",
"33 80 OFFCURVE",
"27 71 OFFCURVE",
"32 64 CURVE SMOOTH",
"59 23 OFFCURVE",
"113 -5 OFFCURVE",
"171 -5 CURVE SMOOTH",
"271 -5 OFFCURVE",
"337 79 OFFCURVE",
"337 212 CURVE SMOOTH",
"337 332 OFFCURVE",
"268 414 OFFCURVE",
"173 414 CURVE SMOOTH",
"103 414 OFFCURVE",
"39 363 OFFCURVE",
"39 303 CURVE SMOOTH",
"39 278 OFFCURVE",
"51 262 OFFCURVE",
"73 262 CURVE SMOOTH",
"107 262 OFFCURVE",
"127 302 OFFCURVE",
"127 381 CURVE"
);
}
);
width = 372;
},
{
associatedMasterId = master01;
layerId = "56EDFE42-DA3D-4CA1-AADC-AAF0E29D51AB";
name = "Aug 9 20, 12:55";
paths = (
{
closed = 1;
nodes = (
"333 133 OFFCURVE",
"313 77 OFFCURVE",
"278 42 CURVE SMOOTH",
"250 14 OFFCURVE",
"214 0 OFFCURVE",
"174 0 CURVE SMOOTH",
"115 0 OFFCURVE",
"73 33 OFFCURVE",
"58 48 CURVE SMOOTH",
"54 52 OFFCURVE",
"54 58 OFFCURVE",
"58 63 CURVE SMOOTH",
"62 67 OFFCURVE",
"68 67 OFFCURVE",
"72 63 CURVE SMOOTH",
"86 50 OFFCURVE",
"123 21 OFFCURVE",
"174 21 CURVE SMOOTH",
"257 21 OFFCURVE",
"312 92 OFFCURVE",
"312 198 CURVE SMOOTH",
"312 266 OFFCURVE",
"295 320 OFFCURVE",
"264 351 CURVE SMOOTH",
"244 371 OFFCURVE",
"218 381 OFFCURVE",
"187 381 CURVE SMOOTH",
"164 381 OFFCURVE",
"144 375 OFFCURVE",
"126 366 CURVE",
"125 313 OFFCURVE",
"111 272 OFFCURVE",
"87 258 CURVE",
"77 251 OFFCURVE",
"66 250 OFFCURVE",
"56 255 CURVE SMOOTH",
"41 262 OFFCURVE",
"36 278 OFFCURVE",
"40 297 CURVE SMOOTH",
"46 324 OFFCURVE",
"70 357 OFFCURVE",
"105 379 CURVE",
"105 641 LINE SMOOTH",
"105 647 OFFCURVE",
"110 651 OFFCURVE",
"116 651 CURVE SMOOTH",
"256 651 LINE SMOOTH",
"289 651 OFFCURVE",
"298 664 OFFCURVE",
"311 685 CURVE SMOOTH",
"314 690 OFFCURVE",
"321 692 OFFCURVE",
"325 689 CURVE SMOOTH",
"330 686 OFFCURVE",
"332 679 OFFCURVE",
"329 674 CURVE SMOOTH",
"314 649 OFFCURVE",
"299 630 OFFCURVE",
"256 630 CURVE SMOOTH",
"126 630 LINE",
"126 390 LINE",
"145 397 OFFCURVE",
"165 402 OFFCURVE",
"187 402 CURVE SMOOTH",
"224 402 OFFCURVE",
"254 390 OFFCURVE",
"279 366 CURVE SMOOTH",
"314 330 OFFCURVE",
"333 272 OFFCURVE",
"333 198 CURVE SMOOTH"
);
},
{
closed = 1;
nodes = (
"80 334 OFFCURVE",
"64 310 OFFCURVE",
"60 293 CURVE SMOOTH",
"59 286 OFFCURVE",
"58 277 OFFCURVE",
"65 274 CURVE",
"66 273 OFFCURVE",
"70 272 OFFCURVE",
"76 275 CURVE SMOOTH",
"88 283 OFFCURVE",
"101 307 OFFCURVE",
"105 353 CURVE"
);
}
);
width = 373;
}
);
leftKerningGroup = five;
rightKerningGroup = five;
unicode = 0035;
},
{
glyphname = six;
lastChange = "2020-10-10 10:49:41 +0000";
layers = (
{
background = {
paths = (
{
closed = 1;
nodes = (
"330 209 CURVE SMOOTH",
"330 298 OFFCURVE",
"289 381 OFFCURVE",
"202 381 CURVE SMOOTH",
"161 381 OFFCURVE",
"121 361 OFFCURVE",
"95 325 CURVE SMOOTH",
"89 317 OFFCURVE",
"96 308 OFFCURVE",
"103 308 CURVE SMOOTH",
"106 308 OFFCURVE",
"109 309 OFFCURVE",
"111 312 CURVE SMOOTH",
"134 343 OFFCURVE",
"168 360 OFFCURVE",
"203 360 CURVE SMOOTH",
"282 360 OFFCURVE",
"308 280 OFFCURVE",
"308 205 CURVE SMOOTH",
"308 104 OFFCURVE",
"262 20 OFFCURVE",
"182 20 CURVE SMOOTH",
"108 20 OFFCURVE",
"62 102 OFFCURVE",
"62 235 CURVE SMOOTH",
"62 426 OFFCURVE",
"140 582 OFFCURVE",
"241 671 CURVE",
"240 677 OFFCURVE",
"239 684 OFFCURVE",
"238 690 CURVE",
"235 690 OFFCURVE",
"231 689 OFFCURVE",
"229 688 CURVE SMOOTH",
"124 595 OFFCURVE",
"40 431 OFFCURVE",
"40 235 CURVE SMOOTH",
"40 88 OFFCURVE",
"93 -1 OFFCURVE",
"182 -1 CURVE SMOOTH",
"283 -1 OFFCURVE",
"330 101 OFFCURVE"
);
}
);
};
layerId = master01;
paths = (
{
closed = 1;
nodes = (
"330 209 CURVE SMOOTH",
"330 298 OFFCURVE",
"289 381 OFFCURVE",
"202 381 CURVE SMOOTH",
"161 381 OFFCURVE",
"121 361 OFFCURVE",
"95 325 CURVE SMOOTH",
"89 317 OFFCURVE",
"96 308 OFFCURVE",
"103 308 CURVE SMOOTH",
"106 308 OFFCURVE",
"109 309 OFFCURVE",
"111 312 CURVE SMOOTH",
"134 343 OFFCURVE",
"168 360 OFFCURVE",
"203 360 CURVE SMOOTH",
"282 360 OFFCURVE",
"308 280 OFFCURVE",
"308 205 CURVE SMOOTH",
"308 102 OFFCURVE",
"262 16 OFFCURVE",
"182 16 CURVE SMOOTH",
"108 16 OFFCURVE",
"62 100 OFFCURVE",
"62 235 CURVE SMOOTH",
"62 426 OFFCURVE",
"140 582 OFFCURVE",
"241 671 CURVE SMOOTH",
"244 673 OFFCURVE",
"246 677 OFFCURVE",
"246 681 CURVE SMOOTH",
"246 686 OFFCURVE",
"242 690 OFFCURVE",
"236 690 CURVE",
"232 690 OFFCURVE",
"230 689 OFFCURVE",
"226 686 CURVE SMOOTH",
"123 595 OFFCURVE",
"40 431 OFFCURVE",
"40 235 CURVE SMOOTH",
"40 85 OFFCURVE",
"93 -5 OFFCURVE",
"182 -5 CURVE SMOOTH",
"283 -5 OFFCURVE",
"330 99 OFFCURVE"
);
}
);
width = 360;
},
{
associatedMasterId = master01;
layerId = "81C32FE2-4427-432D-AC25-D012CFDB94A4";
name = "Aug 9 20, 13:03";
paths = (
{
closed = 1;
nodes = (
"317 66 OFFCURVE",
"262 -1 OFFCURVE",
"177 -1 CURVE SMOOTH",
"145 -1 OFFCURVE",
"116 13 OFFCURVE",
"94 38 CURVE SMOOTH",
"48 89 OFFCURVE",
"31 185 OFFCURVE",
"45 308 CURVE SMOOTH",
"73 551 OFFCURVE",
"186 686 OFFCURVE",
"249 726 CURVE SMOOTH",
"254 730 OFFCURVE",
"261 728 OFFCURVE",
"264 723 CURVE SMOOTH",
"267 719 OFFCURVE",
"265 712 OFFCURVE",
"261 709 CURVE SMOOTH",
"254 705 OFFCURVE",
"100 601 OFFCURVE",
"66 306 CURVE SMOOTH",
"52 191 OFFCURVE",
"68 98 OFFCURVE",
"110 52 CURVE SMOOTH",
"128 31 OFFCURVE",
"151 20 OFFCURVE",
"177 20 CURVE SMOOTH",
"277 20 OFFCURVE",
"301 124 OFFCURVE",
"307 185 CURVE",
"313 261 OFFCURVE",
"285 348 OFFCURVE",
"220 359 CURVE SMOOTH",
"180 366 OFFCURVE",
"138 348 OFFCURVE",
"111 312 CURVE SMOOTH",
"108 307 OFFCURVE",
"101 306 OFFCURVE",
"97 310 CURVE SMOOTH",
"92 313 OFFCURVE",
"91 320 OFFCURVE",
"95 325 CURVE SMOOTH",
"126 367 OFFCURVE",
"176 388 OFFCURVE",
"224 379 CURVE",
"302 366 OFFCURVE",
"335 270 OFFCURVE",
"327 183 CURVE SMOOTH"
);
}
);
width = 369;
}
);
leftKerningGroup = six;
leftMetricsKey = zero;
rightKerningGroup = six;
unicode = 0036;
},
{
glyphname = seven;
lastChange = "2020-10-10 10:49:32 +0000";
layers = (
{
background = {
paths = (
{
closed = 1;
nodes = (
"44 6 OFFCURVE",
"49 0 OFFCURVE",
"56 0 CURVE SMOOTH",
"61 0 OFFCURVE",
"64 3 OFFCURVE",
"66 8 CURVE SMOOTH",
"286 679 LINE",
"286 685 OFFCURVE",
"282 690 OFFCURVE",
"276 690 CURVE SMOOTH",
"35 690 LINE SMOOTH",
"30 690 OFFCURVE",
"25 685 OFFCURVE",
"25 680 CURVE SMOOTH",
"25 674 OFFCURVE",
"30 669 OFFCURVE",
"35 669 CURVE SMOOTH",
"275 669 LINE",
"266 680 LINE",
"46 13 LINE SMOOTH"
);
}
);
};
layerId = master01;
paths = (
{
closed = 1;
nodes = (
"44 6 OFFCURVE",
"49 0 OFFCURVE",
"56 0 CURVE SMOOTH",
"61 0 OFFCURVE",
"64 3 OFFCURVE",
"66 8 CURVE SMOOTH",
"286 679 LINE SMOOTH",
"288 685 OFFCURVE",
"285 690 OFFCURVE",
"277 690 CURVE SMOOTH",
"35 690 LINE SMOOTH",
"30 690 OFFCURVE",
"25 685 OFFCURVE",
"25 680 CURVE SMOOTH",
"25 674 OFFCURVE",
"30 669 OFFCURVE",
"35 669 CURVE SMOOTH",
"275 669 LINE",
"266 680 LINE",
"46 13 LINE SMOOTH"
);
}
);
width = 321;
},
{
associatedMasterId = master01;
layerId = "FAA4D44F-D260-44EC-83B0-6C25C263009B";
name = "Aug 9 20, 13:09";
paths = (
{
closed = 1;
nodes = (
"140 8 LINE SMOOTH",
"139 2 OFFCURVE",
"133 -1 OFFCURVE",
"128 0 CURVE SMOOTH",
"122 1 OFFCURVE",
"119 7 OFFCURVE",
"120 13 CURVE SMOOTH",
"268 619 LINE",
"30 619 LINE SMOOTH",
"25 619 OFFCURVE",
"20 624 OFFCURVE",
"20 630 CURVE SMOOTH",
"20 635 OFFCURVE",
"25 640 OFFCURVE",
"30 640 CURVE SMOOTH",
"281 640 LINE SMOOTH",
"284 640 OFFCURVE",
"287 639 OFFCURVE",
"289 636 CURVE SMOOTH",
"291 634 OFFCURVE",
"292 630 OFFCURVE",
"291 627 CURVE SMOOTH"
);
}
);
width = 326;
}
);
leftKerningGroup = seven;
rightKerningGroup = seven;
unicode = 0037;
},
{
glyphname = eight;
lastChange = "2020-10-02 15:10:59 +0000";
layers = (
{
background = {
paths = (
{
closed = 1;
nodes = (
"251 304 OFFCURVE",
"315 251 OFFCURVE",
"315 166 CURVE SMOOTH",
"315 81 OFFCURVE",
"260 21 OFFCURVE",
"188 21 CURVE SMOOTH",
"116 21 OFFCURVE",
"62 81 OFFCURVE",
"62 166 CURVE SMOOTH",
"62 252 OFFCURVE",
"123 317 OFFCURVE",
"197 357 CURVE SMOOTH",
"284 404 OFFCURVE",
"324 471 OFFCURVE",
"324 548 CURVE SMOOTH",
"324 627 OFFCURVE",
"265 690 OFFCURVE",
"189 690 CURVE SMOOTH",
"112 690 OFFCURVE",
"53 627 OFFCURVE",
"53 548 CURVE SMOOTH",
"53 472 OFFCURVE",
"98 413 OFFCURVE",
"179 355 CURVE SMOOTH"
);
},
{
closed = 1;
nodes = (
"117 425 OFFCURVE",
"73 476 OFFCURVE",
"73 548 CURVE SMOOTH",
"73 616 OFFCURVE",
"123 671 OFFCURVE",
"189 671 CURVE SMOOTH",
"254 671 OFFCURVE",
"304 616 OFFCURVE",
"304 548 CURVE SMOOTH",
"304 470 OFFCURVE",
"259 414 OFFCURVE",
"173 366 CURVE SMOOTH",
"96 323 OFFCURVE",
"40 255 OFFCURVE",
"40 166 CURVE SMOOTH",
"40 69 OFFCURVE",
"104 0 OFFCURVE",
"188 0 CURVE SMOOTH",
"273 0 OFFCURVE",
"337 69 OFFCURVE",
"337 166 CURVE SMOOTH",
"337 255 OFFCURVE",
"275 310 OFFCURVE",
"198 366 CURVE SMOOTH"
);
}
);
};
layerId = master01;
paths = (
{
closed = 1;
nodes = (
"284 405 OFFCURVE",
"325 476 OFFCURVE",
"325 545 CURVE SMOOTH",
"325 636 OFFCURVE",
"266 695 OFFCURVE",
"188 695 CURVE SMOOTH",
"111 695 OFFCURVE",
"52 636 OFFCURVE",
"52 545 CURVE SMOOTH",
"52 475 OFFCURVE",
"92 404 OFFCURVE",
"180 357 CURVE SMOOTH",
"254 317 OFFCURVE",
"315 252 OFFCURVE",
"315 166 CURVE SMOOTH",
"315 76 OFFCURVE",
"261 16 OFFCURVE",
"189 16 CURVE SMOOTH",
"117 16 OFFCURVE",
"62 76 OFFCURVE",
"62 166 CURVE SMOOTH",
"62 251 OFFCURVE",
"124 317 OFFCURVE",
"197 357 CURVE SMOOTH"
);
},
{
closed = 1;
nodes = (
"96 323 OFFCURVE",
"40 255 OFFCURVE",
"40 166 CURVE SMOOTH",
"40 64 OFFCURVE",
"104 -5 OFFCURVE",
"189 -5 CURVE SMOOTH",
"273 -5 OFFCURVE",
"337 64 OFFCURVE",
"337 166 CURVE SMOOTH",
"337 255 OFFCURVE",
"281 323 OFFCURVE",
"204 366 CURVE SMOOTH",
"119 414 OFFCURVE",
"74 474 OFFCURVE",
"74 545 CURVE SMOOTH",
"74 624 OFFCURVE",
"124 674 OFFCURVE",
"188 674 CURVE SMOOTH",
"253 674 OFFCURVE",
"303 624 OFFCURVE",
"303 545 CURVE SMOOTH",
"303 474 OFFCURVE",
"260 414 OFFCURVE",
"173 366 CURVE SMOOTH"
);
}
);
width = 377;
},
{
associatedMasterId = master01;
layerId = "E1009123-1B64-4E00-BB36-7F9A9E63410E";
name = "Aug 9 20, 13:13";
paths = (
{
closed = 1;
nodes = (
"335 101 OFFCURVE",
"310 63 OFFCURVE",
"290 42 CURVE SMOOTH",
"263 15 OFFCURVE",
"225 0 OFFCURVE",
"188 0 CURVE SMOOTH",
"150 0 OFFCURVE",
"113 15 OFFCURVE",
"86 42 CURVE SMOOTH",
"65 63 OFFCURVE",
"40 101 OFFCURVE",
"40 161 CURVE SMOOTH",
"40 243 OFFCURVE",
"90 315 OFFCURVE",
"166 352 CURVE",
"100 388 OFFCURVE",
"68 441 OFFCURVE",
"68 524 CURVE SMOOTH",
"68 569 OFFCURVE",
"81 608 OFFCURVE",
"106 637 CURVE SMOOTH",
"130 664 OFFCURVE",
"162 679 OFFCURVE",
"196 679 CURVE SMOOTH",
"227 679 OFFCURVE",
"257 666 OFFCURVE",
"279 643 CURVE SMOOTH",
"308 615 OFFCURVE",
"324 572 OFFCURVE",
"324 524 CURVE SMOOTH",
"324 443 OFFCURVE",
"286 385 OFFCURVE",
"216 351 CURVE",
"289 312 OFFCURVE",
"335 242 OFFCURVE",
"335 161 CURVE SMOOTH"
);
},
{
closed = 1;
nodes = (
"303 567 OFFCURVE",
"289 604 OFFCURVE",
"265 628 CURVE SMOOTH",
"246 647 OFFCURVE",
"221 658 OFFCURVE",
"196 658 CURVE SMOOTH",
"171 658 OFFCURVE",
"146 647 OFFCURVE",
"128 628 CURVE SMOOTH",
"103 604 OFFCURVE",
"89 567 OFFCURVE",
"89 524 CURVE SMOOTH",
"89 443 OFFCURVE",
"123 394 OFFCURVE",
"191 363 CURVE",
"243 383 OFFCURVE",
"303 424 OFFCURVE",
"303 524 CURVE SMOOTH"
);
},
{
closed = 1;
nodes = (
"314 240 OFFCURVE",
"266 307 OFFCURVE",
"191 341 CURVE",
"113 310 OFFCURVE",
"61 241 OFFCURVE",
"61 161 CURVE SMOOTH",
"61 119 OFFCURVE",
"75 83 OFFCURVE",
"101 57 CURVE SMOOTH",
"124 34 OFFCURVE",
"155 21 OFFCURVE",
"188 21 CURVE SMOOTH",
"249 21 OFFCURVE",
"314 70 OFFCURVE",
"314 161 CURVE SMOOTH"
);
}
);
width = 375;
}
);
leftKerningGroup = eight;
leftMetricsKey = zero;
rightKerningGroup = eight;
rightMetricsKey = zero;
unicode = 0038;
},
{
glyphname = nine;
lastChange = "2020-10-10 10:49:58 +0000";
layers = (
{
background = {
paths = (
{
closed = 1;
nodes = (
"286 126 OFFCURVE",
"172 -8 OFFCURVE",
"109 -49 CURVE SMOOTH",
"105 -52 OFFCURVE",
"98 -51 OFFCURVE",
"95 -46 CURVE SMOOTH",
"92 -41 OFFCURVE",
"93 -34 OFFCURVE",
"98 -31 CURVE SMOOTH",
"105 -27 OFFCURVE",
"259 77 OFFCURVE",
"293 372 CURVE SMOOTH",
"306 487 OFFCURVE",
"290 580 OFFCURVE",
"249 626 CURVE SMOOTH",
"230 647 OFFCURVE",
"208 657 OFFCURVE",
"181 657 CURVE SMOOTH",
"82 657 OFFCURVE",
"58 554 OFFCURVE",
"52 493 CURVE SMOOTH",
"45 417 OFFCURVE",
"73 330 OFFCURVE",
"138 319 CURVE SMOOTH",
"179 312 OFFCURVE",
"220 330 OFFCURVE",
"247 366 CURVE",
"251 370 OFFCURVE",
"257 371 OFFCURVE",
"262 368 CURVE SMOOTH",
"267 364 OFFCURVE",
"268 358 OFFCURVE",
"264 353 CURVE SMOOTH",
"232 311 OFFCURVE",
"183 290 OFFCURVE",
"135 298 CURVE SMOOTH",
"56 312 OFFCURVE",
"23 407 OFFCURVE",
"31 494 CURVE SMOOTH",
"42 611 OFFCURVE",
"96 678 OFFCURVE",
"181 678 CURVE SMOOTH",
"213 678 OFFCURVE",
"242 665 OFFCURVE",
"265 640 CURVE SMOOTH",
"310 588 OFFCURVE",
"328 492 OFFCURVE",
"314 369 CURVE SMOOTH"
);
}
);
};
components = (
{
name = six;
transform = "{-1, 0, 0, -1, 360, 690}";
}
);
layerId = master01;
width = 360;
},
{
associatedMasterId = master01;
layerId = "DD77C4D7-4DD3-4CF6-9B82-4705D4A07389";
name = "Aug 9 20, 13:09";
paths = (
{
closed = 1;
nodes = (
"296 126 OFFCURVE",
"182 -8 OFFCURVE",
"119 -49 CURVE SMOOTH",
"115 -52 OFFCURVE",
"108 -51 OFFCURVE",
"105 -46 CURVE SMOOTH",
"102 -41 OFFCURVE",
"103 -34 OFFCURVE",
"108 -31 CURVE SMOOTH",
"115 -27 OFFCURVE",
"269 77 OFFCURVE",
"303 372 CURVE SMOOTH",
"316 487 OFFCURVE",
"300 580 OFFCURVE",
"259 626 CURVE SMOOTH",
"240 647 OFFCURVE",
"218 657 OFFCURVE",
"191 657 CURVE SMOOTH",
"92 657 OFFCURVE",
"68 554 OFFCURVE",
"62 493 CURVE SMOOTH",
"55 417 OFFCURVE",
"83 330 OFFCURVE",
"148 319 CURVE SMOOTH",
"189 312 OFFCURVE",
"230 330 OFFCURVE",
"257 366 CURVE",
"261 370 OFFCURVE",
"267 371 OFFCURVE",
"272 368 CURVE SMOOTH",
"277 364 OFFCURVE",
"278 358 OFFCURVE",
"274 353 CURVE SMOOTH",
"242 311 OFFCURVE",
"193 290 OFFCURVE",
"145 298 CURVE SMOOTH",
"66 312 OFFCURVE",
"33 407 OFFCURVE",
"41 494 CURVE SMOOTH",
"52 611 OFFCURVE",
"106 678 OFFCURVE",
"191 678 CURVE SMOOTH",
"223 678 OFFCURVE",
"252 665 OFFCURVE",
"275 640 CURVE SMOOTH",
"320 588 OFFCURVE",
"338 492 OFFCURVE",
"324 369 CURVE SMOOTH"
);
}
);
width = 369;
}
);
leftKerningGroup = nine;
leftMetricsKey = "=|six";
rightKerningGroup = nine;
rightMetricsKey = "=|six";
unicode = 0039;
},
{
glyphname = colon;
lastChange = "2020-10-10 10:06:16 +0000";
layers = (
{
background = {
paths = (
{
closed = 1;
nodes = (
"101 380 OFFCURVE",
"96 376 OFFCURVE",
"90 376 CURVE SMOOTH",
"85 376 OFFCURVE",
"80 380 OFFCURVE",
"80 386 CURVE SMOOTH",
"80 467 LINE SMOOTH",
"80 472 OFFCURVE",
"85 477 OFFCURVE",
"90 477 CURVE SMOOTH",
"96 477 OFFCURVE",
"101 472 OFFCURVE",
"101 467 CURVE SMOOTH",
"101 386 LINE SMOOTH"
);
},
{
closed = 1;
nodes = (
"101 5 OFFCURVE",
"96 0 OFFCURVE",
"90 0 CURVE SMOOTH",
"85 0 OFFCURVE",
"80 5 OFFCURVE",
"80 11 CURVE SMOOTH",
"80 91 LINE SMOOTH",
"80 97 OFFCURVE",
"85 101 OFFCURVE",
"90 101 CURVE SMOOTH",
"96 101 OFFCURVE",
"101 97 OFFCURVE",
"101 91 CURVE SMOOTH",
"101 11 LINE SMOOTH"
);
}
);
};
components = (
{
name = period;
},
{
name = period;
transform = "{1, 0, 0, 1, 0, 376}";
}
);
layerId = master01;
width = 181;
},
{
associatedMasterId = master01;
layerId = "BBFD2181-46F7-48C8-81C4-E78917868C78";
name = "Aug 9 20, 14:37";
paths = (
{
closed = 1;
nodes = (
"101 380 OFFCURVE",
"96 376 OFFCURVE",
"90 376 CURVE SMOOTH",
"85 376 OFFCURVE",
"80 380 OFFCURVE",
"80 386 CURVE SMOOTH",
"80 467 LINE SMOOTH",
"80 472 OFFCURVE",
"85 477 OFFCURVE",
"90 477 CURVE SMOOTH",
"96 477 OFFCURVE",
"101 472 OFFCURVE",
"101 467 CURVE SMOOTH",
"101 386 LINE SMOOTH"
);
},
{
closed = 1;
nodes = (
"101 5 OFFCURVE",
"96 0 OFFCURVE",
"90 0 CURVE SMOOTH",
"85 0 OFFCURVE",
"80 5 OFFCURVE",
"80 11 CURVE SMOOTH",
"80 91 LINE SMOOTH",
"80 97 OFFCURVE",
"85 101 OFFCURVE",
"90 101 CURVE SMOOTH",
"96 101 OFFCURVE",
"101 97 OFFCURVE",
"101 91 CURVE SMOOTH",
"101 11 LINE SMOOTH"
);
}
);
width = 181;
}
);
leftKerningGroup = colon;
leftMetricsKey = period;
rightKerningGroup = colon;
rightMetricsKey = period;
unicode = 003A;
},
{
glyphname = semicolon;
lastChange = "2020-10-02 15:10:59 +0000";
layers = (
{
background = {
paths = (
{
closed = 1;
nodes = (
"86 380 OFFCURVE",
"81 376 OFFCURVE",
"75 376 CURVE SMOOTH",
"69 376 OFFCURVE",
"65 380 OFFCURVE",
"65 386 CURVE SMOOTH",
"65 467 LINE SMOOTH",
"65 472 OFFCURVE",
"69 477 OFFCURVE",
"75 477 CURVE SMOOTH",
"81 477 OFFCURVE",
"86 472 OFFCURVE",
"86 467 CURVE SMOOTH",
"86 386 LINE SMOOTH"
);
},
{
closed = 1;
nodes = (
"85 -47 OFFCURVE",
"69 -74 OFFCURVE",
"36 -86 CURVE SMOOTH",
"31 -88 OFFCURVE",
"25 -85 OFFCURVE",
"23 -80 CURVE SMOOTH",
"21 -75 OFFCURVE",
"24 -69 OFFCURVE",
"29 -67 CURVE SMOOTH",
"53 -58 OFFCURVE",
"65 -38 OFFCURVE",
"65 -6 CURVE SMOOTH",
"65 91 LINE SMOOTH",
"65 97 OFFCURVE",
"69 102 OFFCURVE",
"75 102 CURVE SMOOTH",
"81 102 OFFCURVE",
"85 97 OFFCURVE",
"85 91 CURVE SMOOTH",
"85 -6 LINE SMOOTH"
);
}
);
};
components = (
{
name = period;
transform = "{1, 0, 0, 1, -17, 376}";
},
{
name = quoteleft;
transform = "{-1, 0, 0, -1, 135, 604}";
}
);
layerId = master01;
width = 165;
},
{
associatedMasterId = master01;
layerId = "480DC4AC-A490-45D4-AAAF-34EEEC114065";
name = "Aug 9 20, 14:37";
paths = (
{
closed = 1;
nodes = (
"103 380 OFFCURVE",
"98 376 OFFCURVE",
"92 376 CURVE SMOOTH",
"86 376 OFFCURVE",
"82 380 OFFCURVE",
"82 386 CURVE SMOOTH",
"82 467 LINE SMOOTH",
"82 472 OFFCURVE",
"86 477 OFFCURVE",
"92 477 CURVE SMOOTH",
"98 477 OFFCURVE",
"103 472 OFFCURVE",
"103 467 CURVE SMOOTH",
"103 386 LINE SMOOTH"
);
},
{
closed = 1;
nodes = (
"102 -47 OFFCURVE",
"86 -74 OFFCURVE",
"53 -86 CURVE SMOOTH",
"48 -88 OFFCURVE",
"42 -85 OFFCURVE",
"40 -80 CURVE SMOOTH",
"38 -75 OFFCURVE",
"41 -69 OFFCURVE",
"46 -67 CURVE SMOOTH",
"70 -58 OFFCURVE",
"82 -38 OFFCURVE",
"82 -6 CURVE SMOOTH",
"82 91 LINE SMOOTH",
"82 97 OFFCURVE",
"86 102 OFFCURVE",
"92 102 CURVE SMOOTH",
"98 102 OFFCURVE",
"102 97 OFFCURVE",
"102 91 CURVE SMOOTH",
"102 -6 LINE SMOOTH"
);
}
);
width = 183;
}
);
leftKerningGroup = colon;
leftMetricsKey = comma;
rightKerningGroup = colon;
rightMetricsKey = period;
unicode = 003B;
},
{
glyphname = less;
lastChange = "2020-08-21 13:23:04 +0000";
layers = (
{
background = {
paths = (
{
closed = 1;
nodes = (
"428 46 OFFCURVE",
"422 44 OFFCURVE",
"417 47 CURVE SMOOTH",
"56 229 LINE SMOOTH",
"52 231 OFFCURVE",
"50 235 OFFCURVE",
"50 239 CURVE SMOOTH",
"50 243 OFFCURVE",
"52 246 OFFCURVE",
"56 248 CURVE SMOOTH",
"417 431 LINE SMOOTH",
"422 433 OFFCURVE",
"428 431 OFFCURVE",
"431 426 CURVE SMOOTH",
"434 421 OFFCURVE",
"432 415 OFFCURVE",
"426 412 CURVE SMOOTH",
"84 239 LINE",
"426 66 LINE SMOOTH",
"432 63 OFFCURVE",
"434 57 OFFCURVE",
"431 52 CURVE SMOOTH"
);
}
);
};
layerId = master01;
paths = (
{
closed = 1;
nodes = (
"432 57 CURVE SMOOTH",
"432 61 OFFCURVE",
"430 64 OFFCURVE",
"426 66 CURVE SMOOTH",
"70 246 LINE",
"70 232 LINE",
"426 412 LINE SMOOTH",
"430 414 OFFCURVE",
"432 418 OFFCURVE",
"432 421 CURVE SMOOTH",
"432 429 OFFCURVE",
"424 434 OFFCURVE",
"417 431 CURVE SMOOTH",
"56 248 LINE SMOOTH",
"52 246 OFFCURVE",
"50 243 OFFCURVE",
"50 239 CURVE SMOOTH",
"50 235 OFFCURVE",
"52 231 OFFCURVE",
"56 229 CURVE SMOOTH",
"417 47 LINE SMOOTH",
"427 42 OFFCURVE",
"432 52 OFFCURVE"
);
}
);
width = 482;
},
{
associatedMasterId = master01;
layerId = "4DFEAC68-4B05-4D28-8CA5-903AE9CAC805";
name = "Aug 9 20, 14:38";
paths = (
{
closed = 1;
nodes = (
"408 46 OFFCURVE",
"402 44 OFFCURVE",
"397 47 CURVE SMOOTH",
"36 229 LINE SMOOTH",
"32 231 OFFCURVE",
"30 235 OFFCURVE",
"30 239 CURVE SMOOTH",
"30 243 OFFCURVE",
"32 246 OFFCURVE",
"36 248 CURVE SMOOTH",
"397 431 LINE SMOOTH",
"402 433 OFFCURVE",
"408 431 OFFCURVE",
"411 426 CURVE SMOOTH",
"414 421 OFFCURVE",
"412 415 OFFCURVE",
"406 412 CURVE SMOOTH",
"64 239 LINE",
"406 66 LINE SMOOTH",
"412 63 OFFCURVE",
"414 57 OFFCURVE",
"411 52 CURVE SMOOTH"
);
}
);
width = 471;
},
{
associatedMasterId = master01;
background = {
paths = (
{
closed = 1;
nodes = (
"408 46 OFFCURVE",
"402 44 OFFCURVE",
"397 47 CURVE SMOOTH",
"36 229 LINE SMOOTH",
"32 231 OFFCURVE",
"30 235 OFFCURVE",
"30 239 CURVE SMOOTH",
"30 243 OFFCURVE",
"32 246 OFFCURVE",
"36 248 CURVE SMOOTH",
"397 431 LINE SMOOTH",
"402 433 OFFCURVE",
"408 431 OFFCURVE",
"411 426 CURVE SMOOTH",
"414 421 OFFCURVE",
"412 415 OFFCURVE",
"406 412 CURVE SMOOTH",
"64 239 LINE",
"406 66 LINE SMOOTH",
"412 63 OFFCURVE",
"414 57 OFFCURVE",
"411 52 CURVE SMOOTH"
);
}
);
};
layerId = "168D804F-2A3E-4AD1-B413-D2564A20A8EE";
name = "Aug 9 20, 14:40";
paths = (
{
closed = 1;
nodes = (
"408 46 OFFCURVE",
"402 44 OFFCURVE",
"397 47 CURVE SMOOTH",
"36 229 LINE SMOOTH",
"32 231 OFFCURVE",
"30 235 OFFCURVE",
"30 239 CURVE SMOOTH",
"30 243 OFFCURVE",
"32 246 OFFCURVE",
"36 248 CURVE SMOOTH",
"397 431 LINE SMOOTH",
"402 433 OFFCURVE",
"408 431 OFFCURVE",
"411 426 CURVE SMOOTH",
"414 421 OFFCURVE",
"412 415 OFFCURVE",
"406 412 CURVE SMOOTH",
"64 239 LINE",
"406 66 LINE SMOOTH",
"412 63 OFFCURVE",
"414 57 OFFCURVE",
"411 52 CURVE SMOOTH"
);
}
);
width = 471;
}
);
leftMetricsKey = plus;
rightMetricsKey = plus;
unicode = 003C;
},
{
glyphname = equal;
lastChange = "2020-10-02 15:10:59 +0000";
layers = (
{
background = {
paths = (
{
closed = 1;
nodes = (
"517 312 OFFCURVE",
"512 307 OFFCURVE",
"506 307 CURVE SMOOTH",
"50 307 LINE SMOOTH",
"45 307 OFFCURVE",
"40 312 OFFCURVE",
"40 318 CURVE SMOOTH",
"40 324 OFFCURVE",
"45 328 OFFCURVE",
"50 328 CURVE SMOOTH",
"506 328 LINE SMOOTH",
"512 328 OFFCURVE",
"517 324 OFFCURVE",
"517 318 CURVE SMOOTH"
);
},
{
closed = 1;
nodes = (
"517 154 OFFCURVE",
"512 150 OFFCURVE",
"506 150 CURVE SMOOTH",
"50 150 LINE SMOOTH",
"45 150 OFFCURVE",
"40 154 OFFCURVE",
"40 160 CURVE SMOOTH",
"40 166 OFFCURVE",
"45 171 OFFCURVE",
"50 171 CURVE SMOOTH",
"506 171 LINE SMOOTH",
"512 171 OFFCURVE",
"517 166 OFFCURVE",
"517 160 CURVE SMOOTH"
);
}
);
};
layerId = master01;
paths = (
{
closed = 1;
nodes = (
"523 307 OFFCURVE",
"527 311 OFFCURVE",
"527 318 CURVE SMOOTH",
"527 324 OFFCURVE",
"523 328 OFFCURVE",
"517 328 CURVE SMOOTH",
"60 328 LINE SMOOTH",
"54 328 OFFCURVE",
"50 324 OFFCURVE",
"50 318 CURVE SMOOTH",
"50 311 OFFCURVE",
"54 307 OFFCURVE",
"60 307 CURVE SMOOTH",
"517 307 LINE SMOOTH"
);
},
{
closed = 1;
nodes = (
"523 150 OFFCURVE",
"527 154 OFFCURVE",
"527 161 CURVE SMOOTH",
"527 167 OFFCURVE",
"523 171 OFFCURVE",
"517 171 CURVE SMOOTH",
"60 171 LINE SMOOTH",
"54 171 OFFCURVE",
"50 167 OFFCURVE",
"50 161 CURVE SMOOTH",
"50 154 OFFCURVE",
"54 150 OFFCURVE",
"60 150 CURVE SMOOTH",
"517 150 LINE SMOOTH"
);
}
);
width = 577;
},
{
associatedMasterId = master01;
layerId = "DF3267B5-916F-4919-BB7F-21E34716FB8E";
name = "Aug 9 20, 14:41";
paths = (
{
closed = 1;
nodes = (
"517 312 OFFCURVE",
"512 307 OFFCURVE",
"506 307 CURVE SMOOTH",
"50 307 LINE SMOOTH",
"45 307 OFFCURVE",
"40 312 OFFCURVE",
"40 318 CURVE SMOOTH",
"40 324 OFFCURVE",
"45 328 OFFCURVE",
"50 328 CURVE SMOOTH",
"506 328 LINE SMOOTH",
"512 328 OFFCURVE",
"517 324 OFFCURVE",
"517 318 CURVE SMOOTH"
);
},
{
closed = 1;
nodes = (
"517 154 OFFCURVE",
"512 150 OFFCURVE",
"506 150 CURVE SMOOTH",
"50 150 LINE SMOOTH",
"45 150 OFFCURVE",
"40 154 OFFCURVE",
"40 160 CURVE SMOOTH",
"40 166 OFFCURVE",
"45 171 OFFCURVE",
"50 171 CURVE SMOOTH",
"506 171 LINE SMOOTH",
"512 171 OFFCURVE",
"517 166 OFFCURVE",
"517 160 CURVE SMOOTH"
);
}
);
width = 557;
}
);
leftKerningGroup = hyphen;
leftMetricsKey = plus;
rightKerningGroup = hyphen;
rightMetricsKey = plus;
unicode = 003D;
},
{
glyphname = greater;
lastChange = "2020-08-14 14:01:13 +0000";
layers = (
{
background = {
paths = (
{
closed = 1;
nodes = (
"441 235 OFFCURVE",
"439 231 OFFCURVE",
"435 229 CURVE SMOOTH",
"74 47 LINE SMOOTH",
"69 44 OFFCURVE",
"63 46 OFFCURVE",
"60 52 CURVE SMOOTH",
"57 57 OFFCURVE",
"59 63 OFFCURVE",
"65 66 CURVE SMOOTH",
"407 239 LINE",
"65 412 LINE SMOOTH",
"59 415 OFFCURVE",
"57 421 OFFCURVE",
"60 426 CURVE SMOOTH",
"63 431 OFFCURVE",
"69 433 OFFCURVE",
"74 431 CURVE SMOOTH",
"435 248 LINE SMOOTH",
"439 246 OFFCURVE",
"441 243 OFFCURVE",
"441 239 CURVE SMOOTH"
);
}
);
};
components = (
{
name = less;
transform = "{-1, 0, 0, -1, 482, 478}";
}
);
layerId = master01;
width = 482;
},
{
associatedMasterId = master01;
layerId = "74D7FEB8-F705-4195-84D1-6A67915A0CAB";
name = "Aug 9 20, 14:42";
paths = (
{
closed = 1;
nodes = (
"441 235 OFFCURVE",
"439 231 OFFCURVE",
"435 229 CURVE SMOOTH",
"74 47 LINE SMOOTH",
"69 44 OFFCURVE",
"63 46 OFFCURVE",
"60 52 CURVE SMOOTH",
"57 57 OFFCURVE",
"59 63 OFFCURVE",
"65 66 CURVE SMOOTH",
"407 239 LINE",
"65 412 LINE SMOOTH",
"59 415 OFFCURVE",
"57 421 OFFCURVE",
"60 426 CURVE SMOOTH",
"63 431 OFFCURVE",
"69 433 OFFCURVE",
"74 431 CURVE SMOOTH",
"435 248 LINE SMOOTH",
"439 246 OFFCURVE",
"441 243 OFFCURVE",
"441 239 CURVE SMOOTH"
);
}
);
width = 471;
}
);
leftMetricsKey = "=|less";
rightMetricsKey = "=|less";
unicode = 003E;
},
{
glyphname = question;
lastChange = "2020-10-10 10:08:24 +0000";
layers = (
{
background = {
paths = (
{
closed = 1;
nodes = (
"245 637 OFFCURVE",
"208 690 OFFCURVE",
"139 690 CURVE SMOOTH",
"85 690 OFFCURVE",
"44 656 OFFCURVE",
"30 610 CURVE SMOOTH",
"28 602 OFFCURVE",
"33 596 OFFCURVE",
"40 596 CURVE SMOOTH",
"45 596 OFFCURVE",
"49 599 OFFCURVE",
"50 603 CURVE SMOOTH",
"62 641 OFFCURVE",
"95 669 OFFCURVE",
"139 669 CURVE SMOOTH",
"198 669 OFFCURVE",
"223 621 OFFCURVE",
"223 570 CURVE SMOOTH",
"223 517 OFFCURVE",
"198 467 OFFCURVE",
"171 425 CURVE SMOOTH",
"137 373 LINE SMOOTH",
"112 335 OFFCURVE",
"96 302 OFFCURVE",
"96 269 CURVE SMOOTH",
"96 243 OFFCURVE",
"106 218 OFFCURVE",
"130 187 CURVE SMOOTH",
"133 183 OFFCURVE",
"136 183 OFFCURVE",
"139 183 CURVE SMOOTH",
"145 183 OFFCURVE",
"150 188 OFFCURVE",
"150 193 CURVE SMOOTH",
"150 196 OFFCURVE",
"149 198 OFFCURVE",
"147 200 CURVE SMOOTH",
"127 224 OFFCURVE",
"118 245 OFFCURVE",
"118 269 CURVE SMOOTH",
"118 295 OFFCURVE",
"130 325 OFFCURVE",
"155 362 CURVE SMOOTH",
"192 418 LINE SMOOTH",
"221 462 OFFCURVE",
"245 513 OFFCURVE",
"245 570 CURVE SMOOTH"
);
},
{
closed = 1;
nodes = (
"141 89 LINE SMOOTH",
"141 95 OFFCURVE",
"137 99 OFFCURVE",
"130 99 CURVE SMOOTH",
"124 99 OFFCURVE",
"120 95 OFFCURVE",
"120 89 CURVE SMOOTH",
"120 10 LINE SMOOTH",
"120 4 OFFCURVE",
"124 0 OFFCURVE",
"130 0 CURVE SMOOTH",
"137 0 OFFCURVE",
"141 4 OFFCURVE",
"141 10 CURVE SMOOTH"
);
}
);
};
components = (
{
name = period;
transform = "{1, 0, 0, 1, 40, 0}";
}
);
guideLines = (
{
position = "{60, 183}";
}
);
layerId = master01;
paths = (
{
closed = 1;
nodes = (
"245 642 OFFCURVE",
"208 695 OFFCURVE",
"139 695 CURVE SMOOTH",
"85 695 OFFCURVE",
"44 661 OFFCURVE",
"30 615 CURVE SMOOTH",
"28 607 OFFCURVE",
"33 601 OFFCURVE",
"40 601 CURVE SMOOTH",
"45 601 OFFCURVE",
"49 604 OFFCURVE",
"50 608 CURVE SMOOTH",
"62 646 OFFCURVE",
"95 674 OFFCURVE",
"139 674 CURVE SMOOTH",
"198 674 OFFCURVE",
"223 626 OFFCURVE",
"223 575 CURVE SMOOTH",
"223 522 OFFCURVE",
"198 472 OFFCURVE",
"171 430 CURVE SMOOTH",
"137 378 LINE SMOOTH",
"112 340 OFFCURVE",
"96 307 OFFCURVE",
"96 274 CURVE SMOOTH",
"96 248 OFFCURVE",
"106 223 OFFCURVE",
"130 192 CURVE SMOOTH",
"133 188 OFFCURVE",
"136 188 OFFCURVE",
"139 188 CURVE SMOOTH",
"145 188 OFFCURVE",
"150 193 OFFCURVE",
"150 198 CURVE SMOOTH",
"150 201 OFFCURVE",
"149 203 OFFCURVE",
"147 205 CURVE SMOOTH",
"127 229 OFFCURVE",
"118 250 OFFCURVE",
"118 274 CURVE SMOOTH",
"118 300 OFFCURVE",
"130 330 OFFCURVE",
"155 367 CURVE SMOOTH",
"192 423 LINE SMOOTH",
"221 467 OFFCURVE",
"245 518 OFFCURVE",
"245 575 CURVE SMOOTH"
);
}
);
width = 300;
},
{
associatedMasterId = master01;
layerId = "278DA75A-2632-4947-91B6-D835B2FE12A7";
name = "Aug 9 20, 14:42";
paths = (
{
closed = 1;
nodes = (
"254 490 OFFCURVE",
"203 420 OFFCURVE",
"165 362 CURVE SMOOTH",
"119 290 OFFCURVE",
"117 249 OFFCURVE",
"157 201 CURVE SMOOTH",
"161 197 OFFCURVE",
"160 190 OFFCURVE",
"156 187 CURVE SMOOTH",
"152 183 OFFCURVE",
"145 183 OFFCURVE",
"141 188 CURVE SMOOTH",
"87 251 OFFCURVE",
"103 305 OFFCURVE",
"148 373 CURVE",
"181 426 OFFCURVE",
"233 496 OFFCURVE",
"233 565 CURVE SMOOTH",
"233 598 OFFCURVE",
"222 628 OFFCURVE",
"203 647 CURVE SMOOTH",
"189 661 OFFCURVE",
"170 669 OFFCURVE",
"149 669 CURVE SMOOTH",
"110 669 OFFCURVE",
"71 641 OFFCURVE",
"60 603 CURVE SMOOTH",
"58 598 OFFCURVE",
"53 595 OFFCURVE",
"47 596 CURVE SMOOTH",
"41 598 OFFCURVE",
"38 604 OFFCURVE",
"40 610 CURVE SMOOTH",
"54 656 OFFCURVE",
"100 690 OFFCURVE",
"149 690 CURVE SMOOTH",
"176 690 OFFCURVE",
"199 680 OFFCURVE",
"218 662 CURVE SMOOTH",
"241 639 OFFCURVE",
"254 604 OFFCURVE",
"254 565 CURVE SMOOTH"
);
},
{
closed = 1;
nodes = (
"151 5 OFFCURVE",
"146 0 OFFCURVE",
"141 0 CURVE SMOOTH",
"135 0 OFFCURVE",
"130 5 OFFCURVE",
"130 10 CURVE SMOOTH",
"130 91 LINE SMOOTH",
"130 97 OFFCURVE",
"135 101 OFFCURVE",
"141 101 CURVE SMOOTH",
"146 101 OFFCURVE",
"151 97 OFFCURVE",
"151 91 CURVE SMOOTH",
"151 10 LINE SMOOTH"
);
}
);
width = 294;
}
);
leftKerningGroup = question;
rightKerningGroup = question;
unicode = 003F;
},
{
glyphname = at;
lastChange = "2020-10-02 15:10:59 +0000";
layers = (
{
background = {
paths = (
{
closed = 1;
nodes = (
"357 117 OFFCURVE",
"399 158 OFFCURVE",
"399 235 CURVE SMOOTH",
"399 310 OFFCURVE",
"361 385 OFFCURVE",
"322 385 CURVE SMOOTH",
"305 385 OFFCURVE",
"294 373 OFFCURVE",
"294 346 CURVE SMOOTH",
"294 258 OFFCURVE",
"401 112 OFFCURVE",
"469 112 CURVE SMOOTH",
"504 112 OFFCURVE",
"524 145 OFFCURVE",
"524 203 CURVE SMOOTH",
"524 364 OFFCURVE",
"398 602 OFFCURVE",
"310 602 CURVE SMOOTH",
"265 602 OFFCURVE",
"245 542 OFFCURVE",
"263 452 CURVE SMOOTH",
"264 447 OFFCURVE",
"268 444 OFFCURVE",
"274 444 CURVE SMOOTH",
"282 444 OFFCURVE",
"285 450 OFFCURVE",
"284 457 CURVE SMOOTH",
"269 531 OFFCURVE",
"280 581 OFFCURVE",
"312 581 CURVE SMOOTH",
"384 581 OFFCURVE",
"503 344 OFFCURVE",
"503 202 CURVE SMOOTH",
"503 156 OFFCURVE",
"491 133 OFFCURVE",
"467 133 CURVE SMOOTH",
"413 133 OFFCURVE",
"315 271 OFFCURVE",
"315 348 CURVE SMOOTH",
"315 358 OFFCURVE",
"317 364 OFFCURVE",
"325 364 CURVE SMOOTH",
"349 364 OFFCURVE",
"378 295 OFFCURVE",
"378 236 CURVE SMOOTH",
"378 172 OFFCURVE",
"343 138 OFFCURVE",
"276 138 CURVE SMOOTH",
"161 138 OFFCURVE",
"61 245 OFFCURVE",
"61 387 CURVE SMOOTH",
"61 550 OFFCURVE",
"186 669 OFFCURVE",
"347 669 CURVE SMOOTH",
"534 669 OFFCURVE",
"686 548 OFFCURVE",
"686 344 CURVE SMOOTH",
"686 143 OFFCURVE",
"534 21 OFFCURVE",
"342 21 CURVE SMOOTH",
"252 21 OFFCURVE",
"176 49 OFFCURVE",
"115 104 CURVE SMOOTH",
"113 106 OFFCURVE",
"111 107 OFFCURVE",
"108 107 CURVE SMOOTH",
"99 107 OFFCURVE",
"93 96 OFFCURVE",
"101 88 CURVE SMOOTH",
"167 30 OFFCURVE",
"248 0 OFFCURVE",
"342 0 CURVE SMOOTH",
"546 0 OFFCURVE",
"708 130 OFFCURVE",
"708 344 CURVE SMOOTH",
"708 560 OFFCURVE",
"546 690 OFFCURVE",
"347 690 CURVE SMOOTH",
"172 690 OFFCURVE",
"40 560 OFFCURVE",
"40 388 CURVE SMOOTH",
"40 234 OFFCURVE",
"150 117 OFFCURVE",
"278 117 CURVE SMOOTH"
);
}
);
};
layerId = master01;
paths = (
{
closed = 1;
nodes = (
"598 117 OFFCURVE",
"708 234 OFFCURVE",
"708 388 CURVE SMOOTH",
"708 560 OFFCURVE",
"566 690 OFFCURVE",
"391 690 CURVE SMOOTH",
"193 690 OFFCURVE",
"40 559 OFFCURVE",
"40 344 CURVE SMOOTH",
"40 131 OFFCURVE",
"193 0 OFFCURVE",
"396 0 CURVE SMOOTH",
"490 0 OFFCURVE",
"581 30 OFFCURVE",
"647 88 CURVE SMOOTH",
"655 96 OFFCURVE",
"649 107 OFFCURVE",
"640 107 CURVE SMOOTH",
"637 107 OFFCURVE",
"635 106 OFFCURVE",
"633 104 CURVE SMOOTH",
"572 49 OFFCURVE",
"486 21 OFFCURVE",
"396 21 CURVE SMOOTH",
"204 21 OFFCURVE",
"62 143 OFFCURVE",
"62 344 CURVE SMOOTH",
"62 548 OFFCURVE",
"204 669 OFFCURVE",
"391 669 CURVE SMOOTH",
"552 669 OFFCURVE",
"687 550 OFFCURVE",
"687 387 CURVE SMOOTH",
"687 245 OFFCURVE",
"587 138 OFFCURVE",
"472 138 CURVE SMOOTH",
"405 138 OFFCURVE",
"370 172 OFFCURVE",
"370 236 CURVE SMOOTH",
"370 295 OFFCURVE",
"399 364 OFFCURVE",
"423 364 CURVE SMOOTH",
"431 364 OFFCURVE",
"433 358 OFFCURVE",
"433 348 CURVE SMOOTH",
"433 271 OFFCURVE",
"335 133 OFFCURVE",
"281 133 CURVE SMOOTH",
"257 133 OFFCURVE",
"245 156 OFFCURVE",
"245 202 CURVE SMOOTH",
"245 344 OFFCURVE",
"364 581 OFFCURVE",
"436 581 CURVE SMOOTH",
"468 581 OFFCURVE",
"479 531 OFFCURVE",
"464 457 CURVE SMOOTH",
"463 450 OFFCURVE",
"466 444 OFFCURVE",
"474 444 CURVE SMOOTH",
"480 444 OFFCURVE",
"484 447 OFFCURVE",
"485 452 CURVE SMOOTH",
"503 542 OFFCURVE",
"483 602 OFFCURVE",
"438 602 CURVE SMOOTH",
"350 602 OFFCURVE",
"224 364 OFFCURVE",
"224 203 CURVE SMOOTH",
"224 145 OFFCURVE",
"244 112 OFFCURVE",
"279 112 CURVE SMOOTH",
"347 112 OFFCURVE",
"454 258 OFFCURVE",
"454 346 CURVE SMOOTH",
"454 373 OFFCURVE",
"443 385 OFFCURVE",
"426 385 CURVE SMOOTH",
"387 385 OFFCURVE",
"349 310 OFFCURVE",
"349 235 CURVE SMOOTH",
"349 158 OFFCURVE",
"391 117 OFFCURVE",
"470 117 CURVE SMOOTH"
);
}
);
width = 748;
},
{
associatedMasterId = master01;
layerId = "071B164D-4E94-4473-B88E-937DB8927E1E";
name = "Aug 9 20, 14:46";
paths = (
{
closed = 1;
nodes = (
"652 147 OFFCURVE",
"531 91 OFFCURVE",
"432 112 CURVE SMOOTH",
"407 118 OFFCURVE",
"387 131 OFFCURVE",
"373 152 CURVE",
"339 111 OFFCURVE",
"302 94 OFFCURVE",
"268 106 CURVE",
"256 109 OFFCURVE",
"247 118 OFFCURVE",
"240 132 CURVE SMOOTH",
"218 179 OFFCURVE",
"231 280 OFFCURVE",
"272 384 CURVE SMOOTH",
"327 523 OFFCURVE",
"403 608 OFFCURVE",
"457 590 CURVE SMOOTH",
"494 578 OFFCURVE",
"506 521 OFFCURVE",
"490 442 CURVE",
"488 437 OFFCURVE",
"483 433 OFFCURVE",
"477 434 CURVE SMOOTH",
"472 435 OFFCURVE",
"468 441 OFFCURVE",
"469 447 CURVE SMOOTH",
"485 522 OFFCURVE",
"471 563 OFFCURVE",
"450 570 CURVE SMOOTH",
"414 582 OFFCURVE",
"345 513 OFFCURVE",
"291 376 CURVE SMOOTH",
"253 279 OFFCURVE",
"240 182 OFFCURVE",
"259 141 CURVE SMOOTH",
"263 133 OFFCURVE",
"268 128 OFFCURVE",
"274 125 CURVE",
"297 118 OFFCURVE",
"329 129 OFFCURVE",
"363 172 CURVE",
"349 206 OFFCURVE",
"350 251 OFFCURVE",
"367 300 CURVE SMOOTH",
"386 358 OFFCURVE",
"410 382 OFFCURVE",
"438 373 CURVE SMOOTH",
"446 371 OFFCURVE",
"452 366 OFFCURVE",
"455 358 CURVE SMOOTH",
"466 335 OFFCURVE",
"452 294 OFFCURVE",
"443 272 CURVE SMOOTH",
"425 230 OFFCURVE",
"407 196 OFFCURVE",
"387 169 CURVE",
"388 168 LINE",
"398 149 OFFCURVE",
"415 137 OFFCURVE",
"437 133 CURVE",
"526 113 OFFCURVE",
"635 166 OFFCURVE",
"674 303 CURVE SMOOTH",
"699 393 OFFCURVE",
"683 486 OFFCURVE",
"631 557 CURVE SMOOTH",
"580 626 OFFCURVE",
"502 666 OFFCURVE",
"411 669 CURVE SMOOTH",
"316 672 OFFCURVE",
"228 638 OFFCURVE",
"162 574 CURVE SMOOTH",
"97 511 OFFCURVE",
"61 426 OFFCURVE",
"61 334 CURVE SMOOTH",
"61 248 OFFCURVE",
"90 172 OFFCURVE",
"146 116 CURVE SMOOTH",
"209 54 OFFCURVE",
"298 21 OFFCURVE",
"405 21 CURVE SMOOTH",
"486 21 OFFCURVE",
"575 53 OFFCURVE",
"632 104 CURVE SMOOTH",
"636 108 OFFCURVE",
"643 107 OFFCURVE",
"647 103 CURVE SMOOTH",
"651 99 OFFCURVE",
"650 92 OFFCURVE",
"646 88 CURVE SMOOTH",
"585 34 OFFCURVE",
"491 0 OFFCURVE",
"405 0 CURVE SMOOTH",
"292 0 OFFCURVE",
"198 35 OFFCURVE",
"131 101 CURVE SMOOTH",
"72 161 OFFCURVE",
"40 242 OFFCURVE",
"40 334 CURVE SMOOTH",
"40 432 OFFCURVE",
"78 522 OFFCURVE",
"147 589 CURVE SMOOTH",
"217 657 OFFCURVE",
"311 693 OFFCURVE",
"412 690 CURVE SMOOTH",
"509 687 OFFCURVE",
"593 644 OFFCURVE",
"648 569 CURVE SMOOTH",
"704 493 OFFCURVE",
"721 394 OFFCURVE",
"694 298 CURVE SMOOTH"
);
},
{
closed = 1;
nodes = (
"435 352 OFFCURVE",
"433 353 OFFCURVE",
"432 353 CURVE",
"417 358 OFFCURVE",
"401 336 OFFCURVE",
"387 294 CURVE SMOOTH",
"374 256 OFFCURVE",
"371 221 OFFCURVE",
"378 193 CURVE",
"393 215 OFFCURVE",
"408 244 OFFCURVE",
"423 280 CURVE SMOOTH",
"436 311 OFFCURVE",
"441 338 OFFCURVE",
"436 349 CURVE SMOOTH"
);
}
);
width = 747;
}
);
leftKerningGroup = O;
leftMetricsKey = O;
rightKerningGroup = O;
rightMetricsKey = O;
unicode = 0040;
},
{
glyphname = A;
lastChange = "2020-10-10 10:29:59 +0000";
layers = (
{
anchors = (
{
name = bottom;
position = "{207, 0}";
},
{
name = ogonek;
position = "{373, 10}";
},
{
name = top;
position = "{207, 690}";
}
);
background = {
paths = (
{
closed = 1;
nodes = (
"396 0 OFFCURVE",
"400 7 OFFCURVE",
"398 13 CURVE SMOOTH",
"218 682 LINE SMOOTH",
"217 687 OFFCURVE",
"213 690 OFFCURVE",
"208 690 CURVE SMOOTH",
"202 690 OFFCURVE",
"198 687 OFFCURVE",
"197 682 CURVE SMOOTH",
"16 13 LINE",
"15 7 OFFCURVE",
"18 2 OFFCURVE",
"23 0 CURVE SMOOTH",
"29 -1 OFFCURVE",
"34 2 OFFCURVE",
"36 8 CURVE SMOOTH",
"216 673 LINE",
"199 673 LINE",
"378 8 LINE SMOOTH",
"379 3 OFFCURVE",
"383 0 OFFCURVE",
"388 0 CURVE SMOOTH"
);
},
{
closed = 1;
nodes = (
"322 269 LINE",
"317 290 LINE",
"98 290 LINE",
"92 269 LINE"
);
}
);
};
layerId = master01;
paths = (
{
closed = 1;
nodes = (
"31 0 OFFCURVE",
"35 3 OFFCURVE",
"36 8 CURVE SMOOTH",
"215 673 LINE",
"198 673 LINE",
"378 8 LINE SMOOTH",
"379 3 OFFCURVE",
"383 0 OFFCURVE",
"388 0 CURVE SMOOTH",
"396 0 OFFCURVE",
"400 7 OFFCURVE",
"398 13 CURVE SMOOTH",
"217 682 LINE SMOOTH",
"216 687 OFFCURVE",
"212 690 OFFCURVE",
"206 690 CURVE SMOOTH",
"201 690 OFFCURVE",
"197 687 OFFCURVE",
"196 682 CURVE SMOOTH",
"16 13 LINE SMOOTH",
"14 7 OFFCURVE",
"18 0 OFFCURVE",
"26 0 CURVE SMOOTH"
);
},
{
closed = 1;
nodes = (
"316 290 LINE",
"97 290 LINE",
"92 269 LINE",
"322 269 LINE"
);
}
);
width = 414;
},
{
associatedMasterId = master01;
background = {
paths = (
{
closed = 1;
nodes = (
"403 7 OFFCURVE",
"400 2 OFFCURVE",
"395 0 CURVE SMOOTH",
"389 -1 OFFCURVE",
"383 2 OFFCURVE",
"382 8 CURVE SMOOTH",
"311 269 LINE",
"111 269 LINE",
"40 8 LINE SMOOTH",
"39 2 OFFCURVE",
"33 -1 OFFCURVE",
"27 0 CURVE SMOOTH",
"22 2 OFFCURVE",
"18 7 OFFCURVE",
"20 13 CURVE SMOOTH",
"22 19 OFFCURVE",
"182 614 OFFCURVE",
"200 682 CURVE SMOOTH",
"201 687 OFFCURVE",
"206 690 OFFCURVE",
"210 690 CURVE SMOOTH",
"215 690 OFFCURVE",
"219 687 OFFCURVE",
"221 682 CURVE",
"238 615 OFFCURVE",
"400 19 OFFCURVE",
"402 13 CURVE SMOOTH"
);
},
{
closed = 1;
nodes = (
"269 423 OFFCURVE",
"229 568 OFFCURVE",
"210 639 CURVE",
"116 290 LINE",
"305 290 LINE"
);
}
);
};
layerId = "CF3399B9-515D-4307-B906-F33EB497E4E3";
name = "Aug 7 20, 14:10";
paths = (
{
closed = 1;
nodes = (
"403 7 OFFCURVE",
"400 2 OFFCURVE",
"395 0 CURVE SMOOTH",
"389 -1 OFFCURVE",
"383 2 OFFCURVE",
"382 8 CURVE SMOOTH",
"311 269 LINE",
"111 269 LINE",
"40 8 LINE SMOOTH",
"39 2 OFFCURVE",
"33 -1 OFFCURVE",
"27 0 CURVE SMOOTH",
"22 2 OFFCURVE",
"18 7 OFFCURVE",
"20 13 CURVE SMOOTH",
"22 19 OFFCURVE",
"182 614 OFFCURVE",
"200 682 CURVE SMOOTH",
"201 687 OFFCURVE",
"206 690 OFFCURVE",
"210 690 CURVE SMOOTH",
"215 690 OFFCURVE",
"219 687 OFFCURVE",
"221 682 CURVE",
"238 615 OFFCURVE",
"400 19 OFFCURVE",
"402 13 CURVE SMOOTH"
);
},
{
closed = 1;
nodes = (
"269 423 OFFCURVE",
"229 568 OFFCURVE",
"210 639 CURVE",
"116 290 LINE",
"305 290 LINE"
);
}
);
width = 422;
}
);
leftKerningGroup = A;
rightKerningGroup = A;
rightMetricsKey = "=|";
unicode = 0041;
},
{
glyphname = B;
lastChange = "2020-10-10 10:02:01 +0000";
layers = (
{
anchors = (
{
name = bottom;
position = "{188, 0}";
},
{
name = top;
position = "{188, 690}";
}
);
background = {
paths = (
{
closed = 1;
nodes = (
"294 30 OFFCURVE",
"258 0 OFFCURVE",
"214 0 CURVE SMOOTH",
"70 0 LINE",
"68 0 OFFCURVE",
"65 1 OFFCURVE",
"63 3 CURVE SMOOTH",
"61 5 OFFCURVE",
"60 7 OFFCURVE",
"60 10 CURVE SMOOTH",
"60 679 LINE SMOOTH",
"60 685 OFFCURVE",
"65 690 OFFCURVE",
"70 690 CURVE SMOOTH",
"177 690 LINE SMOOTH",
"184 690 OFFCURVE",
"192 688 OFFCURVE",
"199 686 CURVE SMOOTH",
"234 674 OFFCURVE",
"269 630 OFFCURVE",
"294 565 CURVE SMOOTH",
"314 511 OFFCURVE",
"326 425 OFFCURVE",
"300 368 CURVE SMOOTH",
"296 359 OFFCURVE",
"290 351 OFFCURVE",
"284 342 CURVE",
"335 272 OFFCURVE",
"343 167 OFFCURVE",
"314 87 CURVE SMOOTH"
);
},
{
closed = 1;
nodes = (
"252 349 OFFCURVE",
"250 351 OFFCURVE",
"248 352 CURVE SMOOTH",
"218 378 OFFCURVE",
"179 392 OFFCURVE",
"155 395 CURVE SMOOTH",
"131 398 OFFCURVE",
"128 387 OFFCURVE",
"150 370 CURVE SMOOTH",
"176 351 OFFCURVE",
"220 333 OFFCURVE",
"246 342 CURVE SMOOTH",
"249 343 OFFCURVE",
"251 346 OFFCURVE",
"253 347 CURVE"
);
},
{
closed = 1;
nodes = (
"321 169 OFFCURVE",
"315 265 OFFCURVE",
"268 329 CURVE",
"263 326 OFFCURVE",
"258 324 OFFCURVE",
"253 322 CURVE SMOOTH",
"219 311 OFFCURVE",
"168 329 OFFCURVE",
"138 354 CURVE SMOOTH",
"126 363 OFFCURVE",
"112 376 OFFCURVE",
"112 391 CURVE",
"113 401 OFFCURVE",
"118 410 OFFCURVE",
"128 414 CURVE SMOOTH",
"156 427 OFFCURVE",
"221 403 OFFCURVE",
"262 368 CURVE SMOOTH",
"265 366 OFFCURVE",
"267 363 OFFCURVE",
"270 360 CURVE",
"274 365 OFFCURVE",
"278 371 OFFCURVE",
"281 377 CURVE SMOOTH",
"304 428 OFFCURVE",
"293 508 OFFCURVE",
"274 557 CURVE SMOOTH",
"252 615 OFFCURVE",
"221 654 OFFCURVE",
"192 666 CURVE SMOOTH",
"187 668 OFFCURVE",
"182 669 OFFCURVE",
"177 669 CURVE SMOOTH",
"81 669 LINE",
"81 21 LINE",
"214 21 LINE SMOOTH",
"261 21 OFFCURVE",
"284 67 OFFCURVE",
"294 96 CURVE SMOOTH"
);
}
);
};
components = (
{
name = _v_stem_UC;
}
);
layerId = master01;
paths = (
{
closed = 1;
nodes = (
"155 0 LINE SMOOTH",
"260 0 OFFCURVE",
"325 77 OFFCURVE",
"325 200 CURVE SMOOTH",
"325 323 OFFCURVE",
"257 414 OFFCURVE",
"159 414 CURVE SMOOTH",
"131 414 OFFCURVE",
"114 404 OFFCURVE",
"114 386 CURVE SMOOTH",
"114 354 OFFCURVE",
"155 322 OFFCURVE",
"209 322 CURVE SMOOTH",
"279 322 OFFCURVE",
"314 377 OFFCURVE",
"314 478 CURVE SMOOTH",
"314 615 OFFCURVE",
"262 690 OFFCURVE",
"167 690 CURVE SMOOTH",
"70 690 LINE",
"70 669 LINE",
"167 669 LINE SMOOTH",
"249 669 OFFCURVE",
"292 603 OFFCURVE",
"292 478 CURVE SMOOTH",
"292 389 OFFCURVE",
"265 342 OFFCURVE",
"209 342 CURVE SMOOTH",
"169 342 OFFCURVE",
"135 366 OFFCURVE",
"135 382 CURVE SMOOTH",
"135 390 OFFCURVE",
"143 394 OFFCURVE",
"160 394 CURVE SMOOTH",
"241 394 OFFCURVE",
"303 312 OFFCURVE",
"303 200 CURVE SMOOTH",
"303 88 OFFCURVE",
"247 21 OFFCURVE",
"155 21 CURVE SMOOTH",
"70 21 LINE",
"70 0 LINE"
);
}
);
width = 375;
},
{
associatedMasterId = master01;
background = {
paths = (
{
closed = 1;
nodes = (
"294 41 OFFCURVE",
"258 11 OFFCURVE",
"214 11 CURVE SMOOTH",
"70 11 LINE",
"68 11 OFFCURVE",
"65 12 OFFCURVE",
"63 14 CURVE SMOOTH",
"61 16 OFFCURVE",
"60 18 OFFCURVE",
"60 21 CURVE SMOOTH",
"60 668 LINE SMOOTH",
"60 674 OFFCURVE",
"65 679 OFFCURVE",
"70 679 CURVE SMOOTH",
"177 679 LINE SMOOTH",
"184 679 OFFCURVE",
"192 677 OFFCURVE",
"199 675 CURVE SMOOTH",
"234 663 OFFCURVE",
"269 621 OFFCURVE",
"294 558 CURVE SMOOTH",
"314 506 OFFCURVE",
"326 422 OFFCURVE",
"300 367 CURVE SMOOTH",
"296 358 OFFCURVE",
"290 350 OFFCURVE",
"284 343 CURVE",
"335 275 OFFCURVE",
"343 172 OFFCURVE",
"314 96 CURVE SMOOTH"
);
},
{
closed = 1;
nodes = (
"252 348 OFFCURVE",
"250 350 OFFCURVE",
"248 351 CURVE SMOOTH",
"218 377 OFFCURVE",
"179 391 OFFCURVE",
"155 394 CURVE SMOOTH",
"131 397 OFFCURVE",
"128 386 OFFCURVE",
"150 369 CURVE SMOOTH",
"176 350 OFFCURVE",
"220 334 OFFCURVE",
"246 343 CURVE SMOOTH",
"249 344 OFFCURVE",
"251 345 OFFCURVE",
"253 346 CURVE"
);
},
{
closed = 1;
nodes = (
"321 174 OFFCURVE",
"315 268 OFFCURVE",
"268 330 CURVE",
"263 327 OFFCURVE",
"258 325 OFFCURVE",
"253 323 CURVE SMOOTH",
"219 312 OFFCURVE",
"168 330 OFFCURVE",
"138 353 CURVE SMOOTH",
"126 362 OFFCURVE",
"112 375 OFFCURVE",
"112 390 CURVE",
"113 400 OFFCURVE",
"118 407 OFFCURVE",
"128 411 CURVE SMOOTH",
"156 424 OFFCURVE",
"221 402 OFFCURVE",
"262 367 CURVE SMOOTH",
"265 365 OFFCURVE",
"267 362 OFFCURVE",
"270 359 CURVE",
"274 364 OFFCURVE",
"278 370 OFFCURVE",
"281 376 CURVE SMOOTH",
"304 425 OFFCURVE",
"293 503 OFFCURVE",
"274 550 CURVE SMOOTH",
"252 606 OFFCURVE",
"221 645 OFFCURVE",
"192 655 CURVE SMOOTH",
"187 657 OFFCURVE",
"182 658 OFFCURVE",
"177 658 CURVE SMOOTH",
"81 658 LINE",
"81 32 LINE",
"214 32 LINE SMOOTH",
"261 32 OFFCURVE",
"284 76 OFFCURVE",
"294 103 CURVE SMOOTH"
);
}
);
};
layerId = "1C593CC1-5901-48D9-AB24-07B8AD9FBCC4";
name = "Aug 7 20, 14:36";
paths = (
{
closed = 1;
nodes = (
"294 41 OFFCURVE",
"258 11 OFFCURVE",
"214 11 CURVE SMOOTH",
"70 11 LINE",
"68 11 OFFCURVE",
"65 12 OFFCURVE",
"63 14 CURVE SMOOTH",
"61 16 OFFCURVE",
"60 18 OFFCURVE",
"60 21 CURVE SMOOTH",
"60 668 LINE SMOOTH",
"60 674 OFFCURVE",
"65 679 OFFCURVE",
"70 679 CURVE SMOOTH",
"177 679 LINE SMOOTH",
"184 679 OFFCURVE",
"192 677 OFFCURVE",
"199 675 CURVE SMOOTH",
"234 663 OFFCURVE",
"269 621 OFFCURVE",
"294 558 CURVE SMOOTH",
"314 506 OFFCURVE",
"326 422 OFFCURVE",
"300 367 CURVE SMOOTH",
"296 358 OFFCURVE",
"290 350 OFFCURVE",
"284 343 CURVE",
"335 275 OFFCURVE",
"343 172 OFFCURVE",
"314 96 CURVE SMOOTH"
);
},
{
closed = 1;
nodes = (
"252 348 OFFCURVE",
"250 350 OFFCURVE",
"248 351 CURVE SMOOTH",
"218 377 OFFCURVE",
"179 391 OFFCURVE",
"155 394 CURVE SMOOTH",
"131 397 OFFCURVE",
"128 386 OFFCURVE",
"150 369 CURVE SMOOTH",
"176 350 OFFCURVE",
"220 334 OFFCURVE",
"246 343 CURVE SMOOTH",
"249 344 OFFCURVE",
"251 345 OFFCURVE",
"253 346 CURVE"
);
},
{
closed = 1;
nodes = (
"321 174 OFFCURVE",
"315 268 OFFCURVE",
"268 330 CURVE",
"263 327 OFFCURVE",
"258 325 OFFCURVE",
"253 323 CURVE SMOOTH",
"219 312 OFFCURVE",
"168 330 OFFCURVE",
"138 353 CURVE SMOOTH",
"126 362 OFFCURVE",
"112 375 OFFCURVE",
"112 390 CURVE",
"113 400 OFFCURVE",
"118 407 OFFCURVE",
"128 411 CURVE SMOOTH",
"156 424 OFFCURVE",
"221 402 OFFCURVE",
"262 367 CURVE SMOOTH",
"265 365 OFFCURVE",
"267 362 OFFCURVE",
"270 359 CURVE",
"274 364 OFFCURVE",
"278 370 OFFCURVE",
"281 376 CURVE SMOOTH",
"304 425 OFFCURVE",
"293 503 OFFCURVE",
"274 550 CURVE SMOOTH",
"252 606 OFFCURVE",
"221 645 OFFCURVE",
"192 655 CURVE SMOOTH",
"187 657 OFFCURVE",
"182 658 OFFCURVE",
"177 658 CURVE SMOOTH",
"81 658 LINE",
"81 32 LINE",
"214 32 LINE SMOOTH",
"261 32 OFFCURVE",
"284 76 OFFCURVE",
"294 103 CURVE SMOOTH"
);
}
);
width = 371;
}
);
leftKerningGroup = H;
leftMetricsKey = H;
rightKerningGroup = B;
unicode = 0042;
},
{
glyphname = C;
lastChange = "2020-10-10 10:45:49 +0000";
layers = (
{
anchors = (
{
name = bottom;
position = "{213, 0}";
},
{
name = top;
position = "{213, 690}";
}
);
background = {
paths = (
{
closed = 1;
nodes = (
"338 40 OFFCURVE",
"324 56 OFFCURVE",
"313 47 CURVE SMOOTH",
"288 26 OFFCURVE",
"256 16 OFFCURVE",
"225 16 CURVE SMOOTH",
"121 16 OFFCURVE",
"62 136 OFFCURVE",
"62 345 CURVE SMOOTH",
"62 554 OFFCURVE",
"121 674 OFFCURVE",
"226 674 CURVE SMOOTH",
"256 674 OFFCURVE",
"288 664 OFFCURVE",
"313 643 CURVE",
"327 659 LINE",
"299 683 OFFCURVE",
"262 695 OFFCURVE",
"226 695 CURVE SMOOTH",
"106 695 OFFCURVE",
"40 569 OFFCURVE",
"40 345 CURVE SMOOTH",
"40 121 OFFCURVE",
"106 -5 OFFCURVE",
"225 -5 CURVE SMOOTH",
"262 -5 OFFCURVE",
"299 7 OFFCURVE",
"327 31 CURVE SMOOTH"
);
}
);
};
layerId = master01;
paths = (
{
closed = 1;
nodes = (
"62 554 OFFCURVE",
"121 674 OFFCURVE",
"225 674 CURVE SMOOTH",
"256 674 OFFCURVE",
"288 664 OFFCURVE",
"313 643 CURVE SMOOTH",
"315 641 OFFCURVE",
"318 640 OFFCURVE",
"320 640 CURVE SMOOTH",
"326 640 OFFCURVE",
"331 645 OFFCURVE",
"331 651 CURVE SMOOTH",
"331 654 OFFCURVE",
"330 657 OFFCURVE",
"327 659 CURVE SMOOTH",
"299 683 OFFCURVE",
"262 695 OFFCURVE",
"225 695 CURVE SMOOTH",
"106 695 OFFCURVE",
"40 569 OFFCURVE",
"40 344 CURVE SMOOTH",
"40 121 OFFCURVE",
"106 -5 OFFCURVE",
"225 -5 CURVE SMOOTH",
"262 -5 OFFCURVE",
"299 7 OFFCURVE",
"327 31 CURVE SMOOTH",
"330 33 OFFCURVE",
"331 36 OFFCURVE",
"331 39 CURVE SMOOTH",
"331 45 OFFCURVE",
"326 50 OFFCURVE",
"320 50 CURVE SMOOTH",
"318 50 OFFCURVE",
"315 49 OFFCURVE",
"313 47 CURVE SMOOTH",
"288 26 OFFCURVE",
"256 16 OFFCURVE",
"225 16 CURVE SMOOTH",
"121 16 OFFCURVE",
"62 136 OFFCURVE",
"62 344 CURVE SMOOTH"
);
}
);
width = 366;
},
{
associatedMasterId = master01;
layerId = "B65560DC-D541-4317-AB42-06E1601F926B";
name = "Aug 7 20, 16:18";
paths = (
{
closed = 1;
nodes = (
"323 641 OFFCURVE",
"317 639 OFFCURVE",
"312 642 CURVE SMOOTH",
"284 659 OFFCURVE",
"250 669 OFFCURVE",
"221 669 CURVE SMOOTH",
"190 669 OFFCURVE",
"162 657 OFFCURVE",
"139 634 CURVE SMOOTH",
"89 583 OFFCURVE",
"61 481 OFFCURVE",
"61 345 CURVE SMOOTH",
"61 209 OFFCURVE",
"89 106 OFFCURVE",
"139 56 CURVE SMOOTH",
"162 33 OFFCURVE",
"190 21 OFFCURVE",
"221 21 CURVE SMOOTH",
"250 21 OFFCURVE",
"284 31 OFFCURVE",
"312 47 CURVE SMOOTH",
"317 50 OFFCURVE",
"323 49 OFFCURVE",
"326 44 CURVE SMOOTH",
"329 39 OFFCURVE",
"327 32 OFFCURVE",
"323 29 CURVE SMOOTH",
"292 11 OFFCURVE",
"254 0 OFFCURVE",
"221 0 CURVE SMOOTH",
"184 0 OFFCURVE",
"152 14 OFFCURVE",
"124 41 CURVE SMOOTH",
"69 96 OFFCURVE",
"40 201 OFFCURVE",
"40 345 CURVE SMOOTH",
"40 561 OFFCURVE",
"108 690 OFFCURVE",
"221 690 CURVE SMOOTH",
"254 690 OFFCURVE",
"292 679 OFFCURVE",
"323 660 CURVE SMOOTH",
"328 657 OFFCURVE",
"329 650 OFFCURVE",
"326 646 CURVE SMOOTH"
);
}
);
width = 356;
}
);
leftKerningGroup = O;
leftMetricsKey = O;
rightKerningGroup = C;
unicode = 0043;
},
{
glyphname = D;
lastChange = "2020-10-02 15:10:59 +0000";
layers = (
{
anchors = (
{
name = bottom;
position = "{198, 0}";
},
{
name = center;
position = "{198, 345}";
},
{
name = top;
position = "{198, 690}";
}
);
background = {
paths = (
{
closed = 1;
nodes = (
"356 207 OFFCURVE",
"328 104 OFFCURVE",
"275 51 CURVE SMOOTH",
"249 24 OFFCURVE",
"218 11 OFFCURVE",
"182 11 CURVE SMOOTH",
"70 11 LINE SMOOTH",
"65 11 OFFCURVE",
"60 16 OFFCURVE",
"60 21 CURVE SMOOTH",
"60 668 LINE SMOOTH",
"60 674 OFFCURVE",
"65 679 OFFCURVE",
"70 679 CURVE SMOOTH",
"182 679 LINE SMOOTH",
"218 679 OFFCURVE",
"249 665 OFFCURVE",
"275 639 CURVE SMOOTH",
"328 586 OFFCURVE",
"356 482 OFFCURVE",
"356 344 CURVE SMOOTH"
);
},
{
closed = 1;
nodes = (
"335 474 OFFCURVE",
"309 576 OFFCURVE",
"261 624 CURVE SMOOTH",
"238 646 OFFCURVE",
"212 658 OFFCURVE",
"182 658 CURVE SMOOTH",
"81 658 LINE",
"81 32 LINE",
"182 32 LINE SMOOTH",
"278 32 OFFCURVE",
"335 151 OFFCURVE",
"335 344 CURVE SMOOTH"
);
}
);
};
components = (
{
name = _v_stem_UC;
}
);
layerId = master01;
paths = (
{
closed = 1;
nodes = (
"285 669 OFFCURVE",
"334 551 OFFCURVE",
"334 345 CURVE SMOOTH",
"334 139 OFFCURVE",
"285 21 OFFCURVE",
"183 21 CURVE",
"183 0 LINE",
"300 0 OFFCURVE",
"356 124 OFFCURVE",
"356 345 CURVE SMOOTH",
"356 566 OFFCURVE",
"300 690 OFFCURVE",
"183 690 CURVE",
"183 669 LINE"
);
},
{
closed = 1;
nodes = (
"183 21 LINE",
"70 21 LINE",
"70 0 LINE",
"183 0 LINE"
);
},
{
closed = 1;
nodes = (
"183 690 LINE",
"70 690 LINE",
"70 669 LINE",
"183 669 LINE"
);
}
);
width = 396;
},
{
associatedMasterId = master01;
background = {
paths = (
{
closed = 1;
nodes = (
"356 207 OFFCURVE",
"328 104 OFFCURVE",
"275 51 CURVE SMOOTH",
"249 24 OFFCURVE",
"218 11 OFFCURVE",
"182 11 CURVE SMOOTH",
"70 11 LINE SMOOTH",
"65 11 OFFCURVE",
"60 16 OFFCURVE",
"60 21 CURVE SMOOTH",
"60 668 LINE SMOOTH",
"60 674 OFFCURVE",
"65 679 OFFCURVE",
"70 679 CURVE SMOOTH",
"182 679 LINE SMOOTH",
"218 679 OFFCURVE",
"249 665 OFFCURVE",
"275 639 CURVE SMOOTH",
"328 586 OFFCURVE",
"356 482 OFFCURVE",
"356 344 CURVE SMOOTH"
);
},
{
closed = 1;
nodes = (
"335 474 OFFCURVE",
"309 576 OFFCURVE",
"261 624 CURVE SMOOTH",
"238 646 OFFCURVE",
"212 658 OFFCURVE",
"182 658 CURVE SMOOTH",
"81 658 LINE",
"81 32 LINE",
"182 32 LINE SMOOTH",
"278 32 OFFCURVE",
"335 151 OFFCURVE",
"335 344 CURVE SMOOTH"
);
}
);
};
layerId = "3809564D-0C5B-4C30-93EF-5CE97C04549E";
name = "Aug 7 20, 16:23";
paths = (
{
closed = 1;
nodes = (
"356 207 OFFCURVE",
"328 104 OFFCURVE",
"275 51 CURVE SMOOTH",
"249 24 OFFCURVE",
"218 11 OFFCURVE",
"182 11 CURVE SMOOTH",
"70 11 LINE SMOOTH",
"65 11 OFFCURVE",
"60 16 OFFCURVE",
"60 21 CURVE SMOOTH",
"60 668 LINE SMOOTH",
"60 674 OFFCURVE",
"65 679 OFFCURVE",
"70 679 CURVE SMOOTH",
"182 679 LINE SMOOTH",
"218 679 OFFCURVE",
"249 665 OFFCURVE",
"275 639 CURVE SMOOTH",
"328 586 OFFCURVE",
"356 482 OFFCURVE",
"356 344 CURVE SMOOTH"
);
},
{
closed = 1;
nodes = (
"335 474 OFFCURVE",
"309 576 OFFCURVE",
"261 624 CURVE SMOOTH",
"238 646 OFFCURVE",
"212 658 OFFCURVE",
"182 658 CURVE SMOOTH",
"81 658 LINE",
"81 32 LINE",
"182 32 LINE SMOOTH",
"278 32 OFFCURVE",
"335 151 OFFCURVE",
"335 344 CURVE SMOOTH"
);
}
);
width = 396;
}
);
leftKerningGroup = H;
leftMetricsKey = H;
rightKerningGroup = O;
rightMetricsKey = O;
unicode = 0044;
},
{
glyphname = E;
lastChange = "2020-10-10 09:59:42 +0000";
layers = (
{
anchors = (
{
name = bottom;
position = "{155, 0}";
},
{
name = ogonek;
position = "{278, 10}";
},
{
name = top;
position = "{165, 690}";
},
{
name = topleft;
position = "{20, 690}";
}
);
background = {
paths = (
{
closed = 1;
nodes = (
"269 15 OFFCURVE",
"264 11 OFFCURVE",
"258 11 CURVE SMOOTH",
"70 11 LINE SMOOTH",
"65 11 OFFCURVE",
"60 15 OFFCURVE",
"60 21 CURVE SMOOTH",
"60 668 LINE SMOOTH",
"60 674 OFFCURVE",
"65 679 OFFCURVE",
"70 679 CURVE SMOOTH",
"258 679 LINE SMOOTH",
"264 679 OFFCURVE",
"269 674 OFFCURVE",
"269 668 CURVE SMOOTH",
"269 662 OFFCURVE",
"264 658 OFFCURVE",
"258 658 CURVE SMOOTH",
"81 658 LINE",
"81 382 LINE",
"258 382 LINE SMOOTH",
"264 382 OFFCURVE",
"269 377 OFFCURVE",
"269 372 CURVE SMOOTH",
"269 366 OFFCURVE",
"264 361 OFFCURVE",
"258 361 CURVE SMOOTH",
"81 361 LINE",
"81 32 LINE",
"258 32 LINE SMOOTH",
"264 32 OFFCURVE",
"269 27 OFFCURVE",
"269 21 CURVE SMOOTH"
);
}
);
};
components = (
{
name = _v_stem_UC;
}
);
layerId = master01;
paths = (
{
closed = 1;
nodes = (
"265 669 OFFCURVE",
"269 673 OFFCURVE",
"269 680 CURVE SMOOTH",
"269 686 OFFCURVE",
"265 690 OFFCURVE",
"259 690 CURVE SMOOTH",
"70 690 LINE SMOOTH",
"64 690 OFFCURVE",
"60 686 OFFCURVE",
"60 680 CURVE SMOOTH",
"60 673 OFFCURVE",
"64 669 OFFCURVE",
"70 669 CURVE SMOOTH",
"259 669 LINE SMOOTH"
);
},
{
closed = 1;
nodes = (
"255 361 OFFCURVE",
"259 365 OFFCURVE",
"259 372 CURVE SMOOTH",
"259 378 OFFCURVE",
"255 382 OFFCURVE",
"249 382 CURVE SMOOTH",
"70 382 LINE SMOOTH",
"64 382 OFFCURVE",
"60 378 OFFCURVE",
"60 372 CURVE SMOOTH",
"60 365 OFFCURVE",
"64 361 OFFCURVE",
"70 361 CURVE SMOOTH",
"249 361 LINE SMOOTH"
);
},
{
closed = 1;
nodes = (
"265 0 OFFCURVE",
"269 4 OFFCURVE",
"269 11 CURVE SMOOTH",
"269 17 OFFCURVE",
"265 21 OFFCURVE",
"259 21 CURVE SMOOTH",
"70 21 LINE SMOOTH",
"64 21 OFFCURVE",
"60 17 OFFCURVE",
"60 11 CURVE SMOOTH",
"60 4 OFFCURVE",
"64 0 OFFCURVE",
"70 0 CURVE SMOOTH",
"259 0 LINE SMOOTH"
);
}
);
width = 309;
},
{
associatedMasterId = master01;
layerId = "B9DD5134-B964-4562-8B23-387616C292B5";
name = "Aug 7 20, 14:21";
paths = (
{
closed = 1;
nodes = (
"269 15 OFFCURVE",
"264 11 OFFCURVE",
"258 11 CURVE SMOOTH",
"70 11 LINE SMOOTH",
"65 11 OFFCURVE",
"60 15 OFFCURVE",
"60 21 CURVE SMOOTH",
"60 668 LINE SMOOTH",
"60 674 OFFCURVE",
"65 679 OFFCURVE",
"70 679 CURVE SMOOTH",
"258 679 LINE SMOOTH",
"264 679 OFFCURVE",
"269 674 OFFCURVE",
"269 668 CURVE SMOOTH",
"269 662 OFFCURVE",
"264 658 OFFCURVE",
"258 658 CURVE SMOOTH",
"81 658 LINE",
"81 382 LINE",
"258 382 LINE SMOOTH",
"264 382 OFFCURVE",
"269 377 OFFCURVE",
"269 372 CURVE SMOOTH",
"269 366 OFFCURVE",
"264 361 OFFCURVE",
"258 361 CURVE SMOOTH",
"81 361 LINE",
"81 32 LINE",
"258 32 LINE SMOOTH",
"264 32 OFFCURVE",
"269 27 OFFCURVE",
"269 21 CURVE SMOOTH"
);
}
);
width = 309;
}
);
leftKerningGroup = H;
leftMetricsKey = H;
rightKerningGroup = E;
unicode = 0045;
},
{
glyphname = F;
lastChange = "2020-10-10 10:45:57 +0000";
layers = (
{
anchors = (
{
name = bottom;
position = "{150, 0}";
},
{
name = top;
position = "{150, 690}";
}
);
components = (
{
name = _v_stem_UC;
}
);
layerId = master01;
paths = (
{
closed = 1;
nodes = (
"265 669 OFFCURVE",
"269 673 OFFCURVE",
"269 680 CURVE SMOOTH",
"269 686 OFFCURVE",
"265 690 OFFCURVE",
"259 690 CURVE SMOOTH",
"70 690 LINE SMOOTH",
"64 690 OFFCURVE",
"60 686 OFFCURVE",
"60 680 CURVE SMOOTH",
"60 673 OFFCURVE",
"64 669 OFFCURVE",
"70 669 CURVE SMOOTH",
"259 669 LINE SMOOTH"
);
},
{
closed = 1;
nodes = (
"255 361 OFFCURVE",
"259 365 OFFCURVE",
"259 372 CURVE SMOOTH",
"259 378 OFFCURVE",
"255 382 OFFCURVE",
"249 382 CURVE SMOOTH",
"70 382 LINE SMOOTH",
"64 382 OFFCURVE",
"60 378 OFFCURVE",
"60 372 CURVE SMOOTH",
"60 365 OFFCURVE",
"64 361 OFFCURVE",
"70 361 CURVE SMOOTH",
"249 361 LINE SMOOTH"
);
}
);
width = 299;
},
{
associatedMasterId = master01;
layerId = "2B547936-D233-4761-9D35-D3E06AD277E4";
name = "Aug 7 20, 14:34";
paths = (
{
closed = 1;
nodes = (
"267 366 OFFCURVE",
"262 361 OFFCURVE",
"256 361 CURVE SMOOTH",
"81 361 LINE",
"81 10 LINE SMOOTH",
"81 4 OFFCURVE",
"76 0 OFFCURVE",
"70 0 CURVE SMOOTH",
"65 0 OFFCURVE",
"60 4 OFFCURVE",
"60 10 CURVE SMOOTH",
"60 668 LINE SMOOTH",
"60 674 OFFCURVE",
"65 679 OFFCURVE",
"70 679 CURVE SMOOTH",
"256 679 LINE SMOOTH",
"262 679 OFFCURVE",
"267 674 OFFCURVE",
"267 668 CURVE SMOOTH",
"267 662 OFFCURVE",
"262 658 OFFCURVE",
"256 658 CURVE SMOOTH",
"81 658 LINE",
"81 382 LINE",
"256 382 LINE SMOOTH",
"262 382 OFFCURVE",
"267 377 OFFCURVE",
"267 371 CURVE SMOOTH"
);
}
);
width = 297;
}
);
leftKerningGroup = H;
leftMetricsKey = H;
rightKerningGroup = F;
unicode = 0046;
},
{
glyphname = G;
lastChange = "2020-10-10 09:44:20 +0000";
layers = (
{
anchors = (
{
name = bottom;
position = "{191, 0}";
},
{
name = top;
position = "{191, 690}";
}
);
background = {
paths = (
{
closed = 1;
nodes = (
"321 47 OFFCURVE",
"325 43 OFFCURVE",
"332 43 CURVE SMOOTH",
"338 43 OFFCURVE",
"342 47 OFFCURVE",
"342 53 CURVE SMOOTH",
"342 172 LINE SMOOTH",
"342 178 OFFCURVE",
"338 182 OFFCURVE",
"332 182 CURVE SMOOTH",
"325 182 OFFCURVE",
"321 178 OFFCURVE",
"321 172 CURVE SMOOTH",
"321 53 LINE SMOOTH"
);
}
);
};
layerId = master01;
paths = (
{
closed = 1;
nodes = (
"40 120 OFFCURVE",
"106 -5 OFFCURVE",
"225 -5 CURVE SMOOTH",
"271 -5 OFFCURVE",
"310 12 OFFCURVE",
"339 45 CURVE SMOOTH",
"341 47 OFFCURVE",
"342 50 OFFCURVE",
"342 53 CURVE SMOOTH",
"342 289 LINE",
"321 289 LINE",
"321 56 LINE",
"297 27 OFFCURVE",
"261 16 OFFCURVE",
"226 16 CURVE SMOOTH",
"120 16 OFFCURVE",
"62 135 OFFCURVE",
"62 344 CURVE SMOOTH",
"62 554 OFFCURVE",
"121 674 OFFCURVE",
"225 674 CURVE SMOOTH",
"258 674 OFFCURVE",
"289 663 OFFCURVE",
"313 643 CURVE SMOOTH",
"315 641 OFFCURVE",
"318 640 OFFCURVE",
"320 640 CURVE SMOOTH",
"326 640 OFFCURVE",
"331 645 OFFCURVE",
"331 651 CURVE SMOOTH",
"331 654 OFFCURVE",
"330 657 OFFCURVE",
"327 659 CURVE SMOOTH",
"300 682 OFFCURVE",
"263 695 OFFCURVE",
"225 695 CURVE SMOOTH",
"106 695 OFFCURVE",
"40 569 OFFCURVE",
"40 344 CURVE SMOOTH"
);
},
{
closed = 1;
nodes = (
"338 278 OFFCURVE",
"342 282 OFFCURVE",
"342 289 CURVE SMOOTH",
"342 295 OFFCURVE",
"338 299 OFFCURVE",
"332 299 CURVE SMOOTH",
"213 299 LINE SMOOTH",
"207 299 OFFCURVE",
"203 295 OFFCURVE",
"203 289 CURVE SMOOTH",
"203 282 OFFCURVE",
"207 278 OFFCURVE",
"213 278 CURVE SMOOTH",
"332 278 LINE SMOOTH"
);
}
);
width = 382;
},
{
associatedMasterId = master01;
layerId = "3D7D0E5A-A245-45A6-89AD-0CF52A1C8A42";
name = "Aug 7 20, 16:25";
paths = (
{
closed = 1;
nodes = (
"343 41 OFFCURVE",
"341 38 OFFCURVE",
"338 36 CURVE SMOOTH",
"313 21 OFFCURVE",
"261 -1 OFFCURVE",
"222 -1 CURVE SMOOTH",
"185 -1 OFFCURVE",
"152 13 OFFCURVE",
"125 41 CURVE SMOOTH",
"69 96 OFFCURVE",
"40 197 OFFCURVE",
"40 340 CURVE SMOOTH",
"40 556 OFFCURVE",
"107 690 OFFCURVE",
"220 690 CURVE SMOOTH",
"258 690 OFFCURVE",
"311 676 OFFCURVE",
"338 660 CURVE SMOOTH",
"343 657 OFFCURVE",
"344 651 OFFCURVE",
"341 646 CURVE SMOOTH",
"338 641 OFFCURVE",
"332 639 OFFCURVE",
"327 642 CURVE SMOOTH",
"306 655 OFFCURVE",
"257 669 OFFCURVE",
"220 669 CURVE SMOOTH",
"189 669 OFFCURVE",
"162 657 OFFCURVE",
"139 634 CURVE SMOOTH",
"89 584 OFFCURVE",
"61 476 OFFCURVE",
"61 340 CURVE SMOOTH",
"61 204 OFFCURVE",
"89 106 OFFCURVE",
"139 56 CURVE SMOOTH",
"163 32 OFFCURVE",
"191 20 OFFCURVE",
"222 20 CURVE SMOOTH",
"254 20 OFFCURVE",
"298 38 OFFCURVE",
"322 51 CURVE",
"322 278 LINE",
"215 278 LINE SMOOTH",
"209 278 OFFCURVE",
"204 283 OFFCURVE",
"204 289 CURVE SMOOTH",
"204 295 OFFCURVE",
"209 299 OFFCURVE",
"215 299 CURVE SMOOTH",
"332 299 LINE SMOOTH",
"338 299 OFFCURVE",
"343 295 OFFCURVE",
"343 289 CURVE SMOOTH",
"343 45 LINE SMOOTH"
);
}
);
width = 383;
}
);
leftKerningGroup = O;
leftMetricsKey = O;
rightKerningGroup = G;
rightMetricsKey = O;
unicode = 0047;
},
{
glyphname = H;
lastChange = "2020-10-02 15:30:57 +0000";
layers = (
{
anchors = (
{
name = bottom;
position = "{213, 0}";
},
{
name = center;
position = "{213, 345}";
},
{
name = top;
position = "{213, 690}";
},
{
name = topleft;
position = "{20, 690}";
}
);
components = (
{
name = _v_stem_UC;
transform = "{1, 0, 0, 1, 284, 0}";
},
{
name = _v_stem_UC;
}
);
layerId = master01;
paths = (
{
closed = 1;
nodes = (
"350 381 LINE",
"71 381 LINE",
"71 360 LINE",
"350 360 LINE"
);
}
);
width = 425;
},
{
associatedMasterId = master01;
layerId = "917EAFAC-9D37-49AA-A9F9-8AFC960C1507";
name = "Aug 7 20, 14:12";
paths = (
{
closed = 1;
nodes = (
"365 10 LINE",
"365 4 OFFCURVE",
"360 0 OFFCURVE",
"354 0 CURVE SMOOTH",
"348 0 OFFCURVE",
"344 4 OFFCURVE",
"344 10 CURVE SMOOTH",
"344 360 LINE",
"81 360 LINE",
"81 10 LINE SMOOTH",
"81 4 OFFCURVE",
"76 0 OFFCURVE",
"70 0 CURVE SMOOTH",
"65 0 OFFCURVE",
"60 4 OFFCURVE",
"60 10 CURVE SMOOTH",
"60 679 LINE SMOOTH",
"60 685 OFFCURVE",
"65 690 OFFCURVE",
"70 690 CURVE SMOOTH",
"76 690 OFFCURVE",
"81 685 OFFCURVE",
"81 679 CURVE SMOOTH",
"81 381 LINE",
"344 381 LINE",
"344 679 LINE SMOOTH",
"344 685 OFFCURVE",
"348 690 OFFCURVE",
"354 690 CURVE SMOOTH",
"360 690 OFFCURVE",
"365 685 OFFCURVE",
"365 679 CURVE"
);
}
);
visible = 1;
width = 425;
}
);
leftKerningGroup = H;
rightKerningGroup = H;
rightMetricsKey = "=|";
unicode = 0048;
},
{
glyphname = J;
lastChange = "2020-10-02 15:10:59 +0000";
layers = (
{
anchors = (
{
name = bottom;
position = "{71, 0}";
},
{
name = top;
position = "{71, 690}";
}
);
background = {
paths = (
{
closed = 0;
nodes = (
"-75 -161 LINE SMOOTH",
"-81 -161 OFFCURVE",
"-85 -165 OFFCURVE",
"-85 -171 CURVE SMOOTH",
"-85 -179 OFFCURVE",
"-81 -183 OFFCURVE",
"-75 -183 CURVE SMOOTH"
);
}
);
};
components = (
{
name = _v_stem_UC;
transform = "{1, 0, 0, 1, 1, 0}";
}
);
layerId = master01;
paths = (
{
closed = 1;
nodes = (
"-81 -162 OFFCURVE",
"-85 -166 OFFCURVE",
"-85 -173 CURVE SMOOTH",
"-85 -179 OFFCURVE",
"-81 -183 OFFCURVE",
"-75 -183 CURVE SMOOTH",
"27 -183 OFFCURVE",
"82 -125 OFFCURVE",
"82 -14 CURVE SMOOTH",
"82 11 LINE",
"61 11 LINE",
"61 -14 LINE SMOOTH",
"61 -115 OFFCURVE",
"18 -162 OFFCURVE",
"-75 -162 CURVE SMOOTH"
);
}
);
width = 142;
},
{
associatedMasterId = master01;
layerId = "FA5869FD-8628-442E-B435-81F88CF0E8D8";
name = "Aug 7 20, 16:36";
paths = (
{
closed = 1;
nodes = (
"107 -72 OFFCURVE",
"92 -115 OFFCURVE",
"64 -143 CURVE SMOOTH",
"38 -169 OFFCURVE",
"0 -183 OFFCURVE",
"-50 -183 CURVE SMOOTH",
"-55 -183 OFFCURVE",
"-60 -178 OFFCURVE",
"-60 -172 CURVE SMOOTH",
"-60 -166 OFFCURVE",
"-55 -162 OFFCURVE",
"-50 -162 CURVE SMOOTH",
"43 -162 OFFCURVE",
"86 -115 OFFCURVE",
"86 -14 CURVE SMOOTH",
"86 679 LINE SMOOTH",
"86 685 OFFCURVE",
"90 690 OFFCURVE",
"96 690 CURVE SMOOTH",
"102 690 OFFCURVE",
"107 685 OFFCURVE",
"107 679 CURVE SMOOTH",
"107 -14 LINE SMOOTH"
);
}
);
width = 187;
}
);
leftKerningGroup = J;
rightKerningGroup = U;
rightMetricsKey = H;
unicode = 004A;
},
{
glyphname = K;
lastChange = "2020-10-10 09:55:15 +0000";
layers = (
{
anchors = (
{
name = bottom;
position = "{196, 0}";
},
{
name = top;
position = "{196, 690}";
}
);
background = {
paths = (
{
closed = 1;
nodes = (
"316 240 LINE SMOOTH",
"292 362 OFFCURVE",
"216 421 OFFCURVE",
"119 421 CURVE SMOOTH",
"64 421 OFFCURVE",
"-2 401 OFFCURVE",
"-2 364 CURVE SMOOTH",
"-2 345 OFFCURVE",
"16 332 OFFCURVE",
"55 332 CURVE SMOOTH",
"170 331 OFFCURVE",
"241 395 OFFCURVE",
"268 526 CURVE SMOOTH",
"283 598 OFFCURVE",
"310 648 OFFCURVE",
"345 667 CURVE",
"336 686 LINE",
"296 665 OFFCURVE",
"264 608 OFFCURVE",
"247 530 CURVE SMOOTH",
"222 412 OFFCURVE",
"164 354 OFFCURVE",
"61 353 CURVE SMOOTH",
"33 353 OFFCURVE",
"21 359 OFFCURVE",
"21 366 CURVE SMOOTH",
"21 380 OFFCURVE",
"62 399 OFFCURVE",
"119 399 CURVE SMOOTH",
"215 398 OFFCURVE",
"274 344 OFFCURVE",
"295 236 CURVE SMOOTH",
"342 0 LINE",
"363 4 LINE"
);
}
);
};
components = (
{
alignment = -1;
name = _v_stem_UC;
transform = "{1, 0, 0, 1, 24, 0}";
}
);
layerId = master01;
paths = (
{
closed = 1;
nodes = (
"320 220 LINE SMOOTH",
"294 353 OFFCURVE",
"226 421 OFFCURVE",
"119 421 CURVE SMOOTH",
"54 421 OFFCURVE",
"0 395 OFFCURVE",
"0 364 CURVE SMOOTH",
"0 344 OFFCURVE",
"20 332 OFFCURVE",
"55 332 CURVE SMOOTH",
"171 332 OFFCURVE",
"225 396 OFFCURVE",
"268 526 CURVE SMOOTH",
"292 599 OFFCURVE",
"322 651 OFFCURVE",
"352 671 CURVE SMOOTH",
"355 673 OFFCURVE",
"357 676 OFFCURVE",
"357 679 CURVE SMOOTH",
"357 685 OFFCURVE",
"352 690 OFFCURVE",
"347 690 CURVE SMOOTH",
"345 690 OFFCURVE",
"342 690 OFFCURVE",
"339 688 CURVE SMOOTH",
"303 662 OFFCURVE",
"274 611 OFFCURVE",
"247 530 CURVE SMOOTH",
"207 411 OFFCURVE",
"162 354 OFFCURVE",
"61 353 CURVE SMOOTH",
"36 353 OFFCURVE",
"21 358 OFFCURVE",
"21 366 CURVE SMOOTH",
"21 383 OFFCURVE",
"69 400 OFFCURVE",
"119 400 CURVE SMOOTH",
"217 399 OFFCURVE",
"274 341 OFFCURVE",
"299 216 CURVE SMOOTH",
"340 8 LINE SMOOTH",
"341 3 OFFCURVE",
"345 0 OFFCURVE",
"350 0 CURVE SMOOTH",
"354 0 OFFCURVE",
"363 2 OFFCURVE",
"361 12 CURVE SMOOTH"
);
}
);
width = 401;
},
{
associatedMasterId = master01;
layerId = "575FA581-62EB-48DB-BFD3-F36932470BC0";
name = "Aug 7 20, 16:39";
paths = (
{
closed = 1;
nodes = (
"404 6 OFFCURVE",
"400 1 OFFCURVE",
"395 -1 CURVE SMOOTH",
"389 -2 OFFCURVE",
"384 2 OFFCURVE",
"382 8 CURVE",
"376 38 LINE",
"337 235 LINE SMOOTH",
"321 315 OFFCURVE",
"290 363 OFFCURVE",
"239 385 CURVE",
"214 362 OFFCURVE",
"187 351 OFFCURVE",
"163 343 CURVE SMOOTH",
"157 341 OFFCURVE",
"151 339 OFFCURVE",
"145 338 CURVE",
"145 10 LINE SMOOTH",
"145 4 OFFCURVE",
"140 0 OFFCURVE",
"135 0 CURVE SMOOTH",
"129 0 OFFCURVE",
"124 4 OFFCURVE",
"124 10 CURVE SMOOTH",
"124 334 LINE",
"95 330 OFFCURVE",
"69 332 OFFCURVE",
"54 340 CURVE SMOOTH",
"45 345 OFFCURVE",
"41 352 OFFCURVE",
"40 357 CURVE SMOOTH",
"39 363 OFFCURVE",
"39 372 OFFCURVE",
"46 381 CURVE SMOOTH",
"59 397 OFFCURVE",
"89 410 OFFCURVE",
"124 416 CURVE",
"124 679 LINE SMOOTH",
"124 685 OFFCURVE",
"129 690 OFFCURVE",
"135 690 CURVE SMOOTH",
"140 690 OFFCURVE",
"145 685 OFFCURVE",
"145 679 CURVE SMOOTH",
"145 419 LINE",
"151 420 OFFCURVE",
"157 420 OFFCURVE",
"163 420 CURVE SMOOTH",
"189 420 OFFCURVE",
"213 416 OFFCURVE",
"233 410 CURVE",
"254 432 OFFCURVE",
"272 466 OFFCURVE",
"284 516 CURVE SMOOTH",
"309 622 OFFCURVE",
"334 672 OFFCURVE",
"370 689 CURVE SMOOTH",
"376 691 OFFCURVE",
"382 689 OFFCURVE",
"384 684 CURVE SMOOTH",
"387 679 OFFCURVE",
"384 672 OFFCURVE",
"379 670 CURVE SMOOTH",
"350 656 OFFCURVE",
"327 609 OFFCURVE",
"304 511 CURVE SMOOTH",
"292 461 OFFCURVE",
"274 426 OFFCURVE",
"254 401 CURVE",
"307 376 OFFCURVE",
"341 322 OFFCURVE",
"358 239 CURVE SMOOTH",
"397 42 LINE",
"403 12 LINE SMOOTH"
);
},
{
closed = 1;
nodes = (
"200 397 OFFCURVE",
"182 399 OFFCURVE",
"163 399 CURVE SMOOTH",
"157 399 OFFCURVE",
"151 399 OFFCURVE",
"145 398 CURVE",
"145 360 LINE",
"149 361 OFFCURVE",
"153 362 OFFCURVE",
"157 363 CURVE SMOOTH",
"176 369 OFFCURVE",
"197 378 OFFCURVE",
"216 393 CURVE"
);
},
{
closed = 1;
nodes = (
"124 395 LINE",
"95 390 OFFCURVE",
"71 379 OFFCURVE",
"63 368 CURVE SMOOTH",
"60 365 OFFCURVE",
"60 361 OFFCURVE",
"64 358 CURVE SMOOTH",
"74 353 OFFCURVE",
"97 351 OFFCURVE",
"124 355 CURVE"
);
}
);
width = 443;
}
);
leftKerningGroup = H;
rightKerningGroup = K;
unicode = 004B;
},
{
glyphname = L;
lastChange = "2020-10-10 10:46:07 +0000";
layers = (
{
anchors = (
{
name = bottom;
position = "{164, 0}";
},
{
name = center;
position = "{164, 345}";
},
{
name = top;
position = "{164, 690}";
},
{
name = topright;
position = "{307, 690}";
}
);
components = (
{
name = _v_stem_UC;
}
);
layerId = master01;
paths = (
{
closed = 1;
nodes = (
"313 0 OFFCURVE",
"317 4 OFFCURVE",
"317 11 CURVE SMOOTH",
"317 17 OFFCURVE",
"313 21 OFFCURVE",
"307 21 CURVE SMOOTH",
"70 21 LINE SMOOTH",
"64 21 OFFCURVE",
"60 17 OFFCURVE",
"60 11 CURVE SMOOTH",
"60 4 OFFCURVE",
"64 0 OFFCURVE",
"70 0 CURVE SMOOTH",
"307 0 LINE SMOOTH"
);
}
);
width = 347;
},
{
associatedMasterId = master01;
layerId = "D3211E55-B90D-4CA8-B340-A3ED9E5E2511";
name = "Aug 7 20, 16:53";
paths = (
{
closed = 1;
nodes = (
"317 16 OFFCURVE",
"312 11 OFFCURVE",
"306 11 CURVE SMOOTH",
"70 11 LINE SMOOTH",
"65 11 OFFCURVE",
"60 16 OFFCURVE",
"60 21 CURVE SMOOTH",
"60 679 LINE SMOOTH",
"60 685 OFFCURVE",
"65 690 OFFCURVE",
"70 690 CURVE SMOOTH",
"76 690 OFFCURVE",
"81 685 OFFCURVE",
"81 679 CURVE SMOOTH",
"81 32 LINE",
"306 32 LINE SMOOTH",
"312 32 OFFCURVE",
"317 27 OFFCURVE",
"317 21 CURVE SMOOTH"
);
}
);
visible = 1;
width = 327;
}
);
leftKerningGroup = H;
leftMetricsKey = H;
rightKerningGroup = L;
unicode = 004C;
},
{
glyphname = M;
lastChange = "2020-10-02 15:10:59 +0000";
layers = (
{
anchors = (
{
name = bottom;
position = "{267, 0}";
},
{
name = top;
position = "{267, 690}";
}
);
background = {
paths = (
{
closed = 1;
nodes = (
"112 686 OFFCURVE",
"107 690 OFFCURVE",
"101 690 CURVE SMOOTH",
"94 690 OFFCURVE",
"91 687 OFFCURVE",
"91 680 CURVE SMOOTH",
"45 10 LINE SMOOTH",
"45 4 OFFCURVE",
"48 0 OFFCURVE",
"55 0 CURVE SMOOTH",
"61 0 OFFCURVE",
"66 4 OFFCURVE",
"66 10 CURVE SMOOTH",
"112 680 LINE SMOOTH"
);
},
{
closed = 1;
nodes = (
"112 686 OFFCURVE",
"108 690 OFFCURVE",
"101 690 CURVE SMOOTH",
"95 690 OFFCURVE",
"91 686 OFFCURVE",
"91 680 CURVE SMOOTH",
"45 10 LINE SMOOTH",
"45 4 OFFCURVE",
"49 0 OFFCURVE",
"55 0 CURVE SMOOTH",
"62 0 OFFCURVE",
"66 4 OFFCURVE",
"66 10 CURVE SMOOTH",
"112 680 LINE SMOOTH"
);
},
{
closed = 1;
nodes = (
"423 665 LINE",
"468 10 LINE SMOOTH",
"468 4 OFFCURVE",
"472 0 OFFCURVE",
"479 0 CURVE SMOOTH",
"485 0 OFFCURVE",
"489 4 OFFCURVE",
"489 10 CURVE SMOOTH",
"443 680 LINE SMOOTH",
"443 686 OFFCURVE",
"439 690 OFFCURVE",
"433 690 CURVE SMOOTH",
"430 690 OFFCURVE",
"427 689 OFFCURVE",
"424 686 CURVE SMOOTH",
"299 574 LINE SMOOTH",
"239 521 OFFCURVE",
"216 478 OFFCURVE",
"216 432 CURVE SMOOTH",
"216 396 OFFCURVE",
"231 368 OFFCURVE",
"247 340 CURVE SMOOTH",
"265 308 OFFCURVE",
"283 274 OFFCURVE",
"283 223 CURVE SMOOTH",
"283 200 OFFCURVE",
"275 175 OFFCURVE",
"267 171 CURVE",
"260 175 OFFCURVE",
"251 200 OFFCURVE",
"251 223 CURVE SMOOTH",
"251 274 OFFCURVE",
"269 308 OFFCURVE",
"287 340 CURVE SMOOTH",
"303 368 OFFCURVE",
"318 396 OFFCURVE",
"318 432 CURVE SMOOTH",
"318 478 OFFCURVE",
"294 521 OFFCURVE",
"235 574 CURVE SMOOTH",
"108 688 LINE",
"94 672 LINE",
"222 558 LINE SMOOTH",
"276 510 OFFCURVE",
"297 472 OFFCURVE",
"297 432 CURVE SMOOTH",
"297 402 OFFCURVE",
"284 378 OFFCURVE",
"269 351 CURVE SMOOTH",
"251 318 OFFCURVE",
"230 280 OFFCURVE",
"230 223 CURVE SMOOTH",
"230 187 OFFCURVE",
"244 149 OFFCURVE",
"267 149 CURVE SMOOTH",
"290 149 OFFCURVE",
"304 187 OFFCURVE",
"304 223 CURVE SMOOTH",
"304 280 OFFCURVE",
"283 318 OFFCURVE",
"265 351 CURVE SMOOTH",
"250 378 OFFCURVE",
"237 402 OFFCURVE",
"237 432 CURVE SMOOTH",
"237 472 OFFCURVE",
"258 510 OFFCURVE",
"312 558 CURVE SMOOTH",
"430 663 LINE"
);
}
);
};
layerId = master01;
paths = (
{
closed = 1;
nodes = (
"62 0 OFFCURVE",
"66 4 OFFCURVE",
"66 10 CURVE SMOOTH",
"111 665 LINE",
"104 663 LINE",
"222 558 LINE SMOOTH",
"276 510 OFFCURVE",
"297 472 OFFCURVE",
"297 432 CURVE SMOOTH",
"297 402 OFFCURVE",
"284 378 OFFCURVE",
"269 351 CURVE SMOOTH",
"251 318 OFFCURVE",
"230 280 OFFCURVE",
"230 223 CURVE SMOOTH",
"230 187 OFFCURVE",
"244 149 OFFCURVE",
"267 149 CURVE SMOOTH",
"290 149 OFFCURVE",
"304 187 OFFCURVE",
"304 223 CURVE SMOOTH",
"304 280 OFFCURVE",
"283 318 OFFCURVE",
"265 351 CURVE SMOOTH",
"250 378 OFFCURVE",
"237 402 OFFCURVE",
"237 432 CURVE SMOOTH",
"237 472 OFFCURVE",
"259 510 OFFCURVE",
"312 558 CURVE SMOOTH",
"430 663 LINE",
"423 665 LINE",
"468 10 LINE SMOOTH",
"468 4 OFFCURVE",
"472 0 OFFCURVE",
"479 0 CURVE SMOOTH",
"485 0 OFFCURVE",
"489 4 OFFCURVE",
"489 10 CURVE SMOOTH",
"443 680 LINE SMOOTH",
"443 686 OFFCURVE",
"439 690 OFFCURVE",
"433 690 CURVE SMOOTH",
"430 690 OFFCURVE",
"427 689 OFFCURVE",
"424 686 CURVE SMOOTH",
"299 574 LINE SMOOTH",
"240 522 OFFCURVE",
"216 478 OFFCURVE",
"216 432 CURVE SMOOTH",
"216 396 OFFCURVE",
"231 368 OFFCURVE",
"247 340 CURVE SMOOTH",
"265 308 OFFCURVE",
"283 274 OFFCURVE",
"283 223 CURVE SMOOTH",
"283 200 OFFCURVE",
"274 175 OFFCURVE",
"267 171 CURVE",
"259 175 OFFCURVE",
"251 200 OFFCURVE",
"251 223 CURVE SMOOTH",
"251 274 OFFCURVE",
"269 308 OFFCURVE",
"287 340 CURVE SMOOTH",
"303 368 OFFCURVE",
"318 396 OFFCURVE",
"318 432 CURVE SMOOTH",
"318 478 OFFCURVE",
"295 521 OFFCURVE",
"235 574 CURVE SMOOTH",
"110 686 LINE SMOOTH",
"107 689 OFFCURVE",
"104 690 OFFCURVE",
"101 690 CURVE SMOOTH",
"95 690 OFFCURVE",
"91 686 OFFCURVE",
"91 680 CURVE SMOOTH",
"45 10 LINE SMOOTH",
"45 4 OFFCURVE",
"49 0 OFFCURVE",
"55 0 CURVE SMOOTH"
);
}
);
width = 534;
},
{
associatedMasterId = master01;
layerId = "E18E0F54-545F-49EC-9254-5511C2CC7925";
name = "Aug 7 20, 16:54";
paths = (
{
closed = 1;
nodes = (
"489 5 OFFCURVE",
"485 0 OFFCURVE",
"479 0 CURVE",
"473 -1 OFFCURVE",
"468 4 OFFCURVE",
"468 9 CURVE",
"421 657 LINE",
"314 562 LINE SMOOTH",
"302 551 OFFCURVE",
"289 539 OFFCURVE",
"278 527 CURVE",
"304 495 OFFCURVE",
"321 459 OFFCURVE",
"315 418 CURVE SMOOTH",
"311 387 OFFCURVE",
"297 362 OFFCURVE",
"283 339 CURVE SMOOTH",
"276 326 LINE",
"289 302 OFFCURVE",
"300 273 OFFCURVE",
"300 235 CURVE SMOOTH",
"300 213 OFFCURVE",
"298 174 OFFCURVE",
"282 158 CURVE SMOOTH",
"277 153 OFFCURVE",
"271 150 OFFCURVE",
"264 150 CURVE SMOOTH",
"258 150 OFFCURVE",
"252 153 OFFCURVE",
"247 158 CURVE SMOOTH",
"231 174 OFFCURVE",
"228 213 OFFCURVE",
"228 235 CURVE SMOOTH",
"228 273 OFFCURVE",
"239 302 OFFCURVE",
"252 326 CURVE",
"245 339 LINE SMOOTH",
"232 362 OFFCURVE",
"218 387 OFFCURVE",
"213 418 CURVE",
"208 459 OFFCURVE",
"225 495 OFFCURVE",
"250 527 CURVE",
"239 539 OFFCURVE",
"227 551 OFFCURVE",
"214 562 CURVE SMOOTH",
"108 657 LINE",
"61 9 LINE",
"61 4 OFFCURVE",
"55 -1 OFFCURVE",
"50 0 CURVE",
"44 0 OFFCURVE",
"40 5 OFFCURVE",
"40 11 CURVE",
"88 680 LINE",
"88 684 OFFCURVE",
"91 687 OFFCURVE",
"95 689 CURVE SMOOTH",
"98 690 OFFCURVE",
"103 690 OFFCURVE",
"106 687 CURVE SMOOTH",
"228 578 LINE SMOOTH",
"241 567 OFFCURVE",
"253 555 OFFCURVE",
"264 543 CURVE",
"276 555 OFFCURVE",
"288 567 OFFCURVE",
"300 578 CURVE SMOOTH",
"423 687 LINE SMOOTH",
"426 690 OFFCURVE",
"430 690 OFFCURVE",
"434 689 CURVE SMOOTH",
"438 687 OFFCURVE",
"440 684 OFFCURVE",
"440 680 CURVE",
"489 11 LINE"
);
},
{
closed = 1;
nodes = (
"299 454 OFFCURVE",
"285 483 OFFCURVE",
"264 510 CURVE",
"243 483 OFFCURVE",
"230 454 OFFCURVE",
"234 421 CURVE SMOOTH",
"238 393 OFFCURVE",
"250 372 OFFCURVE",
"264 349 CURVE",
"264 348 LINE",
"265 349 LINE",
"278 372 OFFCURVE",
"291 393 OFFCURVE",
"294 421 CURVE"
);
},
{
closed = 1;
nodes = (
"279 262 OFFCURVE",
"273 284 OFFCURVE",
"264 303 CURVE",
"256 284 OFFCURVE",
"249 262 OFFCURVE",
"249 235 CURVE SMOOTH",
"249 193 OFFCURVE",
"257 171 OFFCURVE",
"264 171 CURVE SMOOTH",
"272 171 OFFCURVE",
"279 193 OFFCURVE",
"279 235 CURVE SMOOTH"
);
}
);
width = 529;
}
);
leftKerningGroup = H;
rightKerningGroup = H;
unicode = 004D;
},
{
glyphname = N;
lastChange = "2020-10-02 15:10:59 +0000";
layers = (
{
anchors = (
{
name = bottom;
position = "{211, 0}";
},
{
name = top;
position = "{211, 690}";
}
);
background = {
paths = (
{
closed = 1;
nodes = (
"362 5 OFFCURVE",
"358 1 OFFCURVE",
"354 0 CURVE SMOOTH",
"349 -1 OFFCURVE",
"344 1 OFFCURVE",
"342 6 CURVE SMOOTH",
"81 627 LINE",
"81 10 LINE SMOOTH",
"81 4 OFFCURVE",
"76 0 OFFCURVE",
"70 0 CURVE SMOOTH",
"65 0 OFFCURVE",
"60 4 OFFCURVE",
"60 10 CURVE SMOOTH",
"60 679 LINE SMOOTH",
"60 684 OFFCURVE",
"64 689 OFFCURVE",
"68 690 CURVE SMOOTH",
"73 691 OFFCURVE",
"78 688 OFFCURVE",
"80 683 CURVE SMOOTH",
"341 62 LINE",
"341 679 LINE SMOOTH",
"341 685 OFFCURVE",
"346 690 OFFCURVE",
"352 690 CURVE SMOOTH",
"357 690 OFFCURVE",
"362 685 OFFCURVE",
"362 679 CURVE SMOOTH",
"362 10 LINE SMOOTH"
);
}
);
};
layerId = master01;
paths = (
{
closed = 1;
nodes = (
"60 4 OFFCURVE",
"64 0 OFFCURVE",
"70 0 CURVE SMOOTH",
"77 0 OFFCURVE",
"81 4 OFFCURVE",
"81 10 CURVE SMOOTH",
"81 671 LINE",
"65 667 LINE",
"342 6 LINE SMOOTH",
"343 3 OFFCURVE",
"347 0 OFFCURVE",
"351 0 CURVE SMOOTH",
"358 0 OFFCURVE",
"362 4 OFFCURVE",
"362 10 CURVE SMOOTH",
"362 680 LINE SMOOTH",
"362 686 OFFCURVE",
"358 690 OFFCURVE",
"351 690 CURVE SMOOTH",
"345 690 OFFCURVE",
"341 686 OFFCURVE",
"341 680 CURVE SMOOTH",
"341 17 LINE",
"358 20 LINE",
"80 684 LINE SMOOTH",
"78 688 OFFCURVE",
"75 690 OFFCURVE",
"70 690 CURVE SMOOTH",
"64 690 OFFCURVE",
"60 686 OFFCURVE",
"60 680 CURVE SMOOTH",
"60 10 LINE SMOOTH"
);
}
);
width = 422;
},
{
associatedMasterId = master01;
background = {
components = (
{
name = _v_stem_UC;
}
);
};
layerId = "53E974EA-CC90-473E-9463-6F4779195723";
name = "Aug 7 20, 17:04";
paths = (
{
closed = 1;
nodes = (
"362 5 OFFCURVE",
"358 1 OFFCURVE",
"354 0 CURVE SMOOTH",
"349 -1 OFFCURVE",
"344 1 OFFCURVE",
"342 6 CURVE SMOOTH",
"81 627 LINE",
"81 10 LINE SMOOTH",
"81 4 OFFCURVE",
"76 0 OFFCURVE",
"70 0 CURVE SMOOTH",
"65 0 OFFCURVE",
"60 4 OFFCURVE",
"60 10 CURVE SMOOTH",
"60 679 LINE SMOOTH",
"60 684 OFFCURVE",
"64 689 OFFCURVE",
"68 690 CURVE SMOOTH",
"73 691 OFFCURVE",
"78 688 OFFCURVE",
"80 683 CURVE SMOOTH",
"341 62 LINE",
"341 679 LINE SMOOTH",
"341 685 OFFCURVE",
"346 690 OFFCURVE",
"352 690 CURVE SMOOTH",
"357 690 OFFCURVE",
"362 685 OFFCURVE",
"362 679 CURVE SMOOTH",
"362 10 LINE SMOOTH"
);
}
);
visible = 1;
width = 422;
}
);
leftKerningGroup = H;
leftMetricsKey = H;
rightKerningGroup = H;
rightMetricsKey = H;
unicode = 004E;
},
{
glyphname = O;
lastChange = "2020-10-10 10:01:50 +0000";
layers = (
{
anchors = (
{
name = bottom;
position = "{223, 0}";
},
{
name = center;
position = "{223, 345}";
},
{
name = ogonek;
position = "{401, 10}";
},
{
name = top;
position = "{223, 690}";
},
{
name = topleft;
position = "{20, 690}";
},
{
name = topright;
position = "{426, 690}";
}
);
layerId = master01;
paths = (
{
closed = 1;
nodes = (
"406 569 OFFCURVE",
"340 695 OFFCURVE",
"223 695 CURVE SMOOTH",
"106 695 OFFCURVE",
"40 569 OFFCURVE",
"40 345 CURVE SMOOTH",
"40 121 OFFCURVE",
"106 -5 OFFCURVE",
"223 -5 CURVE SMOOTH",
"340 -5 OFFCURVE",
"406 121 OFFCURVE",
"406 345 CURVE SMOOTH"
);
},
{
closed = 1;
nodes = (
"384 136 OFFCURVE",
"325 16 OFFCURVE",
"223 16 CURVE SMOOTH",
"121 16 OFFCURVE",
"62 136 OFFCURVE",
"62 345 CURVE SMOOTH",
"62 554 OFFCURVE",
"121 674 OFFCURVE",
"223 674 CURVE SMOOTH",
"325 674 OFFCURVE",
"384 554 OFFCURVE",
"384 345 CURVE SMOOTH"
);
}
);
width = 446;
},
{
associatedMasterId = master01;
layerId = "6F65E856-3B7C-49DC-9A79-C31CDCE1185A";
name = "Aug 7 20, 16:15";
paths = (
{
closed = 1;
nodes = (
"404 87 OFFCURVE",
"321 -5 OFFCURVE",
"222 -5 CURVE SMOOTH",
"123 -5 OFFCURVE",
"40 87 OFFCURVE",
"40 345 CURVE SMOOTH",
"40 603 OFFCURVE",
"123 695 OFFCURVE",
"222 695 CURVE SMOOTH",
"321 695 OFFCURVE",
"404 603 OFFCURVE",
"404 345 CURVE SMOOTH"
);
},
{
closed = 1;
nodes = (
"383 559 OFFCURVE",
"321 674 OFFCURVE",
"222 674 CURVE SMOOTH",
"123 674 OFFCURVE",
"61 559 OFFCURVE",
"61 345 CURVE SMOOTH",
"61 130 OFFCURVE",
"123 16 OFFCURVE",
"222 16 CURVE SMOOTH",
"321 16 OFFCURVE",
"383 130 OFFCURVE",
"383 345 CURVE SMOOTH"
);
}
);
width = 444;
}
);
leftKerningGroup = O;
rightKerningGroup = O;
rightMetricsKey = "=|";
unicode = 004F;
},
{
glyphname = P;
lastChange = "2020-10-10 10:46:10 +0000";
layers = (
{
anchors = (
{
name = bottom;
position = "{171, 0}";
},
{
name = top;
position = "{171, 690}";
}
);
components = (
{
name = _v_stem_UC;
}
);
layerId = master01;
paths = (
{
closed = 1;
nodes = (
"254 326 OFFCURVE",
"311 404 OFFCURVE",
"311 515 CURVE SMOOTH",
"311 618 OFFCURVE",
"264 690 OFFCURVE",
"177 690 CURVE SMOOTH",
"70 690 LINE",
"70 669 LINE",
"177 669 LINE SMOOTH",
"254 669 OFFCURVE",
"289 602 OFFCURVE",
"289 515 CURVE SMOOTH",
"289 408 OFFCURVE",
"236 347 OFFCURVE",
"149 347 CURVE SMOOTH",
"127 347 OFFCURVE",
"103 351 OFFCURVE",
"77 358 CURVE",
"77 337 LINE",
"103 330 OFFCURVE",
"127 326 OFFCURVE",
"149 326 CURVE SMOOTH"
);
}
);
width = 341;
},
{
associatedMasterId = master01;
layerId = "90002F55-7D29-484B-953B-ECFD02C988E9";
name = "Aug 7 20, 17:08";
paths = (
{
closed = 1;
nodes = (
"310 446 OFFCURVE",
"293 400 OFFCURVE",
"263 369 CURVE SMOOTH",
"234 341 OFFCURVE",
"196 326 OFFCURVE",
"148 326 CURVE SMOOTH",
"127 326 OFFCURVE",
"103 330 OFFCURVE",
"81 336 CURVE",
"81 10 LINE SMOOTH",
"81 4 OFFCURVE",
"76 0 OFFCURVE",
"70 0 CURVE SMOOTH",
"65 0 OFFCURVE",
"60 4 OFFCURVE",
"60 10 CURVE SMOOTH",
"60 668 LINE SMOOTH",
"60 674 OFFCURVE",
"65 679 OFFCURVE",
"70 679 CURVE SMOOTH",
"177 679 LINE SMOOTH",
"211 679 OFFCURVE",
"239 667 OFFCURVE",
"262 645 CURVE SMOOTH",
"293 613 OFFCURVE",
"310 562 OFFCURVE",
"310 500 CURVE SMOOTH"
);
},
{
closed = 1;
nodes = (
"289 555 OFFCURVE",
"274 603 OFFCURVE",
"247 630 CURVE SMOOTH",
"228 648 OFFCURVE",
"205 658 OFFCURVE",
"177 658 CURVE SMOOTH",
"81 658 LINE",
"81 357 LINE",
"103 351 OFFCURVE",
"127 347 OFFCURVE",
"148 347 CURVE SMOOTH",
"194 347 OFFCURVE",
"231 363 OFFCURVE",
"256 392 CURVE SMOOTH",
"278 419 OFFCURVE",
"289 456 OFFCURVE",
"289 500 CURVE SMOOTH"
);
}
);
visible = 1;
width = 350;
}
);
leftKerningGroup = H;
leftMetricsKey = H;
rightKerningGroup = P;
unicode = 0050;
},
{
glyphname = Q;
lastChange = "2020-10-02 15:10:59 +0000";
layers = (
{
anchors = (
{
name = bottom;
position = "{223, 0}";
},
{
name = top;
position = "{223, 690}";
}
);
components = (
{
name = O;
}
);
layerId = master01;
paths = (
{
closed = 1;
nodes = (
"260 154 LINE SMOOTH",
"201 102 OFFCURVE",
"177 58 OFFCURVE",
"177 12 CURVE SMOOTH",
"177 -24 OFFCURVE",
"192 -52 OFFCURVE",
"208 -80 CURVE SMOOTH",
"226 -112 OFFCURVE",
"244 -146 OFFCURVE",
"244 -197 CURVE SMOOTH",
"244 -220 OFFCURVE",
"235 -245 OFFCURVE",
"228 -249 CURVE",
"220 -245 OFFCURVE",
"212 -220 OFFCURVE",
"212 -197 CURVE SMOOTH",
"212 -146 OFFCURVE",
"230 -112 OFFCURVE",
"248 -80 CURVE SMOOTH",
"264 -52 OFFCURVE",
"279 -24 OFFCURVE",
"279 12 CURVE SMOOTH",
"279 58 OFFCURVE",
"256 100 OFFCURVE",
"196 154 CURVE SMOOTH",
"54 281 LINE",
"65 243 LINE",
"183 138 LINE SMOOTH",
"237 90 OFFCURVE",
"258 52 OFFCURVE",
"258 12 CURVE SMOOTH",
"258 -18 OFFCURVE",
"245 -42 OFFCURVE",
"230 -69 CURVE SMOOTH",
"212 -102 OFFCURVE",
"191 -140 OFFCURVE",
"191 -197 CURVE SMOOTH",
"191 -233 OFFCURVE",
"205 -271 OFFCURVE",
"228 -271 CURVE SMOOTH",
"251 -271 OFFCURVE",
"265 -233 OFFCURVE",
"265 -197 CURVE SMOOTH",
"265 -140 OFFCURVE",
"244 -102 OFFCURVE",
"226 -69 CURVE SMOOTH",
"211 -42 OFFCURVE",
"198 -18 OFFCURVE",
"198 12 CURVE SMOOTH",
"198 52 OFFCURVE",
"220 90 OFFCURVE",
"273 138 CURVE SMOOTH",
"391 243 LINE",
"385 266 LINE"
);
}
);
width = 446;
},
{
associatedMasterId = master01;
layerId = "ED859E2E-4994-4D68-A974-4851D290164B";
name = "Aug 7 20, 17:10";
paths = (
{
closed = 1;
nodes = (
"404 193 OFFCURVE",
"373 82 OFFCURVE",
"316 25 CURVE SMOOTH",
"303 12 OFFCURVE",
"288 1 OFFCURVE",
"272 -5 CURVE",
"267 -34 OFFCURVE",
"254 -57 OFFCURVE",
"241 -79 CURVE SMOOTH",
"234 -92 LINE",
"247 -116 OFFCURVE",
"258 -145 OFFCURVE",
"258 -183 CURVE SMOOTH",
"258 -205 OFFCURVE",
"256 -244 OFFCURVE",
"240 -260 CURVE SMOOTH",
"235 -265 OFFCURVE",
"229 -268 OFFCURVE",
"222 -268 CURVE SMOOTH",
"216 -268 OFFCURVE",
"210 -265 OFFCURVE",
"205 -260 CURVE SMOOTH",
"189 -244 OFFCURVE",
"186 -205 OFFCURVE",
"186 -183 CURVE SMOOTH",
"186 -145 OFFCURVE",
"198 -116 OFFCURVE",
"210 -92 CURVE",
"204 -79 LINE",
"191 -57 OFFCURVE",
"178 -35 OFFCURVE",
"173 -6 CURVE",
"156 1 OFFCURVE",
"141 11 OFFCURVE",
"127 25 CURVE SMOOTH",
"70 82 OFFCURVE",
"40 193 OFFCURVE",
"40 345 CURVE SMOOTH",
"40 598 OFFCURVE",
"123 690 OFFCURVE",
"222 690 CURVE SMOOTH",
"321 690 OFFCURVE",
"404 598 OFFCURVE",
"404 345 CURVE SMOOTH"
);
},
{
closed = 1;
nodes = (
"383 554 OFFCURVE",
"321 669 OFFCURVE",
"222 669 CURVE SMOOTH",
"123 669 OFFCURVE",
"61 554 OFFCURVE",
"61 345 CURVE SMOOTH",
"61 318 OFFCURVE",
"62 293 OFFCURVE",
"64 269 CURVE",
"186 160 LINE SMOOTH",
"199 149 OFFCURVE",
"211 137 OFFCURVE",
"222 125 CURVE",
"234 137 OFFCURVE",
"246 149 OFFCURVE",
"259 160 CURVE SMOOTH",
"380 268 LINE",
"382 292 OFFCURVE",
"383 318 OFFCURVE",
"383 345 CURVE SMOOTH"
);
},
{
closed = 1;
nodes = (
"273 144 LINE SMOOTH",
"260 133 OFFCURVE",
"247 121 OFFCURVE",
"236 109 CURVE",
"258 82 OFFCURVE",
"273 52 OFFCURVE",
"274 19 CURVE",
"327 49 OFFCURVE",
"363 126 OFFCURVE",
"376 237 CURVE"
);
},
{
closed = 1;
nodes = (
"255 40 OFFCURVE",
"242 67 OFFCURVE",
"222 93 CURVE",
"203 67 OFFCURVE",
"190 40 OFFCURVE",
"192 10 CURVE",
"201 7 OFFCURVE",
"211 5 OFFCURVE",
"222 5 CURVE SMOOTH",
"233 5 OFFCURVE",
"243 7 OFFCURVE",
"253 10 CURVE"
);
},
{
closed = 1;
nodes = (
"197 121 OFFCURVE",
"185 133 OFFCURVE",
"172 144 CURVE SMOOTH",
"67 238 LINE",
"78 147 OFFCURVE",
"104 78 OFFCURVE",
"142 40 CURVE SMOOTH",
"151 31 OFFCURVE",
"160 24 OFFCURVE",
"171 18 CURVE",
"171 52 OFFCURVE",
"187 82 OFFCURVE",
"209 109 CURVE"
);
},
{
closed = 1;
nodes = (
"240 -15 OFFCURVE",
"231 -16 OFFCURVE",
"222 -16 CURVE SMOOTH",
"213 -16 OFFCURVE",
"204 -15 OFFCURVE",
"196 -13 CURVE",
"201 -33 OFFCURVE",
"211 -51 OFFCURVE",
"222 -69 CURVE",
"222 -70 LINE",
"223 -69 LINE",
"234 -51 OFFCURVE",
"244 -33 OFFCURVE",
"249 -13 CURVE"
);
},
{
closed = 1;
nodes = (
"237 -156 OFFCURVE",
"231 -134 OFFCURVE",
"222 -115 CURVE",
"214 -134 OFFCURVE",
"207 -156 OFFCURVE",
"207 -183 CURVE SMOOTH",
"207 -225 OFFCURVE",
"215 -247 OFFCURVE",
"222 -247 CURVE SMOOTH",
"230 -247 OFFCURVE",
"237 -225 OFFCURVE",
"237 -183 CURVE SMOOTH"
);
}
);
width = 444;
}
);
leftKerningGroup = O;
leftMetricsKey = O;
rightKerningGroup = O;
rightMetricsKey = O;
unicode = 0051;
},
{
glyphname = R;
lastChange = "2020-10-10 09:55:57 +0000";
layers = (
{
anchors = (
{
name = bottom;
position = "{193, 0}";
},
{
name = top;
position = "{193, 690}";
}
);
background = {
paths = (
{
closed = 1;
nodes = (
"358 7 OFFCURVE",
"355 1 OFFCURVE",
"349 0 CURVE SMOOTH",
"344 -1 OFFCURVE",
"338 2 OFFCURVE",
"336 8 CURVE SMOOTH",
"275 244 LINE SMOOTH",
"264 289 OFFCURVE",
"244 319 OFFCURVE",
"219 341 CURVE",
"197 332 OFFCURVE",
"173 327 OFFCURVE",
"146 327 CURVE SMOOTH",
"124 327 OFFCURVE",
"101 330 OFFCURVE",
"79 336 CURVE",
"79 10 LINE SMOOTH",
"79 5 OFFCURVE",
"74 0 OFFCURVE",
"69 0 CURVE SMOOTH",
"63 0 OFFCURVE",
"58 5 OFFCURVE",
"58 10 CURVE SMOOTH",
"58 343 LINE",
"35 351 OFFCURVE",
"17 361 OFFCURVE",
"7 372 CURVE SMOOTH",
"0 381 OFFCURVE",
"-1 389 OFFCURVE",
"0 394 CURVE SMOOTH",
"1 401 OFFCURVE",
"5 408 OFFCURVE",
"12 412 CURVE SMOOTH",
"24 420 OFFCURVE",
"42 422 OFFCURVE",
"58 421 CURVE",
"58 669 LINE SMOOTH",
"58 674 OFFCURVE",
"63 679 OFFCURVE",
"69 679 CURVE SMOOTH",
"175 679 LINE SMOOTH",
"209 679 OFFCURVE",
"237 668 OFFCURVE",
"260 645 CURVE SMOOTH",
"291 614 OFFCURVE",
"308 562 OFFCURVE",
"308 500 CURVE SMOOTH",
"308 447 OFFCURVE",
"292 401 OFFCURVE",
"261 370 CURVE SMOOTH",
"254 363 OFFCURVE",
"246 357 OFFCURVE",
"238 352 CURVE",
"264 328 OFFCURVE",
"284 295 OFFCURVE",
"296 249 CURVE SMOOTH",
"357 13 LINE SMOOTH"
);
},
{
closed = 1;
nodes = (
"287 556 OFFCURVE",
"272 603 OFFCURVE",
"245 630 CURVE SMOOTH",
"226 649 OFFCURVE",
"203 658 OFFCURVE",
"175 658 CURVE SMOOTH",
"79 658 LINE",
"79 419 LINE",
"87 418 OFFCURVE",
"92 417 OFFCURVE",
"94 416 CURVE SMOOTH",
"138 406 OFFCURVE",
"183 394 OFFCURVE",
"221 366 CURVE",
"234 373 OFFCURVE",
"244 382 OFFCURVE",
"254 393 CURVE SMOOTH",
"276 420 OFFCURVE",
"287 457 OFFCURVE",
"287 500 CURVE SMOOTH"
);
},
{
closed = 1;
nodes = (
"166 377 OFFCURVE",
"128 387 OFFCURVE",
"90 396 CURVE",
"86 396 OFFCURVE",
"83 397 OFFCURVE",
"79 398 CURVE",
"79 358 LINE",
"100 352 OFFCURVE",
"123 348 OFFCURVE",
"146 348 CURVE SMOOTH",
"165 348 OFFCURVE",
"183 351 OFFCURVE",
"199 356 CURVE"
);
},
{
closed = 1;
nodes = (
"58 400 LINE",
"44 401 OFFCURVE",
"30 399 OFFCURVE",
"24 395 CURVE SMOOTH",
"20 392 OFFCURVE",
"20 389 OFFCURVE",
"23 386 CURVE SMOOTH",
"29 379 OFFCURVE",
"42 371 OFFCURVE",
"58 365 CURVE"
);
}
);
};
components = (
{
alignment = -1;
name = _v_stem_UC;
transform = "{1, 0, 0, 1, -2, 0}";
}
);
layerId = master01;
paths = (
{
closed = 1;
nodes = (
"334 8 LINE SMOOTH",
"335 3 OFFCURVE",
"339 0 OFFCURVE",
"344 0 CURVE SMOOTH",
"348 0 OFFCURVE",
"357 2 OFFCURVE",
"355 12 CURVE SMOOTH",
"303 222 LINE SMOOTH",
"269 360 OFFCURVE",
"192 423 OFFCURVE",
"78 423 CURVE SMOOTH",
"40 423 OFFCURVE",
"0 411 OFFCURVE",
"0 386 CURVE SMOOTH",
"0 342 OFFCURVE",
"73 326 OFFCURVE",
"132 326 CURVE SMOOTH",
"240 326 OFFCURVE",
"319 404 OFFCURVE",
"319 515 CURVE SMOOTH",
"319 618 OFFCURVE",
"272 690 OFFCURVE",
"185 690 CURVE SMOOTH",
"68 690 LINE",
"68 669 LINE",
"185 669 LINE SMOOTH",
"262 669 OFFCURVE",
"297 602 OFFCURVE",
"297 515 CURVE SMOOTH",
"297 408 OFFCURVE",
"222 345 OFFCURVE",
"132 345 CURVE SMOOTH",
"88 345 OFFCURVE",
"21 361 OFFCURVE",
"21 385 CURVE SMOOTH",
"21 397 OFFCURVE",
"52 402 OFFCURVE",
"78 402 CURVE SMOOTH",
"183 402 OFFCURVE",
"251 345 OFFCURVE",
"282 218 CURVE SMOOTH"
);
}
);
width = 380;
},
{
associatedMasterId = master01;
layerId = "73F8EC54-7706-4E5B-852A-29569DA5FCB9";
name = "Aug 7 20, 17:11";
paths = (
{
closed = 1;
nodes = (
"398 7 OFFCURVE",
"395 1 OFFCURVE",
"389 0 CURVE SMOOTH",
"384 -1 OFFCURVE",
"378 2 OFFCURVE",
"376 8 CURVE SMOOTH",
"315 244 LINE SMOOTH",
"304 289 OFFCURVE",
"284 319 OFFCURVE",
"259 341 CURVE",
"237 332 OFFCURVE",
"213 327 OFFCURVE",
"186 327 CURVE SMOOTH",
"164 327 OFFCURVE",
"141 330 OFFCURVE",
"119 336 CURVE",
"119 10 LINE SMOOTH",
"119 5 OFFCURVE",
"114 0 OFFCURVE",
"109 0 CURVE SMOOTH",
"103 0 OFFCURVE",
"98 5 OFFCURVE",
"98 10 CURVE SMOOTH",
"98 343 LINE",
"75 351 OFFCURVE",
"57 361 OFFCURVE",
"47 372 CURVE SMOOTH",
"40 381 OFFCURVE",
"39 389 OFFCURVE",
"40 394 CURVE SMOOTH",
"41 401 OFFCURVE",
"45 408 OFFCURVE",
"52 412 CURVE SMOOTH",
"64 420 OFFCURVE",
"82 422 OFFCURVE",
"98 421 CURVE",
"98 669 LINE SMOOTH",
"98 674 OFFCURVE",
"103 679 OFFCURVE",
"109 679 CURVE SMOOTH",
"215 679 LINE SMOOTH",
"249 679 OFFCURVE",
"277 668 OFFCURVE",
"300 645 CURVE SMOOTH",
"331 614 OFFCURVE",
"348 562 OFFCURVE",
"348 500 CURVE SMOOTH",
"348 447 OFFCURVE",
"332 401 OFFCURVE",
"301 370 CURVE SMOOTH",
"294 363 OFFCURVE",
"286 357 OFFCURVE",
"278 352 CURVE",
"304 328 OFFCURVE",
"324 295 OFFCURVE",
"336 249 CURVE SMOOTH",
"397 13 LINE SMOOTH"
);
},
{
closed = 1;
nodes = (
"327 556 OFFCURVE",
"312 603 OFFCURVE",
"285 630 CURVE SMOOTH",
"266 649 OFFCURVE",
"243 658 OFFCURVE",
"215 658 CURVE SMOOTH",
"119 658 LINE",
"119 419 LINE",
"127 418 OFFCURVE",
"132 417 OFFCURVE",
"134 416 CURVE SMOOTH",
"178 406 OFFCURVE",
"223 394 OFFCURVE",
"261 366 CURVE",
"274 373 OFFCURVE",
"284 382 OFFCURVE",
"294 393 CURVE SMOOTH",
"316 420 OFFCURVE",
"327 457 OFFCURVE",
"327 500 CURVE SMOOTH"
);
},
{
closed = 1;
nodes = (
"206 377 OFFCURVE",
"168 387 OFFCURVE",
"130 396 CURVE",
"126 396 OFFCURVE",
"123 397 OFFCURVE",
"119 398 CURVE",
"119 358 LINE",
"140 352 OFFCURVE",
"163 348 OFFCURVE",
"186 348 CURVE SMOOTH",
"205 348 OFFCURVE",
"223 351 OFFCURVE",
"239 356 CURVE"
);
},
{
closed = 1;
nodes = (
"98 400 LINE",
"84 401 OFFCURVE",
"70 399 OFFCURVE",
"64 395 CURVE SMOOTH",
"60 392 OFFCURVE",
"60 389 OFFCURVE",
"63 386 CURVE SMOOTH",
"69 379 OFFCURVE",
"82 371 OFFCURVE",
"98 365 CURVE"
);
}
);
visible = 1;
width = 437;
}
);
leftKerningGroup = H;
leftMetricsKey = K;
rightKerningGroup = R;
unicode = 0052;
},
{
glyphname = S;
lastChange = "2020-10-10 09:56:04 +0000";
layers = (
{
anchors = (
{
name = bottom;
position = "{173, 0}";
},
{
name = top;
position = "{173, 690}";
}
);
background = {
paths = (
{
closed = 1;
nodes = (
"306 547 OFFCURVE",
"309 543 OFFCURVE",
"316 543 CURVE SMOOTH",
"324 543 OFFCURVE",
"327 549 OFFCURVE",
"326 555 CURVE SMOOTH",
"313 635 OFFCURVE",
"249 695 OFFCURVE",
"173 695 CURVE SMOOTH",
"83 695 OFFCURVE",
"20 634 OFFCURVE",
"20 541 CURVE SMOOTH",
"20 444 OFFCURVE",
"80 397 OFFCURVE",
"154 339 CURVE SMOOTH",
"168 328 LINE SMOOTH",
"233 277 OFFCURVE",
"281 234 OFFCURVE",
"281 145 CURVE SMOOTH",
"281 64 OFFCURVE",
"227 21 OFFCURVE",
"164 21 CURVE SMOOTH",
"110 21 OFFCURVE",
"77 50 OFFCURVE",
"60 100 CURVE",
"41 92 LINE",
"61 34 OFFCURVE",
"102 0 OFFCURVE",
"165 0 CURVE SMOOTH",
"230 0 OFFCURVE",
"303 42 OFFCURVE",
"303 145 CURVE SMOOTH",
"303 244 OFFCURVE",
"249 291 OFFCURVE",
"183 343 CURVE SMOOTH",
"164 358 LINE SMOOTH",
"94 413 OFFCURVE",
"42 454 OFFCURVE",
"42 541 CURVE SMOOTH",
"42 639 OFFCURVE",
"113 674 OFFCURVE",
"173 674 CURVE SMOOTH",
"238 674 OFFCURVE",
"295 622 OFFCURVE",
"305 552 CURVE SMOOTH"
);
}
);
};
layerId = master01;
paths = (
{
closed = 1;
nodes = (
"285 661 OFFCURVE",
"244 695 OFFCURVE",
"181 695 CURVE SMOOTH",
"116 695 OFFCURVE",
"43 653 OFFCURVE",
"43 550 CURVE SMOOTH",
"43 451 OFFCURVE",
"97 404 OFFCURVE",
"163 352 CURVE SMOOTH",
"182 337 LINE SMOOTH",
"252 282 OFFCURVE",
"304 241 OFFCURVE",
"304 154 CURVE SMOOTH",
"304 56 OFFCURVE",
"233 21 OFFCURVE",
"173 21 CURVE SMOOTH",
"108 21 OFFCURVE",
"51 73 OFFCURVE",
"41 143 CURVE SMOOTH",
"40 148 OFFCURVE",
"37 152 OFFCURVE",
"30 152 CURVE SMOOTH",
"22 152 OFFCURVE",
"19 146 OFFCURVE",
"20 140 CURVE SMOOTH",
"33 60 OFFCURVE",
"97 0 OFFCURVE",
"173 0 CURVE SMOOTH",
"263 0 OFFCURVE",
"326 61 OFFCURVE",
"326 154 CURVE SMOOTH",
"326 251 OFFCURVE",
"266 298 OFFCURVE",
"192 356 CURVE SMOOTH",
"178 367 LINE SMOOTH",
"113 418 OFFCURVE",
"65 461 OFFCURVE",
"65 550 CURVE SMOOTH",
"65 631 OFFCURVE",
"119 674 OFFCURVE",
"182 674 CURVE SMOOTH",
"236 674 OFFCURVE",
"269 645 OFFCURVE",
"286 595 CURVE SMOOTH",
"288 589 OFFCURVE",
"292 587 OFFCURVE",
"296 587 CURVE SMOOTH",
"304 587 OFFCURVE",
"308 594 OFFCURVE",
"305 603 CURVE SMOOTH"
);
}
);
width = 356;
},
{
associatedMasterId = master01;
layerId = "A477ED93-A7B8-415D-84D4-5D031E7A4CC0";
name = "Aug 7 20, 17:21";
paths = (
{
closed = 1;
nodes = (
"335 108 OFFCURVE",
"321 70 OFFCURVE",
"293 43 CURVE SMOOTH",
"266 15 OFFCURVE",
"227 0 OFFCURVE",
"183 0 CURVE SMOOTH",
"107 0 OFFCURVE",
"42 60 OFFCURVE",
"30 140 CURVE SMOOTH",
"29 145 OFFCURVE",
"33 151 OFFCURVE",
"39 152 CURVE",
"45 152 OFFCURVE",
"50 148 OFFCURVE",
"51 143 CURVE SMOOTH",
"61 73 OFFCURVE",
"118 21 OFFCURVE",
"183 21 CURVE SMOOTH",
"243 21 OFFCURVE",
"314 56 OFFCURVE",
"314 154 CURVE SMOOTH",
"314 245 OFFCURVE",
"257 286 OFFCURVE",
"183 344 CURVE SMOOTH",
"110 401 OFFCURVE",
"54 442 OFFCURVE",
"54 541 CURVE SMOOTH",
"54 639 OFFCURVE",
"125 690 OFFCURVE",
"194 690 CURVE SMOOTH",
"246 690 OFFCURVE",
"291 656 OFFCURVE",
"315 598 CURVE",
"318 593 OFFCURVE",
"315 587 OFFCURVE",
"310 585 CURVE SMOOTH",
"304 582 OFFCURVE",
"298 585 OFFCURVE",
"296 590 CURVE SMOOTH",
"275 640 OFFCURVE",
"237 669 OFFCURVE",
"194 669 CURVE SMOOTH",
"163 669 OFFCURVE",
"132 657 OFFCURVE",
"111 635 CURVE SMOOTH",
"88 612 OFFCURVE",
"75 580 OFFCURVE",
"75 541 CURVE SMOOTH",
"75 451 OFFCURVE",
"125 416 OFFCURVE",
"196 361 CURVE SMOOTH",
"272 301 OFFCURVE",
"335 254 OFFCURVE",
"335 154 CURVE SMOOTH"
);
}
);
width = 365;
}
);
leftKerningGroup = S;
rightKerningGroup = S;
unicode = 0053;
},
{
glyphname = T;
lastChange = "2020-10-10 10:46:21 +0000";
layers = (
{
anchors = (
{
name = bottom;
position = "{189, 0}";
},
{
name = center;
position = "{189, 345}";
},
{
name = top;
position = "{189, 690}";
}
);
components = (
{
name = _v_stem_UC;
transform = "{1, 0, 0, 1, 118, 0}";
}
);
layerId = master01;
paths = (
{
closed = 1;
nodes = (
"363 669 OFFCURVE",
"367 673 OFFCURVE",
"367 680 CURVE SMOOTH",
"367 686 OFFCURVE",
"363 690 OFFCURVE",
"357 690 CURVE SMOOTH",
"20 690 LINE SMOOTH",
"14 690 OFFCURVE",
"10 686 OFFCURVE",
"10 680 CURVE SMOOTH",
"10 673 OFFCURVE",
"14 669 OFFCURVE",
"20 669 CURVE SMOOTH",
"357 669 LINE SMOOTH"
);
}
);
width = 377;
},
{
associatedMasterId = master01;
layerId = "46BF3AAD-77A6-4B16-8AC6-C05BEB3DD8CB";
name = "Aug 7 20, 17:31";
paths = (
{
closed = 1;
nodes = (
"366 662 OFFCURVE",
"362 658 OFFCURVE",
"356 658 CURVE SMOOTH",
"199 658 LINE",
"199 10 LINE SMOOTH",
"199 4 OFFCURVE",
"194 0 OFFCURVE",
"188 0 CURVE SMOOTH",
"182 0 OFFCURVE",
"178 4 OFFCURVE",
"178 10 CURVE SMOOTH",
"178 658 LINE",
"20 658 LINE SMOOTH",
"15 658 OFFCURVE",
"10 662 OFFCURVE",
"10 668 CURVE SMOOTH",
"10 674 OFFCURVE",
"15 679 OFFCURVE",
"20 679 CURVE SMOOTH",
"356 679 LINE SMOOTH",
"362 679 OFFCURVE",
"366 674 OFFCURVE",
"366 668 CURVE SMOOTH"
);
}
);
visible = 1;
width = 376;
}
);
leftKerningGroup = T;
rightKerningGroup = T;
rightMetricsKey = "=|";
unicode = 0054;
},
{
glyphname = U;
lastChange = "2020-10-10 10:04:10 +0000";
layers = (
{
anchors = (
{
name = bottom;
position = "{206, 0}";
},
{
name = ogonek;
position = "{371, 10}";
},
{
name = top;
position = "{206, 690}";
},
{
name = topright;
position = "{392, 690}";
}
);
background = {
paths = (
{
closed = 1;
nodes = (
"50 170 LINE SMOOTH",
"50 164 OFFCURVE",
"54 160 OFFCURVE",
"61 160 CURVE SMOOTH",
"67 160 OFFCURVE",
"71 164 OFFCURVE",
"71 170 CURVE SMOOTH",
"71 680 LINE SMOOTH",
"71 686 OFFCURVE",
"67 690 OFFCURVE",
"61 690 CURVE SMOOTH",
"54 690 OFFCURVE",
"50 686 OFFCURVE",
"50 680 CURVE SMOOTH"
);
},
{
closed = 1;
nodes = (
"362 680 LINE SMOOTH",
"362 686 OFFCURVE",
"358 690 OFFCURVE",
"352 690 CURVE SMOOTH",
"345 690 OFFCURVE",
"341 686 OFFCURVE",
"341 680 CURVE SMOOTH",
"341 157 LINE SMOOTH",
"341 70 OFFCURVE",
"281 20 OFFCURVE",
"205 20 CURVE SMOOTH",
"132 20 OFFCURVE",
"71 70 OFFCURVE",
"71 152 CURVE",
"50 162 LINE",
"50 53 OFFCURVE",
"120 0 OFFCURVE",
"205 0 CURVE SMOOTH",
"292 0 OFFCURVE",
"362 53 OFFCURVE",
"362 162 CURVE SMOOTH"
);
}
);
};
layerId = master01;
paths = (
{
closed = 1;
nodes = (
"306 0 OFFCURVE",
"362 58 OFFCURVE",
"362 162 CURVE SMOOTH",
"362 680 LINE SMOOTH",
"362 686 OFFCURVE",
"358 690 OFFCURVE",
"352 690 CURVE SMOOTH",
"345 690 OFFCURVE",
"341 686 OFFCURVE",
"341 680 CURVE SMOOTH",
"341 157 LINE SMOOTH",
"341 70 OFFCURVE",
"291 20 OFFCURVE",
"206 20 CURVE SMOOTH",
"121 20 OFFCURVE",
"71 70 OFFCURVE",
"71 157 CURVE SMOOTH",
"71 680 LINE SMOOTH",
"71 686 OFFCURVE",
"67 690 OFFCURVE",
"60 690 CURVE SMOOTH",
"54 690 OFFCURVE",
"50 686 OFFCURVE",
"50 680 CURVE SMOOTH",
"50 162 LINE SMOOTH",
"50 58 OFFCURVE",
"106 0 OFFCURVE",
"206 0 CURVE SMOOTH"
);
}
);
width = 412;
},
{
associatedMasterId = master01;
layerId = "B865081D-206B-4FCF-8CBE-7B7F94087CB5";
name = "Aug 7 20, 17:32";
paths = (
{
closed = 1;
nodes = (
"362 110 OFFCURVE",
"348 67 OFFCURVE",
"320 39 CURVE SMOOTH",
"294 13 OFFCURVE",
"256 0 OFFCURVE",
"206 0 CURVE SMOOTH",
"157 0 OFFCURVE",
"118 13 OFFCURVE",
"92 39 CURVE SMOOTH",
"64 67 OFFCURVE",
"50 110 OFFCURVE",
"50 168 CURVE SMOOTH",
"50 679 LINE SMOOTH",
"50 685 OFFCURVE",
"55 690 OFFCURVE",
"60 690 CURVE SMOOTH",
"66 690 OFFCURVE",
"71 685 OFFCURVE",
"71 679 CURVE SMOOTH",
"71 168 LINE SMOOTH",
"71 116 OFFCURVE",
"83 78 OFFCURVE",
"107 54 CURVE SMOOTH",
"129 32 OFFCURVE",
"162 21 OFFCURVE",
"206 21 CURVE SMOOTH",
"298 21 OFFCURVE",
"341 68 OFFCURVE",
"341 168 CURVE SMOOTH",
"341 679 LINE SMOOTH",
"341 685 OFFCURVE",
"346 690 OFFCURVE",
"352 690 CURVE SMOOTH",
"357 690 OFFCURVE",
"362 685 OFFCURVE",
"362 679 CURVE SMOOTH",
"362 168 LINE SMOOTH"
);
}
);
visible = 1;
width = 412;
}
);
leftKerningGroup = U;
rightKerningGroup = U;
rightMetricsKey = "=|";
unicode = 0055;
},
{
glyphname = V;
lastChange = "2020-10-10 10:46:30 +0000";
layers = (
{
anchors = (
{
name = bottom;
position = "{192, 0}";
},
{
name = top;
position = "{192, 690}";
}
);
layerId = master01;
paths = (
{
closed = 1;
nodes = (
"18 690 OFFCURVE",
"14 683 OFFCURVE",
"16 677 CURVE SMOOTH",
"181 8 LINE SMOOTH",
"182 3 OFFCURVE",
"186 0 OFFCURVE",
"191 0 CURVE SMOOTH",
"197 0 OFFCURVE",
"201 3 OFFCURVE",
"202 8 CURVE SMOOTH",
"368 677 LINE SMOOTH",
"370 683 OFFCURVE",
"366 690 OFFCURVE",
"358 690 CURVE SMOOTH",
"353 690 OFFCURVE",
"349 687 OFFCURVE",
"348 682 CURVE SMOOTH",
"184 17 LINE",
"199 17 LINE",
"36 682 LINE SMOOTH",
"35 687 OFFCURVE",
"31 690 OFFCURVE",
"26 690 CURVE SMOOTH"
);
}
);
width = 384;
},
{
associatedMasterId = master01;
layerId = "A703D22F-3EA9-4C16-88D9-931CA75A2109";
name = "Aug 7 20, 17:35";
paths = (
{
closed = 1;
nodes = (
"215 8 LINE SMOOTH",
"214 3 OFFCURVE",
"209 0 OFFCURVE",
"205 0 CURVE SMOOTH",
"200 0 OFFCURVE",
"196 3 OFFCURVE",
"194 8 CURVE",
"30 677 LINE SMOOTH",
"29 682 OFFCURVE",
"32 688 OFFCURVE",
"38 689 CURVE SMOOTH",
"43 691 OFFCURVE",
"49 687 OFFCURVE",
"50 682 CURVE SMOOTH",
"205 54 LINE",
"359 682 LINE SMOOTH",
"360 687 OFFCURVE",
"366 691 OFFCURVE",
"372 689 CURVE SMOOTH",
"377 688 OFFCURVE",
"381 682 OFFCURVE",
"379 677 CURVE"
);
}
);
visible = 1;
width = 409;
}
);
leftKerningGroup = V;
rightKerningGroup = V;
rightMetricsKey = "=|";
unicode = 0056;
},
{
glyphname = W;
lastChange = "2020-10-10 10:04:23 +0000";
layers = (
{
anchors = (
{
name = bottom;
position = "{267, 0}";
},
{
name = top;
position = "{267, 690}";
}
);
background = {
paths = (
{
closed = 1;
nodes = (
"435 22 LINE",
"310 159 OFFCURVE",
"246 278 OFFCURVE",
"246 395 CURVE SMOOTH",
"246 434 OFFCURVE",
"255 460 OFFCURVE",
"267 460 CURVE SMOOTH",
"279 460 OFFCURVE",
"288 434 OFFCURVE",
"288 395 CURVE SMOOTH",
"288 296 OFFCURVE",
"227 162 OFFCURVE",
"136 62 CURVE SMOOTH",
"99 22 LINE",
"115 8 LINE",
"151 48 LINE SMOOTH",
"246 152 OFFCURVE",
"309 290 OFFCURVE",
"309 395 CURVE SMOOTH",
"309 447 OFFCURVE",
"294 480 OFFCURVE",
"267 480 CURVE SMOOTH",
"240 480 OFFCURVE",
"225 447 OFFCURVE",
"225 395 CURVE SMOOTH",
"225 268 OFFCURVE",
"292 148 OFFCURVE",
"424 4 CURVE SMOOTH",
"427 1 OFFCURVE",
"430 0 OFFCURVE",
"433 0 CURVE SMOOTH",
"439 0 OFFCURVE",
"443 4 OFFCURVE",
"443 10 CURVE SMOOTH",
"489 680 LINE SMOOTH",
"489 686 OFFCURVE",
"485 690 OFFCURVE",
"479 690 CURVE SMOOTH",
"472 690 OFFCURVE",
"468 686 OFFCURVE",
"468 680 CURVE SMOOTH",
"423 25 LINE"
);
},
{
closed = 1;
nodes = (
"111 25 LINE",
"66 680 LINE SMOOTH",
"66 686 OFFCURVE",
"62 690 OFFCURVE",
"55 690 CURVE SMOOTH",
"49 690 OFFCURVE",
"45 686 OFFCURVE",
"45 680 CURVE SMOOTH",
"91 10 LINE SMOOTH",
"91 4 OFFCURVE",
"95 0 OFFCURVE",
"101 0 CURVE SMOOTH",
"104 0 OFFCURVE",
"107 1 OFFCURVE",
"110 4 CURVE"
);
}
);
};
layerId = master01;
paths = (
{
closed = 1;
nodes = (
"240 480 OFFCURVE",
"225 447 OFFCURVE",
"225 395 CURVE SMOOTH",
"225 270 OFFCURVE",
"292 148 OFFCURVE",
"424 4 CURVE SMOOTH",
"427 1 OFFCURVE",
"430 0 OFFCURVE",
"433 0 CURVE SMOOTH",
"439 0 OFFCURVE",
"443 4 OFFCURVE",
"443 10 CURVE SMOOTH",
"489 680 LINE SMOOTH",
"489 686 OFFCURVE",
"485 690 OFFCURVE",
"479 690 CURVE SMOOTH",
"472 690 OFFCURVE",
"468 686 OFFCURVE",
"468 680 CURVE SMOOTH",
"423 25 LINE",
"435 22 LINE",
"310 159 OFFCURVE",
"246 278 OFFCURVE",
"246 395 CURVE SMOOTH",
"246 434 OFFCURVE",
"255 460 OFFCURVE",
"267 460 CURVE SMOOTH",
"279 460 OFFCURVE",
"288 434 OFFCURVE",
"288 395 CURVE SMOOTH",
"288 278 OFFCURVE",
"224 159 OFFCURVE",
"99 22 CURVE",
"111 25 LINE",
"66 680 LINE SMOOTH",
"66 686 OFFCURVE",
"62 690 OFFCURVE",
"55 690 CURVE SMOOTH",
"49 690 OFFCURVE",
"45 686 OFFCURVE",
"45 680 CURVE SMOOTH",
"91 10 LINE SMOOTH",
"91 4 OFFCURVE",
"95 0 OFFCURVE",
"101 0 CURVE SMOOTH",
"104 0 OFFCURVE",
"107 1 OFFCURVE",
"110 4 CURVE SMOOTH",
"242 148 OFFCURVE",
"309 270 OFFCURVE",
"309 395 CURVE SMOOTH",
"309 447 OFFCURVE",
"294 480 OFFCURVE",
"267 480 CURVE SMOOTH"
);
}
);
width = 534;
},
{
associatedMasterId = master01;
layerId = "6DBFAD0B-B268-4419-9392-4CEE3FD04CCB";
name = "Aug 7 20, 17:37";
paths = (
{
closed = 1;
nodes = (
"437 9 LINE",
"436 5 OFFCURVE",
"434 2 OFFCURVE",
"430 0 CURVE SMOOTH",
"426 -1 OFFCURVE",
"422 0 OFFCURVE",
"419 3 CURVE SMOOTH",
"351 69 OFFCURVE",
"297 146 OFFCURVE",
"262 225 CURVE",
"228 146 OFFCURVE",
"174 69 OFFCURVE",
"106 3 CURVE SMOOTH",
"103 0 OFFCURVE",
"99 -1 OFFCURVE",
"95 0 CURVE SMOOTH",
"91 2 OFFCURVE",
"88 5 OFFCURVE",
"88 9 CURVE",
"40 678 LINE",
"40 684 OFFCURVE",
"44 689 OFFCURVE",
"50 690 CURVE",
"55 690 OFFCURVE",
"61 686 OFFCURVE",
"61 680 CURVE",
"107 34 LINE",
"171 100 OFFCURVE",
"221 176 OFFCURVE",
"251 252 CURVE",
"237 290 OFFCURVE",
"227 327 OFFCURVE",
"222 364 CURVE SMOOTH",
"219 392 OFFCURVE",
"216 443 OFFCURVE",
"237 466 CURVE SMOOTH",
"244 474 OFFCURVE",
"253 478 OFFCURVE",
"262 478 CURVE SMOOTH",
"272 478 OFFCURVE",
"281 474 OFFCURVE",
"288 466 CURVE SMOOTH",
"308 443 OFFCURVE",
"306 392 OFFCURVE",
"302 364 CURVE SMOOTH",
"298 327 OFFCURVE",
"288 290 OFFCURVE",
"274 252 CURVE",
"304 176 OFFCURVE",
"354 100 OFFCURVE",
"417 34 CURVE",
"464 680 LINE",
"464 686 OFFCURVE",
"469 690 OFFCURVE",
"475 690 CURVE",
"481 689 OFFCURVE",
"485 684 OFFCURVE",
"485 678 CURVE"
);
},
{
closed = 1;
nodes = (
"286 408 OFFCURVE",
"283 440 OFFCURVE",
"272 453 CURVE SMOOTH",
"269 456 OFFCURVE",
"266 457 OFFCURVE",
"262 457 CURVE SMOOTH",
"259 457 OFFCURVE",
"256 456 OFFCURVE",
"253 453 CURVE SMOOTH",
"242 440 OFFCURVE",
"238 408 OFFCURVE",
"243 366 CURVE SMOOTH",
"247 339 OFFCURVE",
"253 311 OFFCURVE",
"262 283 CURVE",
"272 311 OFFCURVE",
"278 339 OFFCURVE",
"281 366 CURVE SMOOTH"
);
}
);
visible = 1;
width = 525;
}
);
leftKerningGroup = W;
rightKerningGroup = W;
rightMetricsKey = "=|";
unicode = 0057;
},
{
glyphname = X;
lastChange = "2020-10-10 10:11:17 +0000";
layers = (
{
anchors = (
{
name = bottom;
position = "{159, 0}";
},
{
name = top;
position = "{159, 690}";
}
);
layerId = master01;
paths = (
{
closed = 1;
nodes = (
"290 683 OFFCURVE",
"285 690 OFFCURVE",
"277 690 CURVE SMOOTH",
"273 690 OFFCURVE",
"270 688 OFFCURVE",
"268 683 CURVE SMOOTH",
"11 14 LINE SMOOTH",
"8 6 OFFCURVE",
"13 0 OFFCURVE",
"21 0 CURVE SMOOTH",
"26 0 OFFCURVE",
"29 2 OFFCURVE",
"30 6 CURVE SMOOTH",
"287 676 LINE SMOOTH"
);
},
{
closed = 1;
nodes = (
"288 6 LINE SMOOTH",
"289 2 OFFCURVE",
"292 0 OFFCURVE",
"297 0 CURVE SMOOTH",
"305 0 OFFCURVE",
"310 6 OFFCURVE",
"307 14 CURVE SMOOTH",
"50 683 LINE SMOOTH",
"48 688 OFFCURVE",
"45 690 OFFCURVE",
"41 690 CURVE SMOOTH",
"33 690 OFFCURVE",
"28 683 OFFCURVE",
"31 676 CURVE SMOOTH"
);
}
);
width = 318;
},
{
associatedMasterId = master01;
layerId = "E77ADF34-5873-4549-B3FB-1A90808FE3E2";
name = "Aug 7 20, 17:41";
paths = (
{
closed = 1;
nodes = (
"323 9 OFFCURVE",
"320 2 OFFCURVE",
"315 0 CURVE SMOOTH",
"310 -2 OFFCURVE",
"304 1 OFFCURVE",
"302 7 CURVE SMOOTH",
"176 338 LINE",
"50 7 LINE SMOOTH",
"48 1 OFFCURVE",
"42 -2 OFFCURVE",
"36 0 CURVE SMOOTH",
"31 2 OFFCURVE",
"28 9 OFFCURVE",
"30 14 CURVE SMOOTH",
"164 368 LINE",
"48 675 LINE SMOOTH",
"46 681 OFFCURVE",
"48 687 OFFCURVE",
"54 689 CURVE SMOOTH",
"59 691 OFFCURVE",
"65 688 OFFCURVE",
"67 683 CURVE SMOOTH",
"176 398 LINE",
"284 683 LINE SMOOTH",
"286 688 OFFCURVE",
"292 691 OFFCURVE",
"297 689 CURVE SMOOTH",
"303 687 OFFCURVE",
"305 681 OFFCURVE",
"303 675 CURVE SMOOTH",
"187 368 LINE",
"321 14 LINE SMOOTH"
);
}
);
visible = 1;
width = 351;
}
);
leftKerningGroup = X;
rightKerningGroup = X;
rightMetricsKey = "=|";
unicode = 0058;
},
{
glyphname = Y;
lastChange = "2020-10-10 10:46:43 +0000";
layers = (
{
anchors = (
{
name = bottom;
position = "{185, 0}";
},
{
name = top;
position = "{185, 690}";
},
{
name = topleft;
position = "{20, 690}";
}
);
layerId = master01;
paths = (
{
closed = 1;
nodes = (
"30 683 LINE SMOOTH",
"29 687 OFFCURVE",
"25 689 OFFCURVE",
"21 689 CURVE SMOOTH",
"15 689 OFFCURVE",
"7 684 OFFCURVE",
"11 675 CURVE SMOOTH",
"176 309 LINE",
"194 309 LINE",
"359 675 LINE SMOOTH",
"363 684 OFFCURVE",
"355 689 OFFCURVE",
"349 689 CURVE SMOOTH",
"345 689 OFFCURVE",
"342 687 OFFCURVE",
"340 683 CURVE SMOOTH",
"178 324 LINE",
"192 326 LINE"
);
},
{
closed = 1;
nodes = (
"195 326 OFFCURVE",
"191 330 OFFCURVE",
"184 330 CURVE SMOOTH",
"178 330 OFFCURVE",
"174 326 OFFCURVE",
"174 320 CURVE SMOOTH",
"174 10 LINE SMOOTH",
"174 4 OFFCURVE",
"178 0 OFFCURVE",
"184 0 CURVE SMOOTH",
"191 0 OFFCURVE",
"195 4 OFFCURVE",
"195 10 CURVE SMOOTH",
"195 320 LINE SMOOTH"
);
}
);
width = 370;
},
{
associatedMasterId = master01;
layerId = "F0013796-8B9D-48A2-A224-645AAD8F8441";
name = "Aug 7 20, 17:42";
paths = (
{
closed = 1;
nodes = (
"204 314 LINE",
"204 10 LINE SMOOTH",
"204 4 OFFCURVE",
"200 0 OFFCURVE",
"194 0 CURVE SMOOTH",
"188 0 OFFCURVE",
"183 4 OFFCURVE",
"183 10 CURVE SMOOTH",
"183 314 LINE",
"20 675 LINE SMOOTH",
"18 680 OFFCURVE",
"20 686 OFFCURVE",
"25 689 CURVE SMOOTH",
"31 691 OFFCURVE",
"37 689 OFFCURVE",
"39 684 CURVE SMOOTH",
"194 341 LINE",
"349 684 LINE SMOOTH",
"351 689 OFFCURVE",
"357 691 OFFCURVE",
"363 689 CURVE SMOOTH",
"368 686 OFFCURVE",
"370 680 OFFCURVE",
"368 675 CURVE SMOOTH"
);
}
);
width = 388;
}
);
leftKerningGroup = Y;
rightKerningGroup = Y;
rightMetricsKey = "=|";
unicode = 0059;
},
{
glyphname = Z;
lastChange = "2020-10-10 10:46:48 +0000";
layers = (
{
anchors = (
{
name = bottom;
position = "{155, 0}";
},
{
name = center;
position = "{155, 345}";
},
{
name = top;
position = "{155, 690}";
}
);
layerId = master01;
paths = (
{
closed = 1;
nodes = (
"15 4 OFFCURVE",
"20 0 OFFCURVE",
"25 0 CURVE SMOOTH",
"284 0 LINE SMOOTH",
"290 0 OFFCURVE",
"294 4 OFFCURVE",
"294 11 CURVE SMOOTH",
"294 17 OFFCURVE",
"290 21 OFFCURVE",
"284 21 CURVE SMOOTH",
"32 21 LINE",
"36 14 LINE",
"282 673 LINE SMOOTH",
"283 676 OFFCURVE",
"284 679 OFFCURVE",
"284 682 CURVE SMOOTH",
"284 686 OFFCURVE",
"281 690 OFFCURVE",
"274 690 CURVE SMOOTH",
"35 690 LINE SMOOTH",
"29 690 OFFCURVE",
"25 686 OFFCURVE",
"25 680 CURVE SMOOTH",
"25 673 OFFCURVE",
"29 669 OFFCURVE",
"35 669 CURVE SMOOTH",
"268 669 LINE",
"262 678 LINE",
"17 19 LINE SMOOTH",
"16 16 OFFCURVE",
"15 13 OFFCURVE",
"15 9 CURVE SMOOTH"
);
}
);
width = 309;
},
{
associatedMasterId = master01;
layerId = "2A51EF4F-F14C-463F-B76F-541B649A983D";
name = "Aug 7 20, 17:46";
paths = (
{
closed = 1;
nodes = (
"308 16 OFFCURVE",
"304 11 OFFCURVE",
"298 11 CURVE SMOOTH",
"40 11 LINE SMOOTH",
"36 11 OFFCURVE",
"33 13 OFFCURVE",
"31 15 CURVE SMOOTH",
"29 18 OFFCURVE",
"29 22 OFFCURVE",
"30 25 CURVE SMOOTH",
"279 658 LINE",
"59 658 LINE SMOOTH",
"53 658 OFFCURVE",
"49 662 OFFCURVE",
"49 668 CURVE SMOOTH",
"49 674 OFFCURVE",
"53 679 OFFCURVE",
"59 679 CURVE SMOOTH",
"295 679 LINE SMOOTH",
"298 679 OFFCURVE",
"301 677 OFFCURVE",
"303 674 CURVE SMOOTH",
"305 671 OFFCURVE",
"306 668 OFFCURVE",
"305 664 CURVE SMOOTH",
"55 32 LINE",
"298 32 LINE SMOOTH",
"304 32 OFFCURVE",
"308 27 OFFCURVE",
"308 21 CURVE SMOOTH"
);
}
);
width = 338;
}
);
leftKerningGroup = Z;
rightKerningGroup = Z;
rightMetricsKey = "=|";
unicode = 005A;
},
{
glyphname = bracketleft;
lastChange = "2020-10-02 15:10:59 +0000";
layers = (
{
layerId = master01;
paths = (
{
closed = 1;
nodes = (
"193 -48 OFFCURVE",
"188 -43 OFFCURVE",
"183 -43 CURVE SMOOTH",
"81 -43 LINE",
"81 727 LINE",
"183 727 LINE SMOOTH",
"188 727 OFFCURVE",
"193 732 OFFCURVE",
"193 738 CURVE SMOOTH",
"193 744 OFFCURVE",
"188 748 OFFCURVE",
"183 748 CURVE SMOOTH",
"70 748 LINE SMOOTH",
"65 748 OFFCURVE",
"60 744 OFFCURVE",
"60 738 CURVE SMOOTH",
"60 -54 LINE SMOOTH",
"60 -59 OFFCURVE",
"65 -64 OFFCURVE",
"70 -64 CURVE SMOOTH",
"183 -64 LINE SMOOTH",
"188 -64 OFFCURVE",
"193 -59 OFFCURVE",
"193 -54 CURVE SMOOTH"
);
}
);
width = 193;
}
);
leftKerningGroup = H;
leftMetricsKey = H;
rightKerningGroup = parenleft;
unicode = 005B;
},
{
glyphname = backslash;
lastChange = "2020-10-10 10:34:41 +0000";
layers = (
{
background = {
paths = (
{
closed = 1;
nodes = (
"293 -7 OFFCURVE",
"290 -13 OFFCURVE",
"284 -15 CURVE SMOOTH",
"279 -17 OFFCURVE",
"273 -14 OFFCURVE",
"271 -8 CURVE SMOOTH",
"40 691 LINE SMOOTH",
"38 697 OFFCURVE",
"41 703 OFFCURVE",
"47 704 CURVE SMOOTH",
"52 706 OFFCURVE",
"58 703 OFFCURVE",
"60 698 CURVE SMOOTH",
"291 -2 LINE SMOOTH"
);
}
);
};
components = (
{
name = slash;
transform = "{-1, 0, 0, 1, 292, 0}";
}
);
layerId = master01;
width = 292;
},
{
associatedMasterId = master01;
layerId = "1411B8CA-9F6B-4057-A0FE-94519A3DC85D";
name = "Aug 9 20, 14:57";
paths = (
{
closed = 1;
nodes = (
"293 -7 OFFCURVE",
"290 -13 OFFCURVE",
"284 -15 CURVE SMOOTH",
"279 -17 OFFCURVE",
"273 -14 OFFCURVE",
"271 -8 CURVE SMOOTH",
"40 691 LINE SMOOTH",
"38 697 OFFCURVE",
"41 703 OFFCURVE",
"47 704 CURVE SMOOTH",
"52 706 OFFCURVE",
"58 703 OFFCURVE",
"60 698 CURVE SMOOTH",
"291 -2 LINE SMOOTH"
);
}
);
width = 331;
}
);
leftKerningGroup = backslash;
leftMetricsKey = "=|slash";
rightKerningGroup = backslash;
rightMetricsKey = "=|slash";
unicode = 005C;
},
{
glyphname = bracketright;
lastChange = "2020-10-02 15:10:59 +0000";
layers = (
{
components = (
{
name = bracketleft;
transform = "{-1, 0, 0, 1, 193, 0}";
}
);
layerId = master01;
width = 193;
},
{
associatedMasterId = master01;
layerId = "606763DA-18AF-4BF9-9A15-89B59CB8A186";
name = "Aug 9 20, 14:01";
paths = (
{
closed = 1;
nodes = (
"173 -129 OFFCURVE",
"168 -134 OFFCURVE",
"163 -134 CURVE SMOOTH",
"50 -134 LINE SMOOTH",
"45 -134 OFFCURVE",
"40 -129 OFFCURVE",
"40 -124 CURVE SMOOTH",
"40 -118 OFFCURVE",
"45 -113 OFFCURVE",
"50 -113 CURVE SMOOTH",
"152 -113 LINE",
"152 657 LINE",
"50 657 LINE SMOOTH",
"45 657 OFFCURVE",
"40 662 OFFCURVE",
"40 668 CURVE SMOOTH",
"40 674 OFFCURVE",
"45 678 OFFCURVE",
"50 678 CURVE SMOOTH",
"163 678 LINE SMOOTH",
"168 678 OFFCURVE",
"173 674 OFFCURVE",
"173 668 CURVE SMOOTH",
"173 -124 LINE SMOOTH"
);
}
);
width = 233;
}
);
leftKerningGroup = parenright;
leftMetricsKey = "=|bracketleft";
rightKerningGroup = H;
rightMetricsKey = "=|bracketleft";
unicode = 005D;
},
{
glyphname = asciicircum;
lastChange = "2020-08-14 14:01:13 +0000";
layers = (
{
background = {
paths = (
{
closed = 1;
nodes = (
"18 315 OFFCURVE",
"20 309 OFFCURVE",
"26 306 CURVE SMOOTH",
"31 304 OFFCURVE",
"37 306 OFFCURVE",
"40 311 CURVE SMOOTH",
"213 665 LINE",
"203 665 LINE",
"376 311 LINE SMOOTH",
"378 307 OFFCURVE",
"381 305 OFFCURVE",
"386 305 CURVE SMOOTH",
"394 305 OFFCURVE",
"398 313 OFFCURVE",
"395 320 CURVE SMOOTH",
"217 684 LINE SMOOTH",
"216 687 OFFCURVE",
"213 690 OFFCURVE",
"208 690 CURVE SMOOTH",
"203 690 OFFCURVE",
"200 688 OFFCURVE",
"198 684 CURVE SMOOTH",
"21 320 LINE SMOOTH"
);
}
);
};
layerId = master01;
paths = (
{
closed = 1;
nodes = (
"218 684 LINE SMOOTH",
"216 688 OFFCURVE",
"213 690 OFFCURVE",
"208 690 CURVE SMOOTH",
"203 690 OFFCURVE",
"200 687 OFFCURVE",
"199 684 CURVE SMOOTH",
"21 320 LINE SMOOTH",
"18 313 OFFCURVE",
"22 305 OFFCURVE",
"30 305 CURVE SMOOTH",
"35 305 OFFCURVE",
"38 307 OFFCURVE",
"40 311 CURVE SMOOTH",
"213 665 LINE",
"203 665 LINE",
"376 311 LINE SMOOTH",
"378 307 OFFCURVE",
"381 305 OFFCURVE",
"386 305 CURVE SMOOTH",
"394 305 OFFCURVE",
"398 313 OFFCURVE",
"395 320 CURVE SMOOTH"
);
}
);
width = 416;
},
{
associatedMasterId = master01;
layerId = "6EF33242-7894-45AE-BC10-666009A76F89";
name = "Aug 9 20, 14:58";
paths = (
{
closed = 1;
nodes = (
"417 304 OFFCURVE",
"415 298 OFFCURVE",
"409 295 CURVE SMOOTH",
"404 293 OFFCURVE",
"398 295 OFFCURVE",
"395 300 CURVE SMOOTH",
"227 644 LINE",
"59 300 LINE SMOOTH",
"56 295 OFFCURVE",
"50 293 OFFCURVE",
"45 295 CURVE SMOOTH",
"40 298 OFFCURVE",
"37 304 OFFCURVE",
"40 309 CURVE SMOOTH",
"218 673 LINE SMOOTH",
"219 676 OFFCURVE",
"223 679 OFFCURVE",
"227 679 CURVE SMOOTH",
"231 679 OFFCURVE",
"235 676 OFFCURVE",
"237 673 CURVE SMOOTH",
"414 309 LINE SMOOTH"
);
}
);
width = 454;
}
);
rightMetricsKey = "=|";
unicode = 005E;
},
{
glyphname = underscore;
lastChange = "2020-10-02 14:59:12 +0000";
layers = (
{
background = {
paths = (
{
closed = 1;
nodes = (
"516 3 OFFCURVE",
"512 -1 OFFCURVE",
"506 -1 CURVE SMOOTH",
"50 -1 LINE SMOOTH",
"45 -1 OFFCURVE",
"40 3 OFFCURVE",
"40 10 CURVE SMOOTH",
"40 17 OFFCURVE",
"45 20 OFFCURVE",
"50 20 CURVE SMOOTH",
"506 20 LINE SMOOTH",
"512 20 OFFCURVE",
"516 17 OFFCURVE",
"516 10 CURVE SMOOTH"
);
}
);
};
layerId = master01;
paths = (
{
closed = 1;
nodes = (
"516 -17 OFFCURVE",
"512 -21 OFFCURVE",
"506 -21 CURVE SMOOTH",
"50 -21 LINE SMOOTH",
"45 -21 OFFCURVE",
"40 -17 OFFCURVE",
"40 -10 CURVE SMOOTH",
"40 -3 OFFCURVE",
"45 0 OFFCURVE",
"50 0 CURVE SMOOTH",
"506 0 LINE SMOOTH",
"512 0 OFFCURVE",
"516 -3 OFFCURVE",
"516 -10 CURVE SMOOTH"
);
}
);
width = 556;
}
);
leftMetricsKey = hyphen;
rightMetricsKey = hyphen;
unicode = 005F;
},
{
color = 9;
glyphname = grave;
lastChange = "2020-08-14 16:10:21 +0000";
layers = (
{
background = {
paths = (
{
closed = 1;
nodes = (
"148 536 OFFCURVE",
"146 530 OFFCURVE",
"141 527 CURVE SMOOTH",
"136 524 OFFCURVE",
"130 526 OFFCURVE",
"127 530 CURVE SMOOTH",
"40 674 LINE SMOOTH",
"37 679 OFFCURVE",
"39 685 OFFCURVE",
"44 688 CURVE SMOOTH",
"49 691 OFFCURVE",
"55 690 OFFCURVE",
"58 685 CURVE SMOOTH",
"145 541 LINE SMOOTH"
);
}
);
};
components = (
{
name = gravecomb;
}
);
layerId = master01;
width = 201;
}
);
unicode = 0060;
},
{
glyphname = a;
lastChange = "2020-10-10 10:43:15 +0000";
layers = (
{
anchors = (
{
name = bottom;
position = "{154, 0}";
},
{
name = ogonek;
position = "{284, 10}";
},
{
name = top;
position = "{154, 477}";
}
);
background = {
paths = (
{
closed = 1;
nodes = (
"278 4 OFFCURVE",
"267 0 OFFCURVE",
"255 0 CURVE SMOOTH",
"244 0 OFFCURVE",
"235 3 OFFCURVE",
"229 9 CURVE SMOOTH",
"219 18 OFFCURVE",
"216 33 OFFCURVE",
"216 54 CURVE",
"188 33 OFFCURVE",
"142 0 OFFCURVE",
"107 0 CURVE SMOOTH",
"85 0 OFFCURVE",
"68 6 OFFCURVE",
"55 19 CURVE SMOOTH",
"39 35 OFFCURVE",
"31 60 OFFCURVE",
"31 94 CURVE SMOOTH",
"31 163 OFFCURVE",
"59 207 OFFCURVE",
"128 238 CURVE SMOOTH",
"216 276 LINE",
"216 345 LINE SMOOTH",
"216 395 OFFCURVE",
"208 425 OFFCURVE",
"192 442 CURVE SMOOTH",
"182 452 OFFCURVE",
"168 456 OFFCURVE",
"150 456 CURVE SMOOTH",
"110 456 OFFCURVE",
"79 414 OFFCURVE",
"70 401 CURVE SMOOTH",
"67 397 OFFCURVE",
"61 395 OFFCURVE",
"56 398 CURVE SMOOTH",
"51 402 OFFCURVE",
"50 408 OFFCURVE",
"53 413 CURVE SMOOTH",
"63 428 OFFCURVE",
"99 477 OFFCURVE",
"150 477 CURVE SMOOTH",
"174 477 OFFCURVE",
"193 470 OFFCURVE",
"207 457 CURVE SMOOTH",
"227 436 OFFCURVE",
"237 401 OFFCURVE",
"237 345 CURVE SMOOTH",
"237 66 LINE SMOOTH",
"237 49 OFFCURVE",
"237 30 OFFCURVE",
"244 24 CURVE",
"245 23 OFFCURVE",
"248 21 OFFCURVE",
"255 21 CURVE SMOOTH",
"264 21 OFFCURVE",
"269 25 OFFCURVE",
"271 28 CURVE SMOOTH",
"275 32 OFFCURVE",
"282 32 OFFCURVE",
"286 28 CURVE SMOOTH",
"290 24 OFFCURVE",
"291 17 OFFCURVE",
"287 13 CURVE SMOOTH"
);
},
{
closed = 1;
nodes = (
"216 253 LINE",
"137 219 LINE SMOOTH",
"76 192 OFFCURVE",
"52 154 OFFCURVE",
"52 94 CURVE SMOOTH",
"52 66 OFFCURVE",
"58 46 OFFCURVE",
"70 34 CURVE SMOOTH",
"79 25 OFFCURVE",
"91 21 OFFCURVE",
"107 21 CURVE SMOOTH",
"140 21 OFFCURVE",
"194 64 OFFCURVE",
"214 80 CURVE SMOOTH",
"216 81 LINE"
);
}
);
};
layerId = master01;
paths = (
{
closed = 1;
nodes = (
"146 0 OFFCURVE",
"175 16 OFFCURVE",
"224 62 CURVE",
"224 87 LINE",
"171 38 OFFCURVE",
"142 21 OFFCURVE",
"113 21 CURVE SMOOTH",
"74 21 OFFCURVE",
"52 49 OFFCURVE",
"52 98 CURVE SMOOTH",
"52 155 OFFCURVE",
"79 194 OFFCURVE",
"137 219 CURVE SMOOTH",
"227 258 LINE",
"227 281 LINE",
"128 238 LINE SMOOTH",
"62 209 OFFCURVE",
"30 164 OFFCURVE",
"30 98 CURVE SMOOTH",
"30 38 OFFCURVE",
"62 0 OFFCURVE",
"113 0 CURVE SMOOTH"
);
},
{
closed = 1;
nodes = (
"268 0 OFFCURVE",
"278 4 OFFCURVE",
"287 13 CURVE SMOOTH",
"289 15 OFFCURVE",
"290 18 OFFCURVE",
"290 20 CURVE SMOOTH",
"290 26 OFFCURVE",
"285 31 OFFCURVE",
"279 31 CURVE SMOOTH",
"276 31 OFFCURVE",
"274 30 OFFCURVE",
"272 28 CURVE SMOOTH",
"268 24 OFFCURVE",
"261 21 OFFCURVE",
"255 21 CURVE SMOOTH",
"243 21 OFFCURVE",
"237 29 OFFCURVE",
"237 44 CURVE SMOOTH",
"237 371 LINE SMOOTH",
"237 444 OFFCURVE",
"208 482 OFFCURVE",
"154 482 CURVE SMOOTH",
"113 482 OFFCURVE",
"79 459 OFFCURVE",
"53 413 CURVE SMOOTH",
"52 411 OFFCURVE",
"51 408 OFFCURVE",
"51 406 CURVE SMOOTH",
"51 401 OFFCURVE",
"56 396 OFFCURVE",
"62 396 CURVE SMOOTH",
"65 396 OFFCURVE",
"68 398 OFFCURVE",
"70 401 CURVE SMOOTH",
"95 443 OFFCURVE",
"121 461 OFFCURVE",
"154 461 CURVE SMOOTH",
"196 461 OFFCURVE",
"216 432 OFFCURVE",
"216 371 CURVE SMOOTH",
"216 44 LINE SMOOTH",
"216 15 OFFCURVE",
"230 0 OFFCURVE",
"255 0 CURVE SMOOTH"
);
}
);
width = 315;
},
{
associatedMasterId = master01;
layerId = "E406A844-5466-4CED-BEBD-22DC09782252";
name = "Aug 9 20, 10:45";
paths = (
{
closed = 1;
nodes = (
"287 4 OFFCURVE",
"276 0 OFFCURVE",
"264 0 CURVE SMOOTH",
"253 0 OFFCURVE",
"244 3 OFFCURVE",
"238 9 CURVE SMOOTH",
"228 18 OFFCURVE",
"225 33 OFFCURVE",
"225 54 CURVE",
"197 33 OFFCURVE",
"151 0 OFFCURVE",
"116 0 CURVE SMOOTH",
"94 0 OFFCURVE",
"77 6 OFFCURVE",
"64 19 CURVE SMOOTH",
"48 35 OFFCURVE",
"40 60 OFFCURVE",
"40 94 CURVE SMOOTH",
"40 163 OFFCURVE",
"68 207 OFFCURVE",
"137 238 CURVE SMOOTH",
"225 276 LINE",
"225 345 LINE SMOOTH",
"225 395 OFFCURVE",
"217 425 OFFCURVE",
"201 442 CURVE SMOOTH",
"191 452 OFFCURVE",
"177 456 OFFCURVE",
"159 456 CURVE SMOOTH",
"119 456 OFFCURVE",
"88 414 OFFCURVE",
"79 401 CURVE SMOOTH",
"76 397 OFFCURVE",
"70 395 OFFCURVE",
"65 398 CURVE SMOOTH",
"60 402 OFFCURVE",
"59 408 OFFCURVE",
"62 413 CURVE SMOOTH",
"72 428 OFFCURVE",
"108 477 OFFCURVE",
"159 477 CURVE SMOOTH",
"183 477 OFFCURVE",
"202 470 OFFCURVE",
"216 457 CURVE SMOOTH",
"236 436 OFFCURVE",
"246 401 OFFCURVE",
"246 345 CURVE SMOOTH",
"246 66 LINE SMOOTH",
"246 49 OFFCURVE",
"246 30 OFFCURVE",
"253 24 CURVE",
"254 23 OFFCURVE",
"257 21 OFFCURVE",
"264 21 CURVE SMOOTH",
"273 21 OFFCURVE",
"278 25 OFFCURVE",
"280 28 CURVE SMOOTH",
"284 32 OFFCURVE",
"291 32 OFFCURVE",
"295 28 CURVE SMOOTH",
"299 24 OFFCURVE",
"300 17 OFFCURVE",
"296 13 CURVE SMOOTH"
);
},
{
closed = 1;
nodes = (
"225 253 LINE",
"146 219 LINE SMOOTH",
"85 192 OFFCURVE",
"61 154 OFFCURVE",
"61 94 CURVE SMOOTH",
"61 66 OFFCURVE",
"67 46 OFFCURVE",
"79 34 CURVE SMOOTH",
"88 25 OFFCURVE",
"100 21 OFFCURVE",
"116 21 CURVE SMOOTH",
"149 21 OFFCURVE",
"203 64 OFFCURVE",
"223 80 CURVE SMOOTH",
"225 81 LINE"
);
}
);
width = 326;
}
);
leftKerningGroup = a;
rightKerningGroup = a;
unicode = 0061;
},
{
glyphname = b;
lastChange = "2020-10-02 15:10:59 +0000";
layers = (
{
anchors = (
{
name = bottom;
position = "{149, 0}";
},
{
name = top;
position = "{149, 713}";
}
);
background = {
paths = (
{
closed = 1;
nodes = (
"77 398 LINE",
"93 438 OFFCURVE",
"126 462 OFFCURVE",
"153 462 CURVE SMOOTH",
"206 462 OFFCURVE",
"236 367 OFFCURVE",
"236 239 CURVE SMOOTH",
"236 111 OFFCURVE",
"209 16 OFFCURVE",
"153 16 CURVE SMOOTH",
"126 16 OFFCURVE",
"94 39 OFFCURVE",
"78 81 CURVE",
"68 62 LINE",
"88 19 OFFCURVE",
"120 -5 OFFCURVE",
"153 -5 CURVE SMOOTH",
"223 -5 OFFCURVE",
"258 97 OFFCURVE",
"258 239 CURVE SMOOTH",
"258 381 OFFCURVE",
"220 483 OFFCURVE",
"153 483 CURVE SMOOTH",
"122 483 OFFCURVE",
"86 462 OFFCURVE",
"66 425 CURVE"
);
}
);
};
components = (
{
name = _v_stem_lc;
}
);
layerId = master01;
paths = (
{
closed = 1;
nodes = (
"88 19 OFFCURVE",
"120 -5 OFFCURVE",
"153 -5 CURVE SMOOTH",
"223 -5 OFFCURVE",
"258 97 OFFCURVE",
"258 239 CURVE SMOOTH",
"258 380 OFFCURVE",
"223 482 OFFCURVE",
"153 482 CURVE SMOOTH",
"120 482 OFFCURVE",
"88 458 OFFCURVE",
"68 416 CURVE",
"78 397 LINE",
"94 438 OFFCURVE",
"126 461 OFFCURVE",
"153 461 CURVE SMOOTH",
"209 461 OFFCURVE",
"236 366 OFFCURVE",
"236 239 CURVE SMOOTH",
"236 111 OFFCURVE",
"209 16 OFFCURVE",
"153 16 CURVE SMOOTH",
"126 16 OFFCURVE",
"94 39 OFFCURVE",
"78 81 CURVE",
"68 62 LINE"
);
}
);
width = 298;
},
{
associatedMasterId = master01;
layerId = "5D8BB13F-8750-4065-A9C9-2E574CB5F9D2";
name = "Aug 9 20, 11:01";
paths = (
{
closed = 1;
nodes = (
"242 142 OFFCURVE",
"219 62 OFFCURVE",
"181 24 CURVE SMOOTH",
"165 8 OFFCURVE",
"146 0 OFFCURVE",
"128 0 CURVE SMOOTH",
"103 0 OFFCURVE",
"79 8 OFFCURVE",
"61 23 CURVE",
"61 10 LINE SMOOTH",
"61 4 OFFCURVE",
"56 0 OFFCURVE",
"50 0 CURVE SMOOTH",
"45 0 OFFCURVE",
"40 4 OFFCURVE",
"40 10 CURVE SMOOTH",
"40 703 LINE SMOOTH",
"40 708 OFFCURVE",
"45 713 OFFCURVE",
"50 713 CURVE SMOOTH",
"56 713 OFFCURVE",
"61 708 OFFCURVE",
"61 703 CURVE SMOOTH",
"61 454 LINE",
"79 469 OFFCURVE",
"103 477 OFFCURVE",
"128 477 CURVE SMOOTH",
"146 477 OFFCURVE",
"165 469 OFFCURVE",
"181 453 CURVE SMOOTH",
"219 415 OFFCURVE",
"242 335 OFFCURVE",
"242 238 CURVE SMOOTH"
);
},
{
closed = 1;
nodes = (
"221 329 OFFCURVE",
"200 404 OFFCURVE",
"166 438 CURVE SMOOTH",
"154 450 OFFCURVE",
"141 456 OFFCURVE",
"128 456 CURVE SMOOTH",
"101 456 OFFCURVE",
"75 444 OFFCURVE",
"61 424 CURVE",
"61 53 LINE",
"75 33 OFFCURVE",
"101 21 OFFCURVE",
"128 21 CURVE SMOOTH",
"173 21 OFFCURVE",
"221 97 OFFCURVE",
"221 238 CURVE SMOOTH"
);
}
);
width = 282;
}
);
leftKerningGroup = l;
leftMetricsKey = n;
rightKerningGroup = o;
rightMetricsKey = o;
unicode = 0062;
},
{
glyphname = c;
lastChange = "2020-10-09 15:48:56 +0000";
layers = (
{
anchors = (
{
name = bottom;
position = "{143, 0}";
},
{
name = top;
position = "{142, 477}";
}
);
background = {
paths = (
{
closed = 1;
nodes = (
"211 48 OFFCURVE",
"187 16 OFFCURVE",
"154 16 CURVE SMOOTH",
"101 16 OFFCURVE",
"62 111 OFFCURVE",
"62 239 CURVE SMOOTH",
"62 367 OFFCURVE",
"101 462 OFFCURVE",
"154 462 CURVE SMOOTH",
"184 462 OFFCURVE",
"210 431 OFFCURVE",
"227 381 CURVE",
"247 388 LINE",
"227 447 OFFCURVE",
"194 483 OFFCURVE",
"154 483 CURVE SMOOTH",
"87 483 OFFCURVE",
"40 383 OFFCURVE",
"40 239 CURVE SMOOTH",
"40 95 OFFCURVE",
"87 -5 OFFCURVE",
"154 -5 CURVE SMOOTH",
"197 -5 OFFCURVE",
"227 31 OFFCURVE",
"246 88 CURVE SMOOTH",
"249 96 OFFCURVE",
"246 105 OFFCURVE",
"237 105 CURVE SMOOTH",
"231 105 OFFCURVE",
"228 102 OFFCURVE",
"226 96 CURVE SMOOTH"
);
}
);
};
layerId = master01;
paths = (
{
closed = 1;
nodes = (
"197 -5 OFFCURVE",
"227 31 OFFCURVE",
"246 88 CURVE SMOOTH",
"249 96 OFFCURVE",
"246 105 OFFCURVE",
"237 105 CURVE SMOOTH",
"231 105 OFFCURVE",
"228 102 OFFCURVE",
"226 96 CURVE SMOOTH",
"211 48 OFFCURVE",
"187 16 OFFCURVE",
"154 16 CURVE SMOOTH",
"101 16 OFFCURVE",
"62 111 OFFCURVE",
"62 239 CURVE SMOOTH",
"62 366 OFFCURVE",
"101 461 OFFCURVE",
"154 461 CURVE SMOOTH",
"187 461 OFFCURVE",
"211 429 OFFCURVE",
"226 382 CURVE SMOOTH",
"228 376 OFFCURVE",
"231 373 OFFCURVE",
"237 373 CURVE SMOOTH",
"246 373 OFFCURVE",
"249 382 OFFCURVE",
"246 390 CURVE SMOOTH",
"227 446 OFFCURVE",
"197 482 OFFCURVE",
"154 482 CURVE SMOOTH",
"87 482 OFFCURVE",
"40 382 OFFCURVE",
"40 239 CURVE SMOOTH",
"40 95 OFFCURVE",
"87 -5 OFFCURVE",
"154 -5 CURVE SMOOTH"
);
}
);
width = 275;
},
{
associatedMasterId = master01;
layerId = "E03F2839-ADC5-4D26-A21E-E834EDC78672";
name = "Aug 9 20, 11:05";
paths = (
{
closed = 1;
nodes = (
"224 33 OFFCURVE",
"191 0 OFFCURVE",
"153 0 CURVE SMOOTH",
"134 0 OFFCURVE",
"116 8 OFFCURVE",
"101 24 CURVE SMOOTH",
"62 62 OFFCURVE",
"40 140 OFFCURVE",
"40 239 CURVE SMOOTH",
"40 379 OFFCURVE",
"86 477 OFFCURVE",
"153 477 CURVE SMOOTH",
"191 477 OFFCURVE",
"224 444 OFFCURVE",
"245 386 CURVE SMOOTH",
"247 380 OFFCURVE",
"244 374 OFFCURVE",
"239 372 CURVE SMOOTH",
"233 371 OFFCURVE",
"227 373 OFFCURVE",
"225 379 CURVE SMOOTH",
"208 428 OFFCURVE",
"181 456 OFFCURVE",
"153 456 CURVE SMOOTH",
"140 456 OFFCURVE",
"127 450 OFFCURVE",
"115 439 CURVE SMOOTH",
"81 405 OFFCURVE",
"61 330 OFFCURVE",
"61 239 CURVE SMOOTH",
"61 147 OFFCURVE",
"81 73 OFFCURVE",
"115 39 CURVE SMOOTH",
"127 27 OFFCURVE",
"140 21 OFFCURVE",
"153 21 CURVE SMOOTH",
"181 21 OFFCURVE",
"208 49 OFFCURVE",
"225 98 CURVE SMOOTH",
"227 104 OFFCURVE",
"233 107 OFFCURVE",
"239 105 CURVE SMOOTH",
"244 103 OFFCURVE",
"247 97 OFFCURVE",
"245 91 CURVE SMOOTH"
);
}
);
width = 275;
}
);
leftKerningGroup = o;
leftMetricsKey = o;
rightKerningGroup = o;
unicode = 0063;
},
{
glyphname = d;
lastChange = "2020-10-02 15:10:59 +0000";
layers = (
{
anchors = (
{
name = bottom;
position = "{149, 0}";
},
{
name = center;
position = "{149, 239}";
},
{
name = top;
position = "{149, 713}";
},
{
name = topright;
position = "{278, 477}";
}
);
background = {
paths = (
{
closed = 1;
nodes = (
"243 4 OFFCURVE",
"238 0 OFFCURVE",
"232 0 CURVE SMOOTH",
"226 0 OFFCURVE",
"222 4 OFFCURVE",
"222 10 CURVE SMOOTH",
"222 23 LINE",
"203 8 OFFCURVE",
"179 0 OFFCURVE",
"155 0 CURVE SMOOTH",
"136 0 OFFCURVE",
"118 8 OFFCURVE",
"102 24 CURVE SMOOTH",
"64 62 OFFCURVE",
"41 142 OFFCURVE",
"41 239 CURVE SMOOTH",
"41 307 OFFCURVE",
"52 366 OFFCURVE",
"72 409 CURVE SMOOTH",
"93 453 OFFCURVE",
"122 477 OFFCURVE",
"155 477 CURVE SMOOTH",
"179 477 OFFCURVE",
"203 469 OFFCURVE",
"222 454 CURVE",
"222 703 LINE SMOOTH",
"222 708 OFFCURVE",
"226 713 OFFCURVE",
"232 713 CURVE SMOOTH",
"238 713 OFFCURVE",
"243 708 OFFCURVE",
"243 703 CURVE SMOOTH",
"243 10 LINE SMOOTH"
);
},
{
closed = 1;
nodes = (
"222 424 LINE",
"207 444 OFFCURVE",
"181 456 OFFCURVE",
"155 456 CURVE SMOOTH",
"142 456 OFFCURVE",
"129 450 OFFCURVE",
"117 438 CURVE SMOOTH",
"82 404 OFFCURVE",
"62 329 OFFCURVE",
"62 239 CURVE SMOOTH",
"62 148 OFFCURVE",
"82 73 OFFCURVE",
"117 39 CURVE SMOOTH",
"129 27 OFFCURVE",
"142 21 OFFCURVE",
"155 21 CURVE SMOOTH",
"181 21 OFFCURVE",
"207 33 OFFCURVE",
"222 53 CURVE"
);
}
);
};
components = (
{
alignment = -1;
name = b;
transform = "{-1, 0, 0, 1, 298, 0}";
}
);
layerId = master01;
width = 298;
},
{
associatedMasterId = master01;
layerId = "B4970914-8A7D-411A-8A1E-BE897ADA896B";
name = "Aug 9 20, 11:10";
paths = (
{
closed = 1;
nodes = (
"242 4 OFFCURVE",
"237 0 OFFCURVE",
"231 0 CURVE SMOOTH",
"225 0 OFFCURVE",
"221 4 OFFCURVE",
"221 10 CURVE SMOOTH",
"221 23 LINE",
"202 8 OFFCURVE",
"178 0 OFFCURVE",
"154 0 CURVE SMOOTH",
"135 0 OFFCURVE",
"117 8 OFFCURVE",
"101 24 CURVE SMOOTH",
"63 62 OFFCURVE",
"40 142 OFFCURVE",
"40 239 CURVE SMOOTH",
"40 307 OFFCURVE",
"51 366 OFFCURVE",
"71 409 CURVE SMOOTH",
"92 453 OFFCURVE",
"121 477 OFFCURVE",
"154 477 CURVE SMOOTH",
"178 477 OFFCURVE",
"202 469 OFFCURVE",
"221 454 CURVE",
"221 703 LINE SMOOTH",
"221 708 OFFCURVE",
"225 713 OFFCURVE",
"231 713 CURVE SMOOTH",
"237 713 OFFCURVE",
"242 708 OFFCURVE",
"242 703 CURVE SMOOTH",
"242 10 LINE SMOOTH"
);
},
{
closed = 1;
nodes = (
"221 424 LINE",
"206 444 OFFCURVE",
"180 456 OFFCURVE",
"154 456 CURVE SMOOTH",
"141 456 OFFCURVE",
"128 450 OFFCURVE",
"116 438 CURVE SMOOTH",
"81 404 OFFCURVE",
"61 329 OFFCURVE",
"61 239 CURVE SMOOTH",
"61 148 OFFCURVE",
"81 73 OFFCURVE",
"116 39 CURVE SMOOTH",
"128 27 OFFCURVE",
"141 21 OFFCURVE",
"154 21 CURVE SMOOTH",
"180 21 OFFCURVE",
"206 33 OFFCURVE",
"221 53 CURVE"
);
}
);
width = 292;
}
);
leftKerningGroup = o;
leftMetricsKey = o;
rightKerningGroup = l;
rightMetricsKey = "=|n";
unicode = 0064;
},
{
glyphname = e;
lastChange = "2020-10-02 15:26:06 +0000";
layers = (
{
anchors = (
{
name = bottom;
position = "{153, 0}";
},
{
name = ogonek;
position = "{275, 10}";
},
{
name = top;
position = "{153, 477}";
}
);
background = {
paths = (
{
closed = 1;
nodes = (
"266 277 OFFCURVE",
"265 275 OFFCURVE",
"263 272 CURVE SMOOTH",
"261 270 OFFCURVE",
"258 269 OFFCURVE",
"255 269 CURVE SMOOTH",
"62 269 LINE",
"61 259 OFFCURVE",
"61 249 OFFCURVE",
"61 239 CURVE SMOOTH",
"61 147 OFFCURVE",
"81 73 OFFCURVE",
"115 39 CURVE SMOOTH",
"127 27 OFFCURVE",
"140 21 OFFCURVE",
"153 21 CURVE SMOOTH",
"181 21 OFFCURVE",
"208 49 OFFCURVE",
"225 98 CURVE SMOOTH",
"227 104 OFFCURVE",
"233 107 OFFCURVE",
"239 105 CURVE SMOOTH",
"244 103 OFFCURVE",
"247 97 OFFCURVE",
"245 91 CURVE SMOOTH",
"224 33 OFFCURVE",
"191 0 OFFCURVE",
"153 0 CURVE SMOOTH",
"134 0 OFFCURVE",
"116 8 OFFCURVE",
"101 24 CURVE SMOOTH",
"62 62 OFFCURVE",
"40 141 OFFCURVE",
"40 239 CURVE SMOOTH",
"40 379 OFFCURVE",
"86 477 OFFCURVE",
"153 477 CURVE SMOOTH",
"212 477 OFFCURVE",
"257 398 OFFCURVE",
"265 280 CURVE"
);
},
{
closed = 1;
nodes = (
"234 389 OFFCURVE",
"198 456 OFFCURVE",
"153 456 CURVE SMOOTH",
"140 456 OFFCURVE",
"127 450 OFFCURVE",
"115 439 CURVE SMOOTH",
"88 411 OFFCURVE",
"69 358 OFFCURVE",
"63 290 CURVE",
"243 290 LINE"
);
}
);
};
layerId = master01;
paths = (
{
closed = 1;
nodes = (
"201 -5 OFFCURVE",
"231 31 OFFCURVE",
"250 88 CURVE SMOOTH",
"253 96 OFFCURVE",
"250 105 OFFCURVE",
"241 105 CURVE SMOOTH",
"235 105 OFFCURVE",
"232 102 OFFCURVE",
"230 96 CURVE SMOOTH",
"215 48 OFFCURVE",
"191 16 OFFCURVE",
"156 16 CURVE SMOOTH",
"101 16 OFFCURVE",
"62 111 OFFCURVE",
"62 239 CURVE SMOOTH",
"62 366 OFFCURVE",
"101 461 OFFCURVE",
"154 461 CURVE SMOOTH",
"201 461 OFFCURVE",
"232 386 OFFCURVE",
"234 287 CURVE",
"240 290 LINE",
"51 290 LINE",
"51 269 LINE",
"239 269 LINE SMOOTH",
"250 269 OFFCURVE",
"255 275 OFFCURVE",
"255 285 CURVE SMOOTH",
"255 398 OFFCURVE",
"216 482 OFFCURVE",
"154 482 CURVE SMOOTH",
"87 482 OFFCURVE",
"40 381 OFFCURVE",
"40 239 CURVE SMOOTH",
"40 97 OFFCURVE",
"87 -5 OFFCURVE",
"156 -5 CURVE SMOOTH"
);
}
);
width = 285;
},
{
associatedMasterId = master01;
layerId = "B90E4DFA-C887-439D-A8CE-ECBB3717D86C";
name = "Aug 9 20, 11:10";
paths = (
{
closed = 1;
nodes = (
"266 277 OFFCURVE",
"265 275 OFFCURVE",
"263 272 CURVE SMOOTH",
"261 270 OFFCURVE",
"258 269 OFFCURVE",
"255 269 CURVE SMOOTH",
"62 269 LINE",
"61 259 OFFCURVE",
"61 249 OFFCURVE",
"61 239 CURVE SMOOTH",
"61 147 OFFCURVE",
"81 73 OFFCURVE",
"115 39 CURVE SMOOTH",
"127 27 OFFCURVE",
"140 21 OFFCURVE",
"153 21 CURVE SMOOTH",
"181 21 OFFCURVE",
"208 49 OFFCURVE",
"225 98 CURVE SMOOTH",
"227 104 OFFCURVE",
"233 107 OFFCURVE",
"239 105 CURVE SMOOTH",
"244 103 OFFCURVE",
"247 97 OFFCURVE",
"245 91 CURVE SMOOTH",
"224 33 OFFCURVE",
"191 0 OFFCURVE",
"153 0 CURVE SMOOTH",
"134 0 OFFCURVE",
"116 8 OFFCURVE",
"101 24 CURVE SMOOTH",
"62 62 OFFCURVE",
"40 141 OFFCURVE",
"40 239 CURVE SMOOTH",
"40 379 OFFCURVE",
"86 477 OFFCURVE",
"153 477 CURVE SMOOTH",
"212 477 OFFCURVE",
"257 398 OFFCURVE",
"265 280 CURVE"
);
},
{
closed = 1;
nodes = (
"234 389 OFFCURVE",
"198 456 OFFCURVE",
"153 456 CURVE SMOOTH",
"140 456 OFFCURVE",
"127 450 OFFCURVE",
"115 439 CURVE SMOOTH",
"88 411 OFFCURVE",
"69 358 OFFCURVE",
"63 290 CURVE",
"243 290 LINE"
);
}
);
width = 305;
}
);
leftKerningGroup = o;
leftMetricsKey = o;
rightKerningGroup = o;
unicode = 0065;
},
{
glyphname = f;
lastChange = "2020-10-10 10:43:40 +0000";
layers = (
{
anchors = (
{
name = bottom;
position = "{92, 0}";
},
{
name = top;
position = "{92, 713}";
}
);
background = {
paths = (
{
closed = 1;
nodes = (
"233 694 OFFCURVE",
"229 689 OFFCURVE",
"223 689 CURVE SMOOTH",
"180 689 OFFCURVE",
"149 679 OFFCURVE",
"129 659 CURVE SMOOTH",
"107 637 OFFCURVE",
"96 604 OFFCURVE",
"96 556 CURVE SMOOTH",
"96 467 LINE",
"164 467 LINE SMOOTH",
"170 467 OFFCURVE",
"174 462 OFFCURVE",
"174 456 CURVE SMOOTH",
"174 451 OFFCURVE",
"170 446 OFFCURVE",
"164 446 CURVE SMOOTH",
"96 446 LINE",
"96 10 LINE SMOOTH",
"96 4 OFFCURVE",
"92 0 OFFCURVE",
"86 0 CURVE SMOOTH",
"80 0 OFFCURVE",
"76 4 OFFCURVE",
"76 10 CURVE SMOOTH",
"76 446 LINE",
"10 446 LINE SMOOTH",
"5 446 OFFCURVE",
"0 451 OFFCURVE",
"0 456 CURVE SMOOTH",
"0 462 OFFCURVE",
"5 467 OFFCURVE",
"10 467 CURVE SMOOTH",
"76 467 LINE",
"76 556 LINE SMOOTH",
"76 660 OFFCURVE",
"124 710 OFFCURVE",
"223 710 CURVE SMOOTH",
"229 710 OFFCURVE",
"233 706 OFFCURVE",
"233 700 CURVE SMOOTH"
);
}
);
};
components = (
{
name = idotless;
transform = "{1, 0, 0, 1, 15, 0}";
}
);
layerId = master01;
paths = (
{
closed = 1;
nodes = (
"124 713 OFFCURVE",
"75 662 OFFCURVE",
"75 559 CURVE SMOOTH",
"75 441 LINE",
"96 441 LINE",
"96 559 LINE SMOOTH",
"96 651 OFFCURVE",
"135 692 OFFCURVE",
"223 692 CURVE SMOOTH",
"229 692 OFFCURVE",
"233 696 OFFCURVE",
"233 702 CURVE SMOOTH",
"233 708 OFFCURVE",
"229 713 OFFCURVE",
"223 713 CURVE SMOOTH"
);
},
{
closed = 1;
nodes = (
"173 446 OFFCURVE",
"177 450 OFFCURVE",
"177 457 CURVE SMOOTH",
"177 463 OFFCURVE",
"173 467 OFFCURVE",
"167 467 CURVE SMOOTH",
"10 467 LINE SMOOTH",
"4 467 OFFCURVE",
"0 463 OFFCURVE",
"0 457 CURVE SMOOTH",
"0 450 OFFCURVE",
"4 446 OFFCURVE",
"10 446 CURVE SMOOTH",
"167 446 LINE SMOOTH"
);
}
);
width = 178;
},
{
associatedMasterId = master01;
layerId = "D7A2CD47-34F3-4E5F-8F10-CF20E5111C92";
name = "Aug 9 20, 11:20";
paths = (
{
closed = 1;
nodes = (
"253 694 OFFCURVE",
"249 689 OFFCURVE",
"243 689 CURVE SMOOTH",
"200 689 OFFCURVE",
"169 679 OFFCURVE",
"149 659 CURVE SMOOTH",
"127 637 OFFCURVE",
"116 604 OFFCURVE",
"116 556 CURVE SMOOTH",
"116 467 LINE",
"184 467 LINE SMOOTH",
"190 467 OFFCURVE",
"194 462 OFFCURVE",
"194 456 CURVE SMOOTH",
"194 451 OFFCURVE",
"190 446 OFFCURVE",
"184 446 CURVE SMOOTH",
"116 446 LINE",
"116 10 LINE SMOOTH",
"116 4 OFFCURVE",
"112 0 OFFCURVE",
"106 0 CURVE SMOOTH",
"100 0 OFFCURVE",
"96 4 OFFCURVE",
"96 10 CURVE SMOOTH",
"96 446 LINE",
"30 446 LINE SMOOTH",
"25 446 OFFCURVE",
"20 451 OFFCURVE",
"20 456 CURVE SMOOTH",
"20 462 OFFCURVE",
"25 467 OFFCURVE",
"30 467 CURVE SMOOTH",
"96 467 LINE",
"96 556 LINE SMOOTH",
"96 660 OFFCURVE",
"144 710 OFFCURVE",
"243 710 CURVE SMOOTH",
"249 710 OFFCURVE",
"253 706 OFFCURVE",
"253 700 CURVE SMOOTH"
);
}
);
width = 213;
}
);
leftKerningGroup = f;
rightKerningGroup = f;
unicode = 0066;
},
{
glyphname = g;
lastChange = "2020-10-10 10:43:58 +0000";
layers = (
{
anchors = (
{
name = bottom;
position = "{149, -187}";
},
{
name = top;
position = "{149, 477}";
}
);
background = {
paths = (
{
closed = 1;
nodes = (
"113 149 LINE",
"69 144 OFFCURVE",
"45 122 OFFCURVE",
"45 91 CURVE SMOOTH",
"45 47 OFFCURVE",
"95 31 OFFCURVE",
"148 21 CURVE SMOOTH",
"186 14 LINE SMOOTH",
"250 2 OFFCURVE",
"285 -25 OFFCURVE",
"285 -72 CURVE SMOOTH",
"285 -129 OFFCURVE",
"232 -166 OFFCURVE",
"151 -166 CURVE SMOOTH",
"70 -166 OFFCURVE",
"17 -129 OFFCURVE",
"17 -72 CURVE SMOOTH",
"17 -48 OFFCURVE",
"29 -22 OFFCURVE",
"59 -6 CURVE SMOOTH",
"64 -3 OFFCURVE",
"65 4 OFFCURVE",
"62 9 CURVE SMOOTH",
"59 14 OFFCURVE",
"53 15 OFFCURVE",
"48 12 CURVE SMOOTH",
"11 -8 OFFCURVE",
"-5 -42 OFFCURVE",
"-5 -72 CURVE SMOOTH",
"-5 -141 OFFCURVE",
"57 -187 OFFCURVE",
"151 -187 CURVE SMOOTH",
"245 -187 OFFCURVE",
"307 -141 OFFCURVE",
"307 -72 CURVE SMOOTH",
"307 -15 OFFCURVE",
"265 21 OFFCURVE",
"190 35 CURVE SMOOTH",
"153 42 LINE SMOOTH",
"110 50 OFFCURVE",
"67 62 OFFCURVE",
"67 92 CURVE SMOOTH",
"67 121 OFFCURVE",
"104 137 OFFCURVE",
"152 137 CURVE"
);
},
{
closed = 1;
nodes = (
"258 411 OFFCURVE",
"214 483 OFFCURVE",
"153 483 CURVE SMOOTH",
"90 483 OFFCURVE",
"48 412 OFFCURVE",
"48 310 CURVE SMOOTH",
"48 208 OFFCURVE",
"90 137 OFFCURVE",
"153 137 CURVE SMOOTH",
"214 137 OFFCURVE",
"258 209 OFFCURVE",
"258 310 CURVE SMOOTH"
);
},
{
closed = 1;
nodes = (
"236 222 OFFCURVE",
"199 158 OFFCURVE",
"153 158 CURVE SMOOTH",
"105 158 OFFCURVE",
"70 222 OFFCURVE",
"70 310 CURVE SMOOTH",
"70 398 OFFCURVE",
"105 462 OFFCURVE",
"153 462 CURVE SMOOTH",
"199 462 OFFCURVE",
"236 398 OFFCURVE",
"236 310 CURVE SMOOTH"
);
},
{
closed = 1;
nodes = (
"216 469 OFFCURVE",
"224 496 OFFCURVE",
"244 512 CURVE SMOOTH",
"248 515 OFFCURVE",
"249 518 OFFCURVE",
"249 522 CURVE SMOOTH",
"249 527 OFFCURVE",
"245 532 OFFCURVE",
"239 532 CURVE SMOOTH",
"236 532 OFFCURVE",
"234 531 OFFCURVE",
"231 529 CURVE SMOOTH",
"208 513 OFFCURVE",
"196 484 OFFCURVE",
"207 448 CURVE",
"227 433 LINE"
);
}
);
};
layerId = master01;
paths = (
{
closed = 1;
nodes = (
"113 149 LINE",
"69 144 OFFCURVE",
"45 122 OFFCURVE",
"45 91 CURVE SMOOTH",
"45 47 OFFCURVE",
"95 31 OFFCURVE",
"148 21 CURVE SMOOTH",
"186 14 LINE SMOOTH",
"250 2 OFFCURVE",
"285 -25 OFFCURVE",
"285 -72 CURVE SMOOTH",
"285 -129 OFFCURVE",
"232 -166 OFFCURVE",
"151 -166 CURVE SMOOTH",
"70 -166 OFFCURVE",
"17 -129 OFFCURVE",
"17 -72 CURVE SMOOTH",
"17 -48 OFFCURVE",
"29 -22 OFFCURVE",
"59 -6 CURVE SMOOTH",
"62 -4 OFFCURVE",
"64 -1 OFFCURVE",
"64 3 CURVE SMOOTH",
"64 12 OFFCURVE",
"55 16 OFFCURVE",
"48 12 CURVE SMOOTH",
"11 -8 OFFCURVE",
"-5 -42 OFFCURVE",
"-5 -72 CURVE SMOOTH",
"-5 -141 OFFCURVE",
"57 -187 OFFCURVE",
"151 -187 CURVE SMOOTH",
"245 -187 OFFCURVE",
"307 -141 OFFCURVE",
"307 -72 CURVE SMOOTH",
"307 -15 OFFCURVE",
"265 21 OFFCURVE",
"190 35 CURVE SMOOTH",
"153 42 LINE SMOOTH",
"110 50 OFFCURVE",
"67 62 OFFCURVE",
"67 92 CURVE SMOOTH",
"67 121 OFFCURVE",
"104 137 OFFCURVE",
"152 137 CURVE"
);
},
{
closed = 1;
nodes = (
"258 411 OFFCURVE",
"214 483 OFFCURVE",
"153 483 CURVE SMOOTH",
"90 483 OFFCURVE",
"48 412 OFFCURVE",
"48 310 CURVE SMOOTH",
"48 208 OFFCURVE",
"90 137 OFFCURVE",
"153 137 CURVE SMOOTH",
"214 137 OFFCURVE",
"258 209 OFFCURVE",
"258 310 CURVE SMOOTH"
);
},
{
closed = 1;
nodes = (
"236 222 OFFCURVE",
"199 158 OFFCURVE",
"153 158 CURVE SMOOTH",
"105 158 OFFCURVE",
"70 222 OFFCURVE",
"70 310 CURVE SMOOTH",
"70 398 OFFCURVE",
"105 462 OFFCURVE",
"153 462 CURVE SMOOTH",
"199 462 OFFCURVE",
"236 398 OFFCURVE",
"236 310 CURVE SMOOTH"
);
},
{
closed = 1;
nodes = (
"216 469 OFFCURVE",
"224 496 OFFCURVE",
"244 512 CURVE SMOOTH",
"248 515 OFFCURVE",
"249 518 OFFCURVE",
"249 522 CURVE SMOOTH",
"249 527 OFFCURVE",
"245 532 OFFCURVE",
"239 532 CURVE SMOOTH",
"236 532 OFFCURVE",
"234 531 OFFCURVE",
"231 529 CURVE SMOOTH",
"208 513 OFFCURVE",
"196 484 OFFCURVE",
"207 448 CURVE",
"227 433 LINE"
);
}
);
width = 302;
}
);
leftKerningGroup = g;
rightKerningGroup = g;
unicode = 0067;
},
